%TF.GenerationSoftware,KiCad,Pcbnew,10.0.2*%
%TF.CreationDate,2026-09-15T16:24:32+01:00*%
%TF.ProjectId,CSPS,43535053-2e6b-4696-9361-645f70636258,rev?*%
%TF.SameCoordinates,Original*%
%TF.FileFunction,Paste,Bot*%
%TF.FilePolarity,Positive*%
%FSLAX46Y46*%
G04 Gerber Fmt 4.6, Leading zero omitted, Abs format (unit mm)*
G04 Created by KiCad (PCBNEW 10.0.2) date 2026-09-15 16:24:32*
%MOMM*%
%LPD*%
G01*
G04 APERTURE LIST*
G04 Aperture macros list*
%AMRoundRect*
0 Rectangle with rounded corners*
0 $1 Rounding radius*
0 $2 $3 $4 $5 $6 $7 $8 $9 X,Y pos of 4 corners*
0 Add a 4 corners polygon primitive as box body*
4,1,4,$2,$3,$4,$5,$6,$7,$8,$9,$2,$3,0*
0 Add four circle primitives for the rounded corners*
1,1,$1+$1,$2,$3*
1,1,$1+$1,$4,$5*
1,1,$1+$1,$6,$7*
1,1,$1+$1,$8,$9*
0 Add four rect primitives between the rounded corners*
20,1,$1+$1,$2,$3,$4,$5,0*
20,1,$1+$1,$4,$5,$6,$7,0*
20,1,$1+$1,$6,$7,$8,$9,0*
20,1,$1+$1,$8,$9,$2,$3,0*%
G04 Aperture macros list end*
%ADD10RoundRect,0.250000X-0.400000X-0.625000X0.400000X-0.625000X0.400000X0.625000X-0.400000X0.625000X0*%
%ADD11RoundRect,0.150000X0.150000X-0.587500X0.150000X0.587500X-0.150000X0.587500X-0.150000X-0.587500X0*%
%ADD12RoundRect,0.250000X-0.625000X0.400000X-0.625000X-0.400000X0.625000X-0.400000X0.625000X0.400000X0*%
%ADD13RoundRect,0.250000X0.625000X-0.400000X0.625000X0.400000X-0.625000X0.400000X-0.625000X-0.400000X0*%
%ADD14RoundRect,0.137500X0.137500X-0.662500X0.137500X0.662500X-0.137500X0.662500X-0.137500X-0.662500X0*%
%ADD15RoundRect,0.250000X0.650000X-0.412500X0.650000X0.412500X-0.650000X0.412500X-0.650000X-0.412500X0*%
%ADD16RoundRect,0.250000X-1.000000X-0.650000X1.000000X-0.650000X1.000000X0.650000X-1.000000X0.650000X0*%
%ADD17RoundRect,0.250001X0.462499X0.624999X-0.462499X0.624999X-0.462499X-0.624999X0.462499X-0.624999X0*%
%ADD18RoundRect,0.250000X0.412500X0.650000X-0.412500X0.650000X-0.412500X-0.650000X0.412500X-0.650000X0*%
%ADD19RoundRect,0.250000X-0.412500X-0.650000X0.412500X-0.650000X0.412500X0.650000X-0.412500X0.650000X0*%
%ADD20R,1.100000X0.600000*%
%ADD21RoundRect,0.250000X0.400000X0.625000X-0.400000X0.625000X-0.400000X-0.625000X0.400000X-0.625000X0*%
%ADD22R,1.200000X0.900000*%
%ADD23RoundRect,0.250000X-0.650000X0.412500X-0.650000X-0.412500X0.650000X-0.412500X0.650000X0.412500X0*%
%ADD24RoundRect,0.150000X-0.150000X0.587500X-0.150000X-0.587500X0.150000X-0.587500X0.150000X0.587500X0*%
G04 APERTURE END LIST*
D10*
%TO.C,R11*%
X185800000Y-73350000D03*
X188900000Y-73350000D03*
%TD*%
D11*
%TO.C,Q1*%
X199550000Y-66237500D03*
X197650000Y-66237500D03*
X198600000Y-64362500D03*
%TD*%
D12*
%TO.C,R9*%
X198050000Y-69100000D03*
X198050000Y-72200000D03*
%TD*%
D13*
%TO.C,R4*%
X172250000Y-88000000D03*
X172250000Y-84900000D03*
%TD*%
D12*
%TO.C,R5*%
X168450000Y-84887500D03*
X168450000Y-87987500D03*
%TD*%
D14*
%TO.C,U1*%
X183395000Y-79600000D03*
X182125000Y-79600000D03*
X180855000Y-79600000D03*
X179585000Y-79600000D03*
X178315000Y-79600000D03*
X177045000Y-79600000D03*
X175775000Y-79600000D03*
X174505000Y-79600000D03*
X174505000Y-74300000D03*
X175775000Y-74300000D03*
X177045000Y-74300000D03*
X178315000Y-74300000D03*
X179585000Y-74300000D03*
X180855000Y-74300000D03*
X182125000Y-74300000D03*
X183395000Y-74300000D03*
%TD*%
D13*
%TO.C,R7*%
X164650000Y-87987500D03*
X164650000Y-84887500D03*
%TD*%
D15*
%TO.C,C3*%
X201715000Y-80625000D03*
X201715000Y-77500000D03*
%TD*%
D13*
%TO.C,R6*%
X194450000Y-80642500D03*
X194450000Y-77542500D03*
%TD*%
D15*
%TO.C,C2*%
X198072500Y-80625000D03*
X198072500Y-77500000D03*
%TD*%
D16*
%TO.C,D3*%
X195470000Y-83775000D03*
X199470000Y-83775000D03*
%TD*%
D17*
%TO.C,D2*%
X194075000Y-73400000D03*
X191100000Y-73400000D03*
%TD*%
D12*
%TO.C,R2*%
X190850000Y-76150000D03*
X190850000Y-79250000D03*
%TD*%
%TO.C,R3*%
X176050000Y-84900000D03*
X176050000Y-88000000D03*
%TD*%
D10*
%TO.C,R10*%
X178700000Y-82850000D03*
X181800000Y-82850000D03*
%TD*%
D18*
%TO.C,C6*%
X165912500Y-81700000D03*
X162787500Y-81700000D03*
%TD*%
D13*
%TO.C,R8*%
X200550000Y-72150000D03*
X200550000Y-69050000D03*
%TD*%
D19*
%TO.C,C7*%
X205737500Y-72700000D03*
X208862500Y-72700000D03*
%TD*%
D12*
%TO.C,R1*%
X186950000Y-76150000D03*
X186950000Y-79250000D03*
%TD*%
D10*
%TO.C,R13*%
X191000000Y-70905000D03*
X194100000Y-70905000D03*
%TD*%
D20*
%TO.C,U2*%
X204086000Y-84850000D03*
X204086000Y-83900000D03*
X204086000Y-82950000D03*
X206686000Y-82950000D03*
X206686000Y-84850000D03*
%TD*%
D21*
%TO.C,R12*%
X186900000Y-82850000D03*
X183800000Y-82850000D03*
%TD*%
D18*
%TO.C,C1*%
X182162500Y-71650000D03*
X179037500Y-71650000D03*
%TD*%
D22*
%TO.C,SW1*%
X165425000Y-76175000D03*
X169425000Y-76175000D03*
X165425000Y-74675000D03*
X169425000Y-74675000D03*
%TD*%
D15*
%TO.C,C4*%
X205357500Y-80625000D03*
X205357500Y-77500000D03*
%TD*%
D23*
%TO.C,C5*%
X160750000Y-84887500D03*
X160750000Y-88012500D03*
%TD*%
D24*
%TO.C,Q2*%
X183800000Y-86462500D03*
X185700000Y-86462500D03*
X184750000Y-88337500D03*
%TD*%
M02*
