%TF.GenerationSoftware,KiCad,Pcbnew,10.0.2*%
%TF.CreationDate,2026-10-05T15:11:26+01:00*%
%TF.ProjectId,CSPS,43535053-2e6b-4696-9361-645f70636258,rev?*%
%TF.SameCoordinates,Original*%
%TF.FileFunction,Legend,Bot*%
%TF.FilePolarity,Positive*%
%FSLAX46Y46*%
G04 Gerber Fmt 4.6, Leading zero omitted, Abs format (unit mm)*
G04 Created by KiCad (PCBNEW 10.0.2) date 2026-10-05 15:11:26*
%MOMM*%
%LPD*%
G01*
G04 APERTURE LIST*
G04 Aperture macros list*
%AMRoundRect*
0 Rectangle with rounded corners*
0 $1 Rounding radius*
0 $2 $3 $4 $5 $6 $7 $8 $9 X,Y pos of 4 corners*
0 Add a 4 corners polygon primitive as box body*
4,1,4,$2,$3,$4,$5,$6,$7,$8,$9,$2,$3,0*
0 Add four circle primitives for the rounded corners*
1,1,$1+$1,$2,$3*
1,1,$1+$1,$4,$5*
1,1,$1+$1,$6,$7*
1,1,$1+$1,$8,$9*
0 Add four rect primitives between the rounded corners*
20,1,$1+$1,$2,$3,$4,$5,0*
20,1,$1+$1,$4,$5,$6,$7,0*
20,1,$1+$1,$6,$7,$8,$9,0*
20,1,$1+$1,$8,$9,$2,$3,0*%
G04 Aperture macros list end*
%ADD10C,0.100000*%
%ADD11C,0.250000*%
%ADD12C,0.080000*%
%ADD13C,0.150000*%
%ADD14C,0.400000*%
%ADD15C,0.120000*%
%ADD16C,0.060000*%
%ADD17C,0.000000*%
%ADD18C,0.076827*%
%ADD19R,1.700000X1.700000*%
%ADD20C,1.700000*%
%ADD21C,1.500000*%
%ADD22RoundRect,0.250000X-0.400000X-0.625000X0.400000X-0.625000X0.400000X0.625000X-0.400000X0.625000X0*%
%ADD23RoundRect,0.150000X0.150000X-0.587500X0.150000X0.587500X-0.150000X0.587500X-0.150000X-0.587500X0*%
%ADD24RoundRect,0.250000X-0.625000X0.400000X-0.625000X-0.400000X0.625000X-0.400000X0.625000X0.400000X0*%
%ADD25RoundRect,0.250000X0.625000X-0.400000X0.625000X0.400000X-0.625000X0.400000X-0.625000X-0.400000X0*%
%ADD26RoundRect,0.137500X0.137500X-0.662500X0.137500X0.662500X-0.137500X0.662500X-0.137500X-0.662500X0*%
%ADD27RoundRect,0.250000X0.650000X-0.412500X0.650000X0.412500X-0.650000X0.412500X-0.650000X-0.412500X0*%
%ADD28RoundRect,0.760000X-1.140000X1.140000X-1.140000X-1.140000X1.140000X-1.140000X1.140000X1.140000X0*%
%ADD29C,3.800000*%
%ADD30RoundRect,0.250000X-1.000000X-0.650000X1.000000X-0.650000X1.000000X0.650000X-1.000000X0.650000X0*%
%ADD31RoundRect,0.250001X0.462499X0.624999X-0.462499X0.624999X-0.462499X-0.624999X0.462499X-0.624999X0*%
%ADD32RoundRect,0.250000X0.412500X0.650000X-0.412500X0.650000X-0.412500X-0.650000X0.412500X-0.650000X0*%
%ADD33RoundRect,0.250000X-0.600000X-0.750000X0.600000X-0.750000X0.600000X0.750000X-0.600000X0.750000X0*%
%ADD34O,1.700000X2.000000*%
%ADD35RoundRect,0.250000X-0.412500X-0.650000X0.412500X-0.650000X0.412500X0.650000X-0.412500X0.650000X0*%
%ADD36RoundRect,0.250000X-0.600000X-0.725000X0.600000X-0.725000X0.600000X0.725000X-0.600000X0.725000X0*%
%ADD37O,1.700000X1.950000*%
%ADD38R,1.100000X0.600000*%
%ADD39RoundRect,0.250000X0.400000X0.625000X-0.400000X0.625000X-0.400000X-0.625000X0.400000X-0.625000X0*%
%ADD40R,1.200000X0.900000*%
%ADD41RoundRect,0.250000X-0.650000X0.412500X-0.650000X-0.412500X0.650000X-0.412500X0.650000X0.412500X0*%
%ADD42R,1.000000X1.000000*%
%ADD43RoundRect,0.150000X-0.150000X0.587500X-0.150000X-0.587500X0.150000X-0.587500X0.150000X0.587500X0*%
G04 APERTURE END LIST*
D10*
X127995238Y-90900000D02*
X157195238Y-90900000D01*
X127995238Y-100400000D02*
X157195238Y-100400000D01*
X159795238Y-90900000D02*
X190195238Y-90900000D01*
X159795238Y-100400000D02*
X190195238Y-100400000D01*
D11*
X193500000Y-82200000D02*
X193500000Y-85400000D01*
D10*
X197000000Y-83000000D02*
X197000000Y-84600000D01*
X197800000Y-83000000D02*
X197000000Y-83800000D01*
X197800000Y-83000000D02*
X197800000Y-84600000D01*
X197800000Y-84600000D02*
X197000000Y-83800000D01*
D12*
X174559273Y-72047935D02*
X174459273Y-71247935D01*
X174459273Y-71247935D02*
X174316416Y-71247935D01*
X174316416Y-71247935D02*
X174235464Y-71286030D01*
X174235464Y-71286030D02*
X174187845Y-71362220D01*
X174187845Y-71362220D02*
X174168797Y-71438411D01*
X174168797Y-71438411D02*
X174159273Y-71590792D01*
X174159273Y-71590792D02*
X174173559Y-71705078D01*
X174173559Y-71705078D02*
X174221178Y-71857459D01*
X174221178Y-71857459D02*
X174259273Y-71933649D01*
X174259273Y-71933649D02*
X174325940Y-72009840D01*
X174325940Y-72009840D02*
X174416416Y-72047935D01*
X174416416Y-72047935D02*
X174559273Y-72047935D01*
X173873559Y-72047935D02*
X173925940Y-72009840D01*
X173925940Y-72009840D02*
X173949749Y-71971744D01*
X173949749Y-71971744D02*
X173968797Y-71895554D01*
X173968797Y-71895554D02*
X173940226Y-71666982D01*
X173940226Y-71666982D02*
X173902130Y-71590792D01*
X173902130Y-71590792D02*
X173868797Y-71552697D01*
X173868797Y-71552697D02*
X173806892Y-71514601D01*
X173806892Y-71514601D02*
X173721178Y-71514601D01*
X173721178Y-71514601D02*
X173668797Y-71552697D01*
X173668797Y-71552697D02*
X173644988Y-71590792D01*
X173644988Y-71590792D02*
X173625940Y-71666982D01*
X173625940Y-71666982D02*
X173654511Y-71895554D01*
X173654511Y-71895554D02*
X173692607Y-71971744D01*
X173692607Y-71971744D02*
X173725940Y-72009840D01*
X173725940Y-72009840D02*
X173787845Y-72047935D01*
X173787845Y-72047935D02*
X173873559Y-72047935D01*
X172892607Y-71514601D02*
X172959273Y-72047935D01*
X172902130Y-71590792D02*
X172868797Y-71552697D01*
X172868797Y-71552697D02*
X172806892Y-71514601D01*
X172806892Y-71514601D02*
X172721178Y-71514601D01*
X172721178Y-71514601D02*
X172668797Y-71552697D01*
X172668797Y-71552697D02*
X172649749Y-71628887D01*
X172649749Y-71628887D02*
X172702130Y-72047935D01*
X172330702Y-72047935D02*
X172383083Y-72009840D01*
X172383083Y-72009840D02*
X172406892Y-71971744D01*
X172406892Y-71971744D02*
X172425940Y-71895554D01*
X172425940Y-71895554D02*
X172397369Y-71666982D01*
X172397369Y-71666982D02*
X172359273Y-71590792D01*
X172359273Y-71590792D02*
X172325940Y-71552697D01*
X172325940Y-71552697D02*
X172264035Y-71514601D01*
X172264035Y-71514601D02*
X172178321Y-71514601D01*
X172178321Y-71514601D02*
X172125940Y-71552697D01*
X172125940Y-71552697D02*
X172102131Y-71590792D01*
X172102131Y-71590792D02*
X172083083Y-71666982D01*
X172083083Y-71666982D02*
X172111654Y-71895554D01*
X172111654Y-71895554D02*
X172149750Y-71971744D01*
X172149750Y-71971744D02*
X172183083Y-72009840D01*
X172183083Y-72009840D02*
X172244988Y-72047935D01*
X172244988Y-72047935D02*
X172330702Y-72047935D01*
X171892607Y-71514601D02*
X171664035Y-71514601D01*
X171773559Y-71247935D02*
X171859274Y-71933649D01*
X171859274Y-71933649D02*
X171840226Y-72009840D01*
X171840226Y-72009840D02*
X171787845Y-72047935D01*
X171787845Y-72047935D02*
X171730702Y-72047935D01*
X170811655Y-72009840D02*
X170873559Y-72047935D01*
X170873559Y-72047935D02*
X170987845Y-72047935D01*
X170987845Y-72047935D02*
X171040226Y-72009840D01*
X171040226Y-72009840D02*
X171064035Y-71971744D01*
X171064035Y-71971744D02*
X171083083Y-71895554D01*
X171083083Y-71895554D02*
X171054512Y-71666982D01*
X171054512Y-71666982D02*
X171016416Y-71590792D01*
X171016416Y-71590792D02*
X170983083Y-71552697D01*
X170983083Y-71552697D02*
X170921178Y-71514601D01*
X170921178Y-71514601D02*
X170806893Y-71514601D01*
X170806893Y-71514601D02*
X170754512Y-71552697D01*
X170473559Y-72047935D02*
X170525940Y-72009840D01*
X170525940Y-72009840D02*
X170544988Y-71933649D01*
X170544988Y-71933649D02*
X170459273Y-71247935D01*
X170159273Y-72047935D02*
X170211654Y-72009840D01*
X170211654Y-72009840D02*
X170235463Y-71971744D01*
X170235463Y-71971744D02*
X170254511Y-71895554D01*
X170254511Y-71895554D02*
X170225940Y-71666982D01*
X170225940Y-71666982D02*
X170187844Y-71590792D01*
X170187844Y-71590792D02*
X170154511Y-71552697D01*
X170154511Y-71552697D02*
X170092606Y-71514601D01*
X170092606Y-71514601D02*
X170006892Y-71514601D01*
X170006892Y-71514601D02*
X169954511Y-71552697D01*
X169954511Y-71552697D02*
X169930702Y-71590792D01*
X169930702Y-71590792D02*
X169911654Y-71666982D01*
X169911654Y-71666982D02*
X169940225Y-71895554D01*
X169940225Y-71895554D02*
X169978321Y-71971744D01*
X169978321Y-71971744D02*
X170011654Y-72009840D01*
X170011654Y-72009840D02*
X170073559Y-72047935D01*
X170073559Y-72047935D02*
X170159273Y-72047935D01*
X169725940Y-72009840D02*
X169673559Y-72047935D01*
X169673559Y-72047935D02*
X169559273Y-72047935D01*
X169559273Y-72047935D02*
X169497368Y-72009840D01*
X169497368Y-72009840D02*
X169459273Y-71933649D01*
X169459273Y-71933649D02*
X169454511Y-71895554D01*
X169454511Y-71895554D02*
X169473559Y-71819363D01*
X169473559Y-71819363D02*
X169525940Y-71781268D01*
X169525940Y-71781268D02*
X169611654Y-71781268D01*
X169611654Y-71781268D02*
X169664035Y-71743173D01*
X169664035Y-71743173D02*
X169683083Y-71666982D01*
X169683083Y-71666982D02*
X169678321Y-71628887D01*
X169678321Y-71628887D02*
X169640226Y-71552697D01*
X169640226Y-71552697D02*
X169578321Y-71514601D01*
X169578321Y-71514601D02*
X169492606Y-71514601D01*
X169492606Y-71514601D02*
X169440226Y-71552697D01*
X168983083Y-72009840D02*
X169044988Y-72047935D01*
X169044988Y-72047935D02*
X169159273Y-72047935D01*
X169159273Y-72047935D02*
X169211654Y-72009840D01*
X169211654Y-72009840D02*
X169230702Y-71933649D01*
X169230702Y-71933649D02*
X169192607Y-71628887D01*
X169192607Y-71628887D02*
X169154512Y-71552697D01*
X169154512Y-71552697D02*
X169092607Y-71514601D01*
X169092607Y-71514601D02*
X168978321Y-71514601D01*
X168978321Y-71514601D02*
X168925940Y-71552697D01*
X168925940Y-71552697D02*
X168906892Y-71628887D01*
X168906892Y-71628887D02*
X168916416Y-71705078D01*
X168916416Y-71705078D02*
X169211654Y-71781268D01*
X167973559Y-71247935D02*
X168044987Y-71819363D01*
X168044987Y-71819363D02*
X168087844Y-71933649D01*
X168087844Y-71933649D02*
X168154511Y-72009840D01*
X168154511Y-72009840D02*
X168244987Y-72047935D01*
X168244987Y-72047935D02*
X168302130Y-72047935D01*
X167725940Y-71324125D02*
X167692606Y-71286030D01*
X167692606Y-71286030D02*
X167630701Y-71247935D01*
X167630701Y-71247935D02*
X167487844Y-71247935D01*
X167487844Y-71247935D02*
X167435463Y-71286030D01*
X167435463Y-71286030D02*
X167411654Y-71324125D01*
X167411654Y-71324125D02*
X167392606Y-71400316D01*
X167392606Y-71400316D02*
X167402130Y-71476506D01*
X167402130Y-71476506D02*
X167444987Y-71590792D01*
X167444987Y-71590792D02*
X167844987Y-72047935D01*
X167844987Y-72047935D02*
X167473559Y-72047935D01*
X166625939Y-72352697D02*
X166649748Y-72314601D01*
X166649748Y-72314601D02*
X166692606Y-72200316D01*
X166692606Y-72200316D02*
X166711653Y-72124125D01*
X166711653Y-72124125D02*
X166725939Y-72009840D01*
X166725939Y-72009840D02*
X166730701Y-71819363D01*
X166730701Y-71819363D02*
X166711653Y-71666982D01*
X166711653Y-71666982D02*
X166659272Y-71476506D01*
X166659272Y-71476506D02*
X166616415Y-71362220D01*
X166616415Y-71362220D02*
X166578320Y-71286030D01*
X166578320Y-71286030D02*
X166506891Y-71171744D01*
X166506891Y-71171744D02*
X166473558Y-71133649D01*
X166316415Y-71247935D02*
X165944987Y-71247935D01*
X165944987Y-71247935D02*
X166183082Y-71552697D01*
X166183082Y-71552697D02*
X166097368Y-71552697D01*
X166097368Y-71552697D02*
X166044987Y-71590792D01*
X166044987Y-71590792D02*
X166021177Y-71628887D01*
X166021177Y-71628887D02*
X166002129Y-71705078D01*
X166002129Y-71705078D02*
X166025939Y-71895554D01*
X166025939Y-71895554D02*
X166064034Y-71971744D01*
X166064034Y-71971744D02*
X166097368Y-72009840D01*
X166097368Y-72009840D02*
X166159272Y-72047935D01*
X166159272Y-72047935D02*
X166330701Y-72047935D01*
X166330701Y-72047935D02*
X166383082Y-72009840D01*
X166383082Y-72009840D02*
X166406891Y-71971744D01*
X165773558Y-71247935D02*
X165673558Y-72047935D01*
X165673558Y-72047935D02*
X165373558Y-71247935D01*
X165230700Y-71247935D02*
X164859272Y-71247935D01*
X164859272Y-71247935D02*
X165097367Y-71552697D01*
X165097367Y-71552697D02*
X165011653Y-71552697D01*
X165011653Y-71552697D02*
X164959272Y-71590792D01*
X164959272Y-71590792D02*
X164935462Y-71628887D01*
X164935462Y-71628887D02*
X164916414Y-71705078D01*
X164916414Y-71705078D02*
X164940224Y-71895554D01*
X164940224Y-71895554D02*
X164978319Y-71971744D01*
X164978319Y-71971744D02*
X165011653Y-72009840D01*
X165011653Y-72009840D02*
X165073557Y-72047935D01*
X165073557Y-72047935D02*
X165244986Y-72047935D01*
X165244986Y-72047935D02*
X165297367Y-72009840D01*
X165297367Y-72009840D02*
X165321176Y-71971744D01*
X164516414Y-71247935D02*
X164540224Y-71438411D01*
X164673557Y-71362220D02*
X164540224Y-71438411D01*
X164540224Y-71438411D02*
X164387843Y-71362220D01*
X164644985Y-71590792D02*
X164540224Y-71438411D01*
X164540224Y-71438411D02*
X164473557Y-71590792D01*
X164340223Y-72352697D02*
X164306890Y-72314601D01*
X164306890Y-72314601D02*
X164235461Y-72200316D01*
X164235461Y-72200316D02*
X164197366Y-72124125D01*
X164197366Y-72124125D02*
X164154509Y-72009840D01*
X164154509Y-72009840D02*
X164102128Y-71819363D01*
X164102128Y-71819363D02*
X164083081Y-71666982D01*
X164083081Y-71666982D02*
X164087842Y-71476506D01*
X164087842Y-71476506D02*
X164102128Y-71362220D01*
X164102128Y-71362220D02*
X164121176Y-71286030D01*
X164121176Y-71286030D02*
X164164033Y-71171744D01*
X164164033Y-71171744D02*
X164187842Y-71133649D01*
X163378318Y-71514601D02*
X163330699Y-72047935D01*
X163330699Y-72047935D02*
X163168795Y-71666982D01*
X163168795Y-71666982D02*
X163102128Y-72047935D01*
X163102128Y-72047935D02*
X162921176Y-71514601D01*
X162759271Y-72047935D02*
X162692605Y-71514601D01*
X162659271Y-71247935D02*
X162692605Y-71286030D01*
X162692605Y-71286030D02*
X162668795Y-71324125D01*
X162668795Y-71324125D02*
X162635462Y-71286030D01*
X162635462Y-71286030D02*
X162659271Y-71247935D01*
X162659271Y-71247935D02*
X162668795Y-71324125D01*
X162492605Y-71514601D02*
X162264033Y-71514601D01*
X162373557Y-71247935D02*
X162459272Y-71933649D01*
X162459272Y-71933649D02*
X162440224Y-72009840D01*
X162440224Y-72009840D02*
X162387843Y-72047935D01*
X162387843Y-72047935D02*
X162330700Y-72047935D01*
X162130700Y-72047935D02*
X162030700Y-71247935D01*
X161873557Y-72047935D02*
X161821176Y-71628887D01*
X161821176Y-71628887D02*
X161840224Y-71552697D01*
X161840224Y-71552697D02*
X161892605Y-71514601D01*
X161892605Y-71514601D02*
X161978319Y-71514601D01*
X161978319Y-71514601D02*
X162040224Y-71552697D01*
X162040224Y-71552697D02*
X162073557Y-71590792D01*
X161502129Y-72047935D02*
X161554510Y-72009840D01*
X161554510Y-72009840D02*
X161578319Y-71971744D01*
X161578319Y-71971744D02*
X161597367Y-71895554D01*
X161597367Y-71895554D02*
X161568796Y-71666982D01*
X161568796Y-71666982D02*
X161530700Y-71590792D01*
X161530700Y-71590792D02*
X161497367Y-71552697D01*
X161497367Y-71552697D02*
X161435462Y-71514601D01*
X161435462Y-71514601D02*
X161349748Y-71514601D01*
X161349748Y-71514601D02*
X161297367Y-71552697D01*
X161297367Y-71552697D02*
X161273558Y-71590792D01*
X161273558Y-71590792D02*
X161254510Y-71666982D01*
X161254510Y-71666982D02*
X161283081Y-71895554D01*
X161283081Y-71895554D02*
X161321177Y-71971744D01*
X161321177Y-71971744D02*
X161354510Y-72009840D01*
X161354510Y-72009840D02*
X161416415Y-72047935D01*
X161416415Y-72047935D02*
X161502129Y-72047935D01*
X160721177Y-71514601D02*
X160787843Y-72047935D01*
X160978320Y-71514601D02*
X161030701Y-71933649D01*
X161030701Y-71933649D02*
X161011653Y-72009840D01*
X161011653Y-72009840D02*
X160959272Y-72047935D01*
X160959272Y-72047935D02*
X160873558Y-72047935D01*
X160873558Y-72047935D02*
X160811653Y-72009840D01*
X160811653Y-72009840D02*
X160778320Y-71971744D01*
X160521177Y-71514601D02*
X160292605Y-71514601D01*
X160402129Y-71247935D02*
X160487844Y-71933649D01*
X160487844Y-71933649D02*
X160468796Y-72009840D01*
X160468796Y-72009840D02*
X160416415Y-72047935D01*
X160416415Y-72047935D02*
X160359272Y-72047935D01*
X159440225Y-72009840D02*
X159502129Y-72047935D01*
X159502129Y-72047935D02*
X159616415Y-72047935D01*
X159616415Y-72047935D02*
X159668796Y-72009840D01*
X159668796Y-72009840D02*
X159692605Y-71971744D01*
X159692605Y-71971744D02*
X159711653Y-71895554D01*
X159711653Y-71895554D02*
X159683082Y-71666982D01*
X159683082Y-71666982D02*
X159644986Y-71590792D01*
X159644986Y-71590792D02*
X159611653Y-71552697D01*
X159611653Y-71552697D02*
X159549748Y-71514601D01*
X159549748Y-71514601D02*
X159435463Y-71514601D01*
X159435463Y-71514601D02*
X159383082Y-71552697D01*
X159187843Y-72047935D02*
X159087843Y-71247935D01*
X158930700Y-72047935D02*
X158878319Y-71628887D01*
X158878319Y-71628887D02*
X158897367Y-71552697D01*
X158897367Y-71552697D02*
X158949748Y-71514601D01*
X158949748Y-71514601D02*
X159035462Y-71514601D01*
X159035462Y-71514601D02*
X159097367Y-71552697D01*
X159097367Y-71552697D02*
X159130700Y-71590792D01*
X158411653Y-72009840D02*
X158473558Y-72047935D01*
X158473558Y-72047935D02*
X158587843Y-72047935D01*
X158587843Y-72047935D02*
X158640224Y-72009840D01*
X158640224Y-72009840D02*
X158659272Y-71933649D01*
X158659272Y-71933649D02*
X158621177Y-71628887D01*
X158621177Y-71628887D02*
X158583082Y-71552697D01*
X158583082Y-71552697D02*
X158521177Y-71514601D01*
X158521177Y-71514601D02*
X158406891Y-71514601D01*
X158406891Y-71514601D02*
X158354510Y-71552697D01*
X158354510Y-71552697D02*
X158335462Y-71628887D01*
X158335462Y-71628887D02*
X158344986Y-71705078D01*
X158344986Y-71705078D02*
X158640224Y-71781268D01*
X157868796Y-72009840D02*
X157930700Y-72047935D01*
X157930700Y-72047935D02*
X158044986Y-72047935D01*
X158044986Y-72047935D02*
X158097367Y-72009840D01*
X158097367Y-72009840D02*
X158121176Y-71971744D01*
X158121176Y-71971744D02*
X158140224Y-71895554D01*
X158140224Y-71895554D02*
X158111653Y-71666982D01*
X158111653Y-71666982D02*
X158073557Y-71590792D01*
X158073557Y-71590792D02*
X158040224Y-71552697D01*
X158040224Y-71552697D02*
X157978319Y-71514601D01*
X157978319Y-71514601D02*
X157864034Y-71514601D01*
X157864034Y-71514601D02*
X157811653Y-71552697D01*
X157616414Y-72047935D02*
X157516414Y-71247935D01*
X157521176Y-71743173D02*
X157387843Y-72047935D01*
X157321176Y-71514601D02*
X157587843Y-71819363D01*
X157130700Y-72047935D02*
X157064034Y-71514601D01*
X157030700Y-71247935D02*
X157064034Y-71286030D01*
X157064034Y-71286030D02*
X157040224Y-71324125D01*
X157040224Y-71324125D02*
X157006891Y-71286030D01*
X157006891Y-71286030D02*
X157030700Y-71247935D01*
X157030700Y-71247935D02*
X157040224Y-71324125D01*
X156778320Y-71514601D02*
X156844986Y-72047935D01*
X156787843Y-71590792D02*
X156754510Y-71552697D01*
X156754510Y-71552697D02*
X156692605Y-71514601D01*
X156692605Y-71514601D02*
X156606891Y-71514601D01*
X156606891Y-71514601D02*
X156554510Y-71552697D01*
X156554510Y-71552697D02*
X156535462Y-71628887D01*
X156535462Y-71628887D02*
X156587843Y-72047935D01*
X155978320Y-71514601D02*
X156059272Y-72162220D01*
X156059272Y-72162220D02*
X156097367Y-72238411D01*
X156097367Y-72238411D02*
X156130701Y-72276506D01*
X156130701Y-72276506D02*
X156192605Y-72314601D01*
X156192605Y-72314601D02*
X156278320Y-72314601D01*
X156278320Y-72314601D02*
X156330701Y-72276506D01*
X156040225Y-72009840D02*
X156102129Y-72047935D01*
X156102129Y-72047935D02*
X156216415Y-72047935D01*
X156216415Y-72047935D02*
X156268796Y-72009840D01*
X156268796Y-72009840D02*
X156292605Y-71971744D01*
X156292605Y-71971744D02*
X156311653Y-71895554D01*
X156311653Y-71895554D02*
X156283082Y-71666982D01*
X156283082Y-71666982D02*
X156244986Y-71590792D01*
X156244986Y-71590792D02*
X156211653Y-71552697D01*
X156211653Y-71552697D02*
X156149748Y-71514601D01*
X156149748Y-71514601D02*
X156035463Y-71514601D01*
X156035463Y-71514601D02*
X155983082Y-71552697D01*
X154959272Y-72047935D02*
X155111653Y-71666982D01*
X155302129Y-72047935D02*
X155202129Y-71247935D01*
X155202129Y-71247935D02*
X154973558Y-71247935D01*
X154973558Y-71247935D02*
X154921177Y-71286030D01*
X154921177Y-71286030D02*
X154897367Y-71324125D01*
X154897367Y-71324125D02*
X154878320Y-71400316D01*
X154878320Y-71400316D02*
X154892605Y-71514601D01*
X154892605Y-71514601D02*
X154930701Y-71590792D01*
X154930701Y-71590792D02*
X154964034Y-71628887D01*
X154964034Y-71628887D02*
X155025939Y-71666982D01*
X155025939Y-71666982D02*
X155254510Y-71666982D01*
X154649748Y-71628887D02*
X154449748Y-71628887D01*
X154416415Y-72047935D02*
X154702129Y-72047935D01*
X154702129Y-72047935D02*
X154602129Y-71247935D01*
X154602129Y-71247935D02*
X154316415Y-71247935D01*
X154159272Y-71819363D02*
X153873558Y-71819363D01*
X154244987Y-72047935D02*
X153944987Y-71247935D01*
X153944987Y-71247935D02*
X153844987Y-72047935D01*
X153644986Y-72047935D02*
X153544986Y-71247935D01*
X153544986Y-71247935D02*
X153402129Y-71247935D01*
X153402129Y-71247935D02*
X153321177Y-71286030D01*
X153321177Y-71286030D02*
X153273558Y-71362220D01*
X153273558Y-71362220D02*
X153254510Y-71438411D01*
X153254510Y-71438411D02*
X153244986Y-71590792D01*
X153244986Y-71590792D02*
X153259272Y-71705078D01*
X153259272Y-71705078D02*
X153306891Y-71857459D01*
X153306891Y-71857459D02*
X153344986Y-71933649D01*
X153344986Y-71933649D02*
X153411653Y-72009840D01*
X153411653Y-72009840D02*
X153502129Y-72047935D01*
X153502129Y-72047935D02*
X153644986Y-72047935D01*
X153044986Y-72047935D02*
X152944986Y-71247935D01*
X152944986Y-71247935D02*
X152816415Y-71819363D01*
X152816415Y-71819363D02*
X152544986Y-71247935D01*
X152544986Y-71247935D02*
X152644986Y-72047935D01*
X152306891Y-71628887D02*
X152106891Y-71628887D01*
X152073558Y-72047935D02*
X152359272Y-72047935D01*
X152359272Y-72047935D02*
X152259272Y-71247935D01*
X152259272Y-71247935D02*
X151973558Y-71247935D01*
D10*
X156686591Y-66646895D02*
X156953258Y-66265942D01*
X157143734Y-66646895D02*
X157143734Y-65846895D01*
X157143734Y-65846895D02*
X156838972Y-65846895D01*
X156838972Y-65846895D02*
X156762782Y-65884990D01*
X156762782Y-65884990D02*
X156724687Y-65923085D01*
X156724687Y-65923085D02*
X156686591Y-65999276D01*
X156686591Y-65999276D02*
X156686591Y-66113561D01*
X156686591Y-66113561D02*
X156724687Y-66189752D01*
X156724687Y-66189752D02*
X156762782Y-66227847D01*
X156762782Y-66227847D02*
X156838972Y-66265942D01*
X156838972Y-66265942D02*
X157143734Y-66265942D01*
X156038972Y-66608800D02*
X156115163Y-66646895D01*
X156115163Y-66646895D02*
X156267544Y-66646895D01*
X156267544Y-66646895D02*
X156343734Y-66608800D01*
X156343734Y-66608800D02*
X156381830Y-66532609D01*
X156381830Y-66532609D02*
X156381830Y-66227847D01*
X156381830Y-66227847D02*
X156343734Y-66151657D01*
X156343734Y-66151657D02*
X156267544Y-66113561D01*
X156267544Y-66113561D02*
X156115163Y-66113561D01*
X156115163Y-66113561D02*
X156038972Y-66151657D01*
X156038972Y-66151657D02*
X156000877Y-66227847D01*
X156000877Y-66227847D02*
X156000877Y-66304038D01*
X156000877Y-66304038D02*
X156381830Y-66380228D01*
X155734211Y-66113561D02*
X155543735Y-66646895D01*
X155543735Y-66646895D02*
X155353258Y-66113561D01*
X155048496Y-66570704D02*
X155010401Y-66608800D01*
X155010401Y-66608800D02*
X155048496Y-66646895D01*
X155048496Y-66646895D02*
X155086592Y-66608800D01*
X155086592Y-66608800D02*
X155048496Y-66570704D01*
X155048496Y-66570704D02*
X155048496Y-66646895D01*
X155048496Y-66151657D02*
X155010401Y-66189752D01*
X155010401Y-66189752D02*
X155048496Y-66227847D01*
X155048496Y-66227847D02*
X155086592Y-66189752D01*
X155086592Y-66189752D02*
X155048496Y-66151657D01*
X155048496Y-66151657D02*
X155048496Y-66227847D01*
X153638973Y-66646895D02*
X154096116Y-66646895D01*
X153867544Y-66646895D02*
X153867544Y-65846895D01*
X153867544Y-65846895D02*
X153943735Y-65961180D01*
X153943735Y-65961180D02*
X154019925Y-66037371D01*
X154019925Y-66037371D02*
X154096116Y-66075466D01*
X153296115Y-66570704D02*
X153258020Y-66608800D01*
X153258020Y-66608800D02*
X153296115Y-66646895D01*
X153296115Y-66646895D02*
X153334211Y-66608800D01*
X153334211Y-66608800D02*
X153296115Y-66570704D01*
X153296115Y-66570704D02*
X153296115Y-66646895D01*
X152496116Y-66646895D02*
X152953259Y-66646895D01*
X152724687Y-66646895D02*
X152724687Y-65846895D01*
X152724687Y-65846895D02*
X152800878Y-65961180D01*
X152800878Y-65961180D02*
X152877068Y-66037371D01*
X152877068Y-66037371D02*
X152953259Y-66075466D01*
X150934210Y-66646895D02*
X150934210Y-65846895D01*
X150591353Y-66646895D02*
X150591353Y-66227847D01*
X150591353Y-66227847D02*
X150629448Y-66151657D01*
X150629448Y-66151657D02*
X150705639Y-66113561D01*
X150705639Y-66113561D02*
X150819925Y-66113561D01*
X150819925Y-66113561D02*
X150896115Y-66151657D01*
X150896115Y-66151657D02*
X150934210Y-66189752D01*
X150324686Y-66113561D02*
X150019924Y-66113561D01*
X150210400Y-65846895D02*
X150210400Y-66532609D01*
X150210400Y-66532609D02*
X150172305Y-66608800D01*
X150172305Y-66608800D02*
X150096115Y-66646895D01*
X150096115Y-66646895D02*
X150019924Y-66646895D01*
X149867543Y-66113561D02*
X149562781Y-66113561D01*
X149753257Y-65846895D02*
X149753257Y-66532609D01*
X149753257Y-66532609D02*
X149715162Y-66608800D01*
X149715162Y-66608800D02*
X149638972Y-66646895D01*
X149638972Y-66646895D02*
X149562781Y-66646895D01*
X149296114Y-66113561D02*
X149296114Y-66913561D01*
X149296114Y-66151657D02*
X149219924Y-66113561D01*
X149219924Y-66113561D02*
X149067543Y-66113561D01*
X149067543Y-66113561D02*
X148991352Y-66151657D01*
X148991352Y-66151657D02*
X148953257Y-66189752D01*
X148953257Y-66189752D02*
X148915162Y-66265942D01*
X148915162Y-66265942D02*
X148915162Y-66494514D01*
X148915162Y-66494514D02*
X148953257Y-66570704D01*
X148953257Y-66570704D02*
X148991352Y-66608800D01*
X148991352Y-66608800D02*
X149067543Y-66646895D01*
X149067543Y-66646895D02*
X149219924Y-66646895D01*
X149219924Y-66646895D02*
X149296114Y-66608800D01*
X148610400Y-66608800D02*
X148534209Y-66646895D01*
X148534209Y-66646895D02*
X148381828Y-66646895D01*
X148381828Y-66646895D02*
X148305638Y-66608800D01*
X148305638Y-66608800D02*
X148267542Y-66532609D01*
X148267542Y-66532609D02*
X148267542Y-66494514D01*
X148267542Y-66494514D02*
X148305638Y-66418323D01*
X148305638Y-66418323D02*
X148381828Y-66380228D01*
X148381828Y-66380228D02*
X148496114Y-66380228D01*
X148496114Y-66380228D02*
X148572304Y-66342133D01*
X148572304Y-66342133D02*
X148610400Y-66265942D01*
X148610400Y-66265942D02*
X148610400Y-66227847D01*
X148610400Y-66227847D02*
X148572304Y-66151657D01*
X148572304Y-66151657D02*
X148496114Y-66113561D01*
X148496114Y-66113561D02*
X148381828Y-66113561D01*
X148381828Y-66113561D02*
X148305638Y-66151657D01*
X147924685Y-66570704D02*
X147886590Y-66608800D01*
X147886590Y-66608800D02*
X147924685Y-66646895D01*
X147924685Y-66646895D02*
X147962781Y-66608800D01*
X147962781Y-66608800D02*
X147924685Y-66570704D01*
X147924685Y-66570704D02*
X147924685Y-66646895D01*
X147924685Y-66151657D02*
X147886590Y-66189752D01*
X147886590Y-66189752D02*
X147924685Y-66227847D01*
X147924685Y-66227847D02*
X147962781Y-66189752D01*
X147962781Y-66189752D02*
X147924685Y-66151657D01*
X147924685Y-66151657D02*
X147924685Y-66227847D01*
X146972305Y-65808800D02*
X147658019Y-66837371D01*
X146134210Y-65808800D02*
X146819924Y-66837371D01*
X145524686Y-66113561D02*
X145524686Y-66761180D01*
X145524686Y-66761180D02*
X145562781Y-66837371D01*
X145562781Y-66837371D02*
X145600877Y-66875466D01*
X145600877Y-66875466D02*
X145677067Y-66913561D01*
X145677067Y-66913561D02*
X145791353Y-66913561D01*
X145791353Y-66913561D02*
X145867543Y-66875466D01*
X145524686Y-66608800D02*
X145600877Y-66646895D01*
X145600877Y-66646895D02*
X145753258Y-66646895D01*
X145753258Y-66646895D02*
X145829448Y-66608800D01*
X145829448Y-66608800D02*
X145867543Y-66570704D01*
X145867543Y-66570704D02*
X145905639Y-66494514D01*
X145905639Y-66494514D02*
X145905639Y-66265942D01*
X145905639Y-66265942D02*
X145867543Y-66189752D01*
X145867543Y-66189752D02*
X145829448Y-66151657D01*
X145829448Y-66151657D02*
X145753258Y-66113561D01*
X145753258Y-66113561D02*
X145600877Y-66113561D01*
X145600877Y-66113561D02*
X145524686Y-66151657D01*
X145143733Y-66646895D02*
X145143733Y-66113561D01*
X145143733Y-65846895D02*
X145181829Y-65884990D01*
X145181829Y-65884990D02*
X145143733Y-65923085D01*
X145143733Y-65923085D02*
X145105638Y-65884990D01*
X145105638Y-65884990D02*
X145143733Y-65846895D01*
X145143733Y-65846895D02*
X145143733Y-65923085D01*
X144877067Y-66113561D02*
X144572305Y-66113561D01*
X144762781Y-65846895D02*
X144762781Y-66532609D01*
X144762781Y-66532609D02*
X144724686Y-66608800D01*
X144724686Y-66608800D02*
X144648496Y-66646895D01*
X144648496Y-66646895D02*
X144572305Y-66646895D01*
X144305638Y-66646895D02*
X144305638Y-65846895D01*
X143962781Y-66646895D02*
X143962781Y-66227847D01*
X143962781Y-66227847D02*
X144000876Y-66151657D01*
X144000876Y-66151657D02*
X144077067Y-66113561D01*
X144077067Y-66113561D02*
X144191353Y-66113561D01*
X144191353Y-66113561D02*
X144267543Y-66151657D01*
X144267543Y-66151657D02*
X144305638Y-66189752D01*
X143238971Y-66113561D02*
X143238971Y-66646895D01*
X143581828Y-66113561D02*
X143581828Y-66532609D01*
X143581828Y-66532609D02*
X143543733Y-66608800D01*
X143543733Y-66608800D02*
X143467543Y-66646895D01*
X143467543Y-66646895D02*
X143353257Y-66646895D01*
X143353257Y-66646895D02*
X143277066Y-66608800D01*
X143277066Y-66608800D02*
X143238971Y-66570704D01*
X142858018Y-66646895D02*
X142858018Y-65846895D01*
X142858018Y-66151657D02*
X142781828Y-66113561D01*
X142781828Y-66113561D02*
X142629447Y-66113561D01*
X142629447Y-66113561D02*
X142553256Y-66151657D01*
X142553256Y-66151657D02*
X142515161Y-66189752D01*
X142515161Y-66189752D02*
X142477066Y-66265942D01*
X142477066Y-66265942D02*
X142477066Y-66494514D01*
X142477066Y-66494514D02*
X142515161Y-66570704D01*
X142515161Y-66570704D02*
X142553256Y-66608800D01*
X142553256Y-66608800D02*
X142629447Y-66646895D01*
X142629447Y-66646895D02*
X142781828Y-66646895D01*
X142781828Y-66646895D02*
X142858018Y-66608800D01*
X142134208Y-66570704D02*
X142096113Y-66608800D01*
X142096113Y-66608800D02*
X142134208Y-66646895D01*
X142134208Y-66646895D02*
X142172304Y-66608800D01*
X142172304Y-66608800D02*
X142134208Y-66570704D01*
X142134208Y-66570704D02*
X142134208Y-66646895D01*
X141410399Y-66608800D02*
X141486590Y-66646895D01*
X141486590Y-66646895D02*
X141638971Y-66646895D01*
X141638971Y-66646895D02*
X141715161Y-66608800D01*
X141715161Y-66608800D02*
X141753256Y-66570704D01*
X141753256Y-66570704D02*
X141791352Y-66494514D01*
X141791352Y-66494514D02*
X141791352Y-66265942D01*
X141791352Y-66265942D02*
X141753256Y-66189752D01*
X141753256Y-66189752D02*
X141715161Y-66151657D01*
X141715161Y-66151657D02*
X141638971Y-66113561D01*
X141638971Y-66113561D02*
X141486590Y-66113561D01*
X141486590Y-66113561D02*
X141410399Y-66151657D01*
X140953257Y-66646895D02*
X141029447Y-66608800D01*
X141029447Y-66608800D02*
X141067542Y-66570704D01*
X141067542Y-66570704D02*
X141105638Y-66494514D01*
X141105638Y-66494514D02*
X141105638Y-66265942D01*
X141105638Y-66265942D02*
X141067542Y-66189752D01*
X141067542Y-66189752D02*
X141029447Y-66151657D01*
X141029447Y-66151657D02*
X140953257Y-66113561D01*
X140953257Y-66113561D02*
X140838971Y-66113561D01*
X140838971Y-66113561D02*
X140762780Y-66151657D01*
X140762780Y-66151657D02*
X140724685Y-66189752D01*
X140724685Y-66189752D02*
X140686590Y-66265942D01*
X140686590Y-66265942D02*
X140686590Y-66494514D01*
X140686590Y-66494514D02*
X140724685Y-66570704D01*
X140724685Y-66570704D02*
X140762780Y-66608800D01*
X140762780Y-66608800D02*
X140838971Y-66646895D01*
X140838971Y-66646895D02*
X140953257Y-66646895D01*
X140343732Y-66646895D02*
X140343732Y-66113561D01*
X140343732Y-66189752D02*
X140305637Y-66151657D01*
X140305637Y-66151657D02*
X140229447Y-66113561D01*
X140229447Y-66113561D02*
X140115161Y-66113561D01*
X140115161Y-66113561D02*
X140038970Y-66151657D01*
X140038970Y-66151657D02*
X140000875Y-66227847D01*
X140000875Y-66227847D02*
X140000875Y-66646895D01*
X140000875Y-66227847D02*
X139962780Y-66151657D01*
X139962780Y-66151657D02*
X139886589Y-66113561D01*
X139886589Y-66113561D02*
X139772304Y-66113561D01*
X139772304Y-66113561D02*
X139696113Y-66151657D01*
X139696113Y-66151657D02*
X139658018Y-66227847D01*
X139658018Y-66227847D02*
X139658018Y-66646895D01*
X138705637Y-65808800D02*
X139391351Y-66837371D01*
X138438970Y-66113561D02*
X138438970Y-66913561D01*
X138438970Y-66151657D02*
X138362780Y-66113561D01*
X138362780Y-66113561D02*
X138210399Y-66113561D01*
X138210399Y-66113561D02*
X138134208Y-66151657D01*
X138134208Y-66151657D02*
X138096113Y-66189752D01*
X138096113Y-66189752D02*
X138058018Y-66265942D01*
X138058018Y-66265942D02*
X138058018Y-66494514D01*
X138058018Y-66494514D02*
X138096113Y-66570704D01*
X138096113Y-66570704D02*
X138134208Y-66608800D01*
X138134208Y-66608800D02*
X138210399Y-66646895D01*
X138210399Y-66646895D02*
X138362780Y-66646895D01*
X138362780Y-66646895D02*
X138438970Y-66608800D01*
X137372303Y-66646895D02*
X137372303Y-66227847D01*
X137372303Y-66227847D02*
X137410398Y-66151657D01*
X137410398Y-66151657D02*
X137486589Y-66113561D01*
X137486589Y-66113561D02*
X137638970Y-66113561D01*
X137638970Y-66113561D02*
X137715160Y-66151657D01*
X137372303Y-66608800D02*
X137448494Y-66646895D01*
X137448494Y-66646895D02*
X137638970Y-66646895D01*
X137638970Y-66646895D02*
X137715160Y-66608800D01*
X137715160Y-66608800D02*
X137753256Y-66532609D01*
X137753256Y-66532609D02*
X137753256Y-66456419D01*
X137753256Y-66456419D02*
X137715160Y-66380228D01*
X137715160Y-66380228D02*
X137638970Y-66342133D01*
X137638970Y-66342133D02*
X137448494Y-66342133D01*
X137448494Y-66342133D02*
X137372303Y-66304038D01*
X136648493Y-66113561D02*
X136648493Y-66646895D01*
X136991350Y-66113561D02*
X136991350Y-66532609D01*
X136991350Y-66532609D02*
X136953255Y-66608800D01*
X136953255Y-66608800D02*
X136877065Y-66646895D01*
X136877065Y-66646895D02*
X136762779Y-66646895D01*
X136762779Y-66646895D02*
X136686588Y-66608800D01*
X136686588Y-66608800D02*
X136648493Y-66570704D01*
X136153255Y-66646895D02*
X136229445Y-66608800D01*
X136229445Y-66608800D02*
X136267540Y-66532609D01*
X136267540Y-66532609D02*
X136267540Y-65846895D01*
X135505635Y-66608800D02*
X135581826Y-66646895D01*
X135581826Y-66646895D02*
X135734207Y-66646895D01*
X135734207Y-66646895D02*
X135810397Y-66608800D01*
X135810397Y-66608800D02*
X135848492Y-66570704D01*
X135848492Y-66570704D02*
X135886588Y-66494514D01*
X135886588Y-66494514D02*
X135886588Y-66265942D01*
X135886588Y-66265942D02*
X135848492Y-66189752D01*
X135848492Y-66189752D02*
X135810397Y-66151657D01*
X135810397Y-66151657D02*
X135734207Y-66113561D01*
X135734207Y-66113561D02*
X135581826Y-66113561D01*
X135581826Y-66113561D02*
X135505635Y-66151657D01*
X134591350Y-65808800D02*
X135277064Y-66837371D01*
X133867540Y-66570704D02*
X133905636Y-66608800D01*
X133905636Y-66608800D02*
X134019921Y-66646895D01*
X134019921Y-66646895D02*
X134096112Y-66646895D01*
X134096112Y-66646895D02*
X134210398Y-66608800D01*
X134210398Y-66608800D02*
X134286588Y-66532609D01*
X134286588Y-66532609D02*
X134324683Y-66456419D01*
X134324683Y-66456419D02*
X134362779Y-66304038D01*
X134362779Y-66304038D02*
X134362779Y-66189752D01*
X134362779Y-66189752D02*
X134324683Y-66037371D01*
X134324683Y-66037371D02*
X134286588Y-65961180D01*
X134286588Y-65961180D02*
X134210398Y-65884990D01*
X134210398Y-65884990D02*
X134096112Y-65846895D01*
X134096112Y-65846895D02*
X134019921Y-65846895D01*
X134019921Y-65846895D02*
X133905636Y-65884990D01*
X133905636Y-65884990D02*
X133867540Y-65923085D01*
X133562779Y-66608800D02*
X133448493Y-66646895D01*
X133448493Y-66646895D02*
X133258017Y-66646895D01*
X133258017Y-66646895D02*
X133181826Y-66608800D01*
X133181826Y-66608800D02*
X133143731Y-66570704D01*
X133143731Y-66570704D02*
X133105636Y-66494514D01*
X133105636Y-66494514D02*
X133105636Y-66418323D01*
X133105636Y-66418323D02*
X133143731Y-66342133D01*
X133143731Y-66342133D02*
X133181826Y-66304038D01*
X133181826Y-66304038D02*
X133258017Y-66265942D01*
X133258017Y-66265942D02*
X133410398Y-66227847D01*
X133410398Y-66227847D02*
X133486588Y-66189752D01*
X133486588Y-66189752D02*
X133524683Y-66151657D01*
X133524683Y-66151657D02*
X133562779Y-66075466D01*
X133562779Y-66075466D02*
X133562779Y-65999276D01*
X133562779Y-65999276D02*
X133524683Y-65923085D01*
X133524683Y-65923085D02*
X133486588Y-65884990D01*
X133486588Y-65884990D02*
X133410398Y-65846895D01*
X133410398Y-65846895D02*
X133219921Y-65846895D01*
X133219921Y-65846895D02*
X133105636Y-65884990D01*
X132762778Y-66646895D02*
X132762778Y-65846895D01*
X132762778Y-65846895D02*
X132458016Y-65846895D01*
X132458016Y-65846895D02*
X132381826Y-65884990D01*
X132381826Y-65884990D02*
X132343731Y-65923085D01*
X132343731Y-65923085D02*
X132305635Y-65999276D01*
X132305635Y-65999276D02*
X132305635Y-66113561D01*
X132305635Y-66113561D02*
X132343731Y-66189752D01*
X132343731Y-66189752D02*
X132381826Y-66227847D01*
X132381826Y-66227847D02*
X132458016Y-66265942D01*
X132458016Y-66265942D02*
X132762778Y-66265942D01*
X132000874Y-66608800D02*
X131886588Y-66646895D01*
X131886588Y-66646895D02*
X131696112Y-66646895D01*
X131696112Y-66646895D02*
X131619921Y-66608800D01*
X131619921Y-66608800D02*
X131581826Y-66570704D01*
X131581826Y-66570704D02*
X131543731Y-66494514D01*
X131543731Y-66494514D02*
X131543731Y-66418323D01*
X131543731Y-66418323D02*
X131581826Y-66342133D01*
X131581826Y-66342133D02*
X131619921Y-66304038D01*
X131619921Y-66304038D02*
X131696112Y-66265942D01*
X131696112Y-66265942D02*
X131848493Y-66227847D01*
X131848493Y-66227847D02*
X131924683Y-66189752D01*
X131924683Y-66189752D02*
X131962778Y-66151657D01*
X131962778Y-66151657D02*
X132000874Y-66075466D01*
X132000874Y-66075466D02*
X132000874Y-65999276D01*
X132000874Y-65999276D02*
X131962778Y-65923085D01*
X131962778Y-65923085D02*
X131924683Y-65884990D01*
X131924683Y-65884990D02*
X131848493Y-65846895D01*
X131848493Y-65846895D02*
X131658016Y-65846895D01*
X131658016Y-65846895D02*
X131543731Y-65884990D01*
X131200873Y-66342133D02*
X130591350Y-66342133D01*
X129753254Y-66570704D02*
X129791350Y-66608800D01*
X129791350Y-66608800D02*
X129905635Y-66646895D01*
X129905635Y-66646895D02*
X129981826Y-66646895D01*
X129981826Y-66646895D02*
X130096112Y-66608800D01*
X130096112Y-66608800D02*
X130172302Y-66532609D01*
X130172302Y-66532609D02*
X130210397Y-66456419D01*
X130210397Y-66456419D02*
X130248493Y-66304038D01*
X130248493Y-66304038D02*
X130248493Y-66189752D01*
X130248493Y-66189752D02*
X130210397Y-66037371D01*
X130210397Y-66037371D02*
X130172302Y-65961180D01*
X130172302Y-65961180D02*
X130096112Y-65884990D01*
X130096112Y-65884990D02*
X129981826Y-65846895D01*
X129981826Y-65846895D02*
X129905635Y-65846895D01*
X129905635Y-65846895D02*
X129791350Y-65884990D01*
X129791350Y-65884990D02*
X129753254Y-65923085D01*
X129296112Y-66646895D02*
X129372302Y-66608800D01*
X129372302Y-66608800D02*
X129410397Y-66570704D01*
X129410397Y-66570704D02*
X129448493Y-66494514D01*
X129448493Y-66494514D02*
X129448493Y-66265942D01*
X129448493Y-66265942D02*
X129410397Y-66189752D01*
X129410397Y-66189752D02*
X129372302Y-66151657D01*
X129372302Y-66151657D02*
X129296112Y-66113561D01*
X129296112Y-66113561D02*
X129181826Y-66113561D01*
X129181826Y-66113561D02*
X129105635Y-66151657D01*
X129105635Y-66151657D02*
X129067540Y-66189752D01*
X129067540Y-66189752D02*
X129029445Y-66265942D01*
X129029445Y-66265942D02*
X129029445Y-66494514D01*
X129029445Y-66494514D02*
X129067540Y-66570704D01*
X129067540Y-66570704D02*
X129105635Y-66608800D01*
X129105635Y-66608800D02*
X129181826Y-66646895D01*
X129181826Y-66646895D02*
X129296112Y-66646895D01*
X128686587Y-66113561D02*
X128686587Y-66646895D01*
X128686587Y-66189752D02*
X128648492Y-66151657D01*
X128648492Y-66151657D02*
X128572302Y-66113561D01*
X128572302Y-66113561D02*
X128458016Y-66113561D01*
X128458016Y-66113561D02*
X128381825Y-66151657D01*
X128381825Y-66151657D02*
X128343730Y-66227847D01*
X128343730Y-66227847D02*
X128343730Y-66646895D01*
X128077063Y-66113561D02*
X127772301Y-66113561D01*
X127962777Y-65846895D02*
X127962777Y-66532609D01*
X127962777Y-66532609D02*
X127924682Y-66608800D01*
X127924682Y-66608800D02*
X127848492Y-66646895D01*
X127848492Y-66646895D02*
X127772301Y-66646895D01*
X127505634Y-66646895D02*
X127505634Y-66113561D01*
X127505634Y-66265942D02*
X127467539Y-66189752D01*
X127467539Y-66189752D02*
X127429444Y-66151657D01*
X127429444Y-66151657D02*
X127353253Y-66113561D01*
X127353253Y-66113561D02*
X127277063Y-66113561D01*
X126896111Y-66646895D02*
X126972301Y-66608800D01*
X126972301Y-66608800D02*
X127010396Y-66570704D01*
X127010396Y-66570704D02*
X127048492Y-66494514D01*
X127048492Y-66494514D02*
X127048492Y-66265942D01*
X127048492Y-66265942D02*
X127010396Y-66189752D01*
X127010396Y-66189752D02*
X126972301Y-66151657D01*
X126972301Y-66151657D02*
X126896111Y-66113561D01*
X126896111Y-66113561D02*
X126781825Y-66113561D01*
X126781825Y-66113561D02*
X126705634Y-66151657D01*
X126705634Y-66151657D02*
X126667539Y-66189752D01*
X126667539Y-66189752D02*
X126629444Y-66265942D01*
X126629444Y-66265942D02*
X126629444Y-66494514D01*
X126629444Y-66494514D02*
X126667539Y-66570704D01*
X126667539Y-66570704D02*
X126705634Y-66608800D01*
X126705634Y-66608800D02*
X126781825Y-66646895D01*
X126781825Y-66646895D02*
X126896111Y-66646895D01*
X126172301Y-66646895D02*
X126248491Y-66608800D01*
X126248491Y-66608800D02*
X126286586Y-66532609D01*
X126286586Y-66532609D02*
X126286586Y-65846895D01*
X125753253Y-66646895D02*
X125829443Y-66608800D01*
X125829443Y-66608800D02*
X125867538Y-66532609D01*
X125867538Y-66532609D02*
X125867538Y-65846895D01*
X125143728Y-66608800D02*
X125219919Y-66646895D01*
X125219919Y-66646895D02*
X125372300Y-66646895D01*
X125372300Y-66646895D02*
X125448490Y-66608800D01*
X125448490Y-66608800D02*
X125486586Y-66532609D01*
X125486586Y-66532609D02*
X125486586Y-66227847D01*
X125486586Y-66227847D02*
X125448490Y-66151657D01*
X125448490Y-66151657D02*
X125372300Y-66113561D01*
X125372300Y-66113561D02*
X125219919Y-66113561D01*
X125219919Y-66113561D02*
X125143728Y-66151657D01*
X125143728Y-66151657D02*
X125105633Y-66227847D01*
X125105633Y-66227847D02*
X125105633Y-66304038D01*
X125105633Y-66304038D02*
X125486586Y-66380228D01*
X124762776Y-66646895D02*
X124762776Y-66113561D01*
X124762776Y-66265942D02*
X124724681Y-66189752D01*
X124724681Y-66189752D02*
X124686586Y-66151657D01*
X124686586Y-66151657D02*
X124610395Y-66113561D01*
X124610395Y-66113561D02*
X124534205Y-66113561D01*
X163943734Y-75796895D02*
X163943734Y-74996895D01*
X163943734Y-74996895D02*
X163486591Y-75796895D01*
X163486591Y-75796895D02*
X163486591Y-74996895D01*
X162648496Y-75796895D02*
X162915163Y-75415942D01*
X163105639Y-75796895D02*
X163105639Y-74996895D01*
X163105639Y-74996895D02*
X162800877Y-74996895D01*
X162800877Y-74996895D02*
X162724687Y-75034990D01*
X162724687Y-75034990D02*
X162686592Y-75073085D01*
X162686592Y-75073085D02*
X162648496Y-75149276D01*
X162648496Y-75149276D02*
X162648496Y-75263561D01*
X162648496Y-75263561D02*
X162686592Y-75339752D01*
X162686592Y-75339752D02*
X162724687Y-75377847D01*
X162724687Y-75377847D02*
X162800877Y-75415942D01*
X162800877Y-75415942D02*
X163105639Y-75415942D01*
X162343735Y-75758800D02*
X162229449Y-75796895D01*
X162229449Y-75796895D02*
X162038973Y-75796895D01*
X162038973Y-75796895D02*
X161962782Y-75758800D01*
X161962782Y-75758800D02*
X161924687Y-75720704D01*
X161924687Y-75720704D02*
X161886592Y-75644514D01*
X161886592Y-75644514D02*
X161886592Y-75568323D01*
X161886592Y-75568323D02*
X161924687Y-75492133D01*
X161924687Y-75492133D02*
X161962782Y-75454038D01*
X161962782Y-75454038D02*
X162038973Y-75415942D01*
X162038973Y-75415942D02*
X162191354Y-75377847D01*
X162191354Y-75377847D02*
X162267544Y-75339752D01*
X162267544Y-75339752D02*
X162305639Y-75301657D01*
X162305639Y-75301657D02*
X162343735Y-75225466D01*
X162343735Y-75225466D02*
X162343735Y-75149276D01*
X162343735Y-75149276D02*
X162305639Y-75073085D01*
X162305639Y-75073085D02*
X162267544Y-75034990D01*
X162267544Y-75034990D02*
X162191354Y-74996895D01*
X162191354Y-74996895D02*
X162000877Y-74996895D01*
X162000877Y-74996895D02*
X161886592Y-75034990D01*
X161658020Y-74996895D02*
X161200877Y-74996895D01*
X161429449Y-75796895D02*
X161429449Y-74996895D01*
X170674687Y-61484990D02*
X170750877Y-61446895D01*
X170750877Y-61446895D02*
X170865163Y-61446895D01*
X170865163Y-61446895D02*
X170979449Y-61484990D01*
X170979449Y-61484990D02*
X171055639Y-61561180D01*
X171055639Y-61561180D02*
X171093734Y-61637371D01*
X171093734Y-61637371D02*
X171131830Y-61789752D01*
X171131830Y-61789752D02*
X171131830Y-61904038D01*
X171131830Y-61904038D02*
X171093734Y-62056419D01*
X171093734Y-62056419D02*
X171055639Y-62132609D01*
X171055639Y-62132609D02*
X170979449Y-62208800D01*
X170979449Y-62208800D02*
X170865163Y-62246895D01*
X170865163Y-62246895D02*
X170788972Y-62246895D01*
X170788972Y-62246895D02*
X170674687Y-62208800D01*
X170674687Y-62208800D02*
X170636591Y-62170704D01*
X170636591Y-62170704D02*
X170636591Y-61904038D01*
X170636591Y-61904038D02*
X170788972Y-61904038D01*
X170293734Y-62246895D02*
X170293734Y-61446895D01*
X170293734Y-61446895D02*
X169836591Y-62246895D01*
X169836591Y-62246895D02*
X169836591Y-61446895D01*
X169455639Y-62246895D02*
X169455639Y-61446895D01*
X169455639Y-61446895D02*
X169265163Y-61446895D01*
X169265163Y-61446895D02*
X169150877Y-61484990D01*
X169150877Y-61484990D02*
X169074687Y-61561180D01*
X169074687Y-61561180D02*
X169036592Y-61637371D01*
X169036592Y-61637371D02*
X168998496Y-61789752D01*
X168998496Y-61789752D02*
X168998496Y-61904038D01*
X168998496Y-61904038D02*
X169036592Y-62056419D01*
X169036592Y-62056419D02*
X169074687Y-62132609D01*
X169074687Y-62132609D02*
X169150877Y-62208800D01*
X169150877Y-62208800D02*
X169265163Y-62246895D01*
X169265163Y-62246895D02*
X169455639Y-62246895D01*
X166979448Y-62246895D02*
X167246115Y-61865942D01*
X167436591Y-62246895D02*
X167436591Y-61446895D01*
X167436591Y-61446895D02*
X167131829Y-61446895D01*
X167131829Y-61446895D02*
X167055639Y-61484990D01*
X167055639Y-61484990D02*
X167017544Y-61523085D01*
X167017544Y-61523085D02*
X166979448Y-61599276D01*
X166979448Y-61599276D02*
X166979448Y-61713561D01*
X166979448Y-61713561D02*
X167017544Y-61789752D01*
X167017544Y-61789752D02*
X167055639Y-61827847D01*
X167055639Y-61827847D02*
X167131829Y-61865942D01*
X167131829Y-61865942D02*
X167436591Y-61865942D01*
X166712782Y-61446895D02*
X166179448Y-62246895D01*
X166179448Y-61446895D02*
X166712782Y-62246895D01*
X164769924Y-61446895D02*
X164312781Y-61446895D01*
X164541353Y-62246895D02*
X164541353Y-61446895D01*
X164122305Y-61446895D02*
X163588971Y-62246895D01*
X163588971Y-61446895D02*
X164122305Y-62246895D01*
X162141352Y-61446895D02*
X161646114Y-61446895D01*
X161646114Y-61446895D02*
X161912780Y-61751657D01*
X161912780Y-61751657D02*
X161798495Y-61751657D01*
X161798495Y-61751657D02*
X161722304Y-61789752D01*
X161722304Y-61789752D02*
X161684209Y-61827847D01*
X161684209Y-61827847D02*
X161646114Y-61904038D01*
X161646114Y-61904038D02*
X161646114Y-62094514D01*
X161646114Y-62094514D02*
X161684209Y-62170704D01*
X161684209Y-62170704D02*
X161722304Y-62208800D01*
X161722304Y-62208800D02*
X161798495Y-62246895D01*
X161798495Y-62246895D02*
X162027066Y-62246895D01*
X162027066Y-62246895D02*
X162103257Y-62208800D01*
X162103257Y-62208800D02*
X162141352Y-62170704D01*
X161417542Y-61446895D02*
X161150875Y-62246895D01*
X161150875Y-62246895D02*
X160884209Y-61446895D01*
X160693733Y-61446895D02*
X160198495Y-61446895D01*
X160198495Y-61446895D02*
X160465161Y-61751657D01*
X160465161Y-61751657D02*
X160350876Y-61751657D01*
X160350876Y-61751657D02*
X160274685Y-61789752D01*
X160274685Y-61789752D02*
X160236590Y-61827847D01*
X160236590Y-61827847D02*
X160198495Y-61904038D01*
X160198495Y-61904038D02*
X160198495Y-62094514D01*
X160198495Y-62094514D02*
X160236590Y-62170704D01*
X160236590Y-62170704D02*
X160274685Y-62208800D01*
X160274685Y-62208800D02*
X160350876Y-62246895D01*
X160350876Y-62246895D02*
X160579447Y-62246895D01*
X160579447Y-62246895D02*
X160655638Y-62208800D01*
X160655638Y-62208800D02*
X160693733Y-62170704D01*
X159741352Y-61446895D02*
X159741352Y-61637371D01*
X159931828Y-61561180D02*
X159741352Y-61637371D01*
X159741352Y-61637371D02*
X159550875Y-61561180D01*
X159855637Y-61789752D02*
X159741352Y-61637371D01*
X159741352Y-61637371D02*
X159627066Y-61789752D01*
X171503734Y-69786895D02*
X171503734Y-70434514D01*
X171503734Y-70434514D02*
X171465639Y-70510704D01*
X171465639Y-70510704D02*
X171427544Y-70548800D01*
X171427544Y-70548800D02*
X171351353Y-70586895D01*
X171351353Y-70586895D02*
X171198972Y-70586895D01*
X171198972Y-70586895D02*
X171122782Y-70548800D01*
X171122782Y-70548800D02*
X171084687Y-70510704D01*
X171084687Y-70510704D02*
X171046591Y-70434514D01*
X171046591Y-70434514D02*
X171046591Y-69786895D01*
X170703735Y-70358323D02*
X170322782Y-70358323D01*
X170779925Y-70586895D02*
X170513258Y-69786895D01*
X170513258Y-69786895D02*
X170246592Y-70586895D01*
X169522782Y-70586895D02*
X169789449Y-70205942D01*
X169979925Y-70586895D02*
X169979925Y-69786895D01*
X169979925Y-69786895D02*
X169675163Y-69786895D01*
X169675163Y-69786895D02*
X169598973Y-69824990D01*
X169598973Y-69824990D02*
X169560878Y-69863085D01*
X169560878Y-69863085D02*
X169522782Y-69939276D01*
X169522782Y-69939276D02*
X169522782Y-70053561D01*
X169522782Y-70053561D02*
X169560878Y-70129752D01*
X169560878Y-70129752D02*
X169598973Y-70167847D01*
X169598973Y-70167847D02*
X169675163Y-70205942D01*
X169675163Y-70205942D02*
X169979925Y-70205942D01*
X169294211Y-69786895D02*
X168837068Y-69786895D01*
X169065640Y-70586895D02*
X169065640Y-69786895D01*
X174643734Y-81836895D02*
X174643734Y-81036895D01*
X174643734Y-81036895D02*
X174338972Y-81036895D01*
X174338972Y-81036895D02*
X174262782Y-81074990D01*
X174262782Y-81074990D02*
X174224687Y-81113085D01*
X174224687Y-81113085D02*
X174186591Y-81189276D01*
X174186591Y-81189276D02*
X174186591Y-81303561D01*
X174186591Y-81303561D02*
X174224687Y-81379752D01*
X174224687Y-81379752D02*
X174262782Y-81417847D01*
X174262782Y-81417847D02*
X174338972Y-81455942D01*
X174338972Y-81455942D02*
X174643734Y-81455942D01*
X173843734Y-81836895D02*
X173843734Y-81036895D01*
X173843734Y-81036895D02*
X173653258Y-81036895D01*
X173653258Y-81036895D02*
X173538972Y-81074990D01*
X173538972Y-81074990D02*
X173462782Y-81151180D01*
X173462782Y-81151180D02*
X173424687Y-81227371D01*
X173424687Y-81227371D02*
X173386591Y-81379752D01*
X173386591Y-81379752D02*
X173386591Y-81494038D01*
X173386591Y-81494038D02*
X173424687Y-81646419D01*
X173424687Y-81646419D02*
X173462782Y-81722609D01*
X173462782Y-81722609D02*
X173538972Y-81798800D01*
X173538972Y-81798800D02*
X173653258Y-81836895D01*
X173653258Y-81836895D02*
X173843734Y-81836895D01*
X172700877Y-81303561D02*
X172700877Y-81836895D01*
X172891353Y-80998800D02*
X173081830Y-81570228D01*
X173081830Y-81570228D02*
X172586591Y-81570228D01*
X174819925Y-61511895D02*
X174324687Y-61511895D01*
X174324687Y-61511895D02*
X174591353Y-61816657D01*
X174591353Y-61816657D02*
X174477068Y-61816657D01*
X174477068Y-61816657D02*
X174400877Y-61854752D01*
X174400877Y-61854752D02*
X174362782Y-61892847D01*
X174362782Y-61892847D02*
X174324687Y-61969038D01*
X174324687Y-61969038D02*
X174324687Y-62159514D01*
X174324687Y-62159514D02*
X174362782Y-62235704D01*
X174362782Y-62235704D02*
X174400877Y-62273800D01*
X174400877Y-62273800D02*
X174477068Y-62311895D01*
X174477068Y-62311895D02*
X174705639Y-62311895D01*
X174705639Y-62311895D02*
X174781830Y-62273800D01*
X174781830Y-62273800D02*
X174819925Y-62235704D01*
X174096115Y-61511895D02*
X173829448Y-62311895D01*
X173829448Y-62311895D02*
X173562782Y-61511895D01*
X173372306Y-61511895D02*
X172877068Y-61511895D01*
X172877068Y-61511895D02*
X173143734Y-61816657D01*
X173143734Y-61816657D02*
X173029449Y-61816657D01*
X173029449Y-61816657D02*
X172953258Y-61854752D01*
X172953258Y-61854752D02*
X172915163Y-61892847D01*
X172915163Y-61892847D02*
X172877068Y-61969038D01*
X172877068Y-61969038D02*
X172877068Y-62159514D01*
X172877068Y-62159514D02*
X172915163Y-62235704D01*
X172915163Y-62235704D02*
X172953258Y-62273800D01*
X172953258Y-62273800D02*
X173029449Y-62311895D01*
X173029449Y-62311895D02*
X173258020Y-62311895D01*
X173258020Y-62311895D02*
X173334211Y-62273800D01*
X173334211Y-62273800D02*
X173372306Y-62235704D01*
X172419925Y-61511895D02*
X172419925Y-61702371D01*
X172610401Y-61626180D02*
X172419925Y-61702371D01*
X172419925Y-61702371D02*
X172229448Y-61626180D01*
X172534210Y-61854752D02*
X172419925Y-61702371D01*
X172419925Y-61702371D02*
X172305639Y-61854752D01*
X185074687Y-61559990D02*
X185150877Y-61521895D01*
X185150877Y-61521895D02*
X185265163Y-61521895D01*
X185265163Y-61521895D02*
X185379449Y-61559990D01*
X185379449Y-61559990D02*
X185455639Y-61636180D01*
X185455639Y-61636180D02*
X185493734Y-61712371D01*
X185493734Y-61712371D02*
X185531830Y-61864752D01*
X185531830Y-61864752D02*
X185531830Y-61979038D01*
X185531830Y-61979038D02*
X185493734Y-62131419D01*
X185493734Y-62131419D02*
X185455639Y-62207609D01*
X185455639Y-62207609D02*
X185379449Y-62283800D01*
X185379449Y-62283800D02*
X185265163Y-62321895D01*
X185265163Y-62321895D02*
X185188972Y-62321895D01*
X185188972Y-62321895D02*
X185074687Y-62283800D01*
X185074687Y-62283800D02*
X185036591Y-62245704D01*
X185036591Y-62245704D02*
X185036591Y-61979038D01*
X185036591Y-61979038D02*
X185188972Y-61979038D01*
X184693734Y-62321895D02*
X184693734Y-61521895D01*
X184693734Y-61521895D02*
X184236591Y-62321895D01*
X184236591Y-62321895D02*
X184236591Y-61521895D01*
X183855639Y-62321895D02*
X183855639Y-61521895D01*
X183855639Y-61521895D02*
X183665163Y-61521895D01*
X183665163Y-61521895D02*
X183550877Y-61559990D01*
X183550877Y-61559990D02*
X183474687Y-61636180D01*
X183474687Y-61636180D02*
X183436592Y-61712371D01*
X183436592Y-61712371D02*
X183398496Y-61864752D01*
X183398496Y-61864752D02*
X183398496Y-61979038D01*
X183398496Y-61979038D02*
X183436592Y-62131419D01*
X183436592Y-62131419D02*
X183474687Y-62207609D01*
X183474687Y-62207609D02*
X183550877Y-62283800D01*
X183550877Y-62283800D02*
X183665163Y-62321895D01*
X183665163Y-62321895D02*
X183855639Y-62321895D01*
X182484211Y-62283800D02*
X182369925Y-62321895D01*
X182369925Y-62321895D02*
X182179449Y-62321895D01*
X182179449Y-62321895D02*
X182103258Y-62283800D01*
X182103258Y-62283800D02*
X182065163Y-62245704D01*
X182065163Y-62245704D02*
X182027068Y-62169514D01*
X182027068Y-62169514D02*
X182027068Y-62093323D01*
X182027068Y-62093323D02*
X182065163Y-62017133D01*
X182065163Y-62017133D02*
X182103258Y-61979038D01*
X182103258Y-61979038D02*
X182179449Y-61940942D01*
X182179449Y-61940942D02*
X182331830Y-61902847D01*
X182331830Y-61902847D02*
X182408020Y-61864752D01*
X182408020Y-61864752D02*
X182446115Y-61826657D01*
X182446115Y-61826657D02*
X182484211Y-61750466D01*
X182484211Y-61750466D02*
X182484211Y-61674276D01*
X182484211Y-61674276D02*
X182446115Y-61598085D01*
X182446115Y-61598085D02*
X182408020Y-61559990D01*
X182408020Y-61559990D02*
X182331830Y-61521895D01*
X182331830Y-61521895D02*
X182141353Y-61521895D01*
X182141353Y-61521895D02*
X182027068Y-61559990D01*
X181760401Y-61521895D02*
X181569925Y-62321895D01*
X181569925Y-62321895D02*
X181417544Y-61750466D01*
X181417544Y-61750466D02*
X181265163Y-62321895D01*
X181265163Y-62321895D02*
X181074687Y-61521895D01*
X180769924Y-62321895D02*
X180769924Y-61521895D01*
X180236591Y-61521895D02*
X180084210Y-61521895D01*
X180084210Y-61521895D02*
X180008020Y-61559990D01*
X180008020Y-61559990D02*
X179931829Y-61636180D01*
X179931829Y-61636180D02*
X179893734Y-61788561D01*
X179893734Y-61788561D02*
X179893734Y-62055228D01*
X179893734Y-62055228D02*
X179931829Y-62207609D01*
X179931829Y-62207609D02*
X180008020Y-62283800D01*
X180008020Y-62283800D02*
X180084210Y-62321895D01*
X180084210Y-62321895D02*
X180236591Y-62321895D01*
X180236591Y-62321895D02*
X180312782Y-62283800D01*
X180312782Y-62283800D02*
X180388972Y-62207609D01*
X180388972Y-62207609D02*
X180427068Y-62055228D01*
X180427068Y-62055228D02*
X180427068Y-61788561D01*
X180427068Y-61788561D02*
X180388972Y-61636180D01*
X180388972Y-61636180D02*
X180312782Y-61559990D01*
X180312782Y-61559990D02*
X180236591Y-61521895D01*
X179017544Y-61521895D02*
X178522306Y-61521895D01*
X178522306Y-61521895D02*
X178788972Y-61826657D01*
X178788972Y-61826657D02*
X178674687Y-61826657D01*
X178674687Y-61826657D02*
X178598496Y-61864752D01*
X178598496Y-61864752D02*
X178560401Y-61902847D01*
X178560401Y-61902847D02*
X178522306Y-61979038D01*
X178522306Y-61979038D02*
X178522306Y-62169514D01*
X178522306Y-62169514D02*
X178560401Y-62245704D01*
X178560401Y-62245704D02*
X178598496Y-62283800D01*
X178598496Y-62283800D02*
X178674687Y-62321895D01*
X178674687Y-62321895D02*
X178903258Y-62321895D01*
X178903258Y-62321895D02*
X178979449Y-62283800D01*
X178979449Y-62283800D02*
X179017544Y-62245704D01*
X178293734Y-61521895D02*
X178027067Y-62321895D01*
X178027067Y-62321895D02*
X177760401Y-61521895D01*
X177569925Y-61521895D02*
X177074687Y-61521895D01*
X177074687Y-61521895D02*
X177341353Y-61826657D01*
X177341353Y-61826657D02*
X177227068Y-61826657D01*
X177227068Y-61826657D02*
X177150877Y-61864752D01*
X177150877Y-61864752D02*
X177112782Y-61902847D01*
X177112782Y-61902847D02*
X177074687Y-61979038D01*
X177074687Y-61979038D02*
X177074687Y-62169514D01*
X177074687Y-62169514D02*
X177112782Y-62245704D01*
X177112782Y-62245704D02*
X177150877Y-62283800D01*
X177150877Y-62283800D02*
X177227068Y-62321895D01*
X177227068Y-62321895D02*
X177455639Y-62321895D01*
X177455639Y-62321895D02*
X177531830Y-62283800D01*
X177531830Y-62283800D02*
X177569925Y-62245704D01*
X176617544Y-61521895D02*
X176617544Y-61712371D01*
X176808020Y-61636180D02*
X176617544Y-61712371D01*
X176617544Y-61712371D02*
X176427067Y-61636180D01*
X176731829Y-61864752D02*
X176617544Y-61712371D01*
X176617544Y-61712371D02*
X176503258Y-61864752D01*
X186483734Y-70636895D02*
X186483734Y-69836895D01*
X186483734Y-69836895D02*
X186178972Y-69836895D01*
X186178972Y-69836895D02*
X186102782Y-69874990D01*
X186102782Y-69874990D02*
X186064687Y-69913085D01*
X186064687Y-69913085D02*
X186026591Y-69989276D01*
X186026591Y-69989276D02*
X186026591Y-70103561D01*
X186026591Y-70103561D02*
X186064687Y-70179752D01*
X186064687Y-70179752D02*
X186102782Y-70217847D01*
X186102782Y-70217847D02*
X186178972Y-70255942D01*
X186178972Y-70255942D02*
X186483734Y-70255942D01*
X185226591Y-70636895D02*
X185493258Y-70255942D01*
X185683734Y-70636895D02*
X185683734Y-69836895D01*
X185683734Y-69836895D02*
X185378972Y-69836895D01*
X185378972Y-69836895D02*
X185302782Y-69874990D01*
X185302782Y-69874990D02*
X185264687Y-69913085D01*
X185264687Y-69913085D02*
X185226591Y-69989276D01*
X185226591Y-69989276D02*
X185226591Y-70103561D01*
X185226591Y-70103561D02*
X185264687Y-70179752D01*
X185264687Y-70179752D02*
X185302782Y-70217847D01*
X185302782Y-70217847D02*
X185378972Y-70255942D01*
X185378972Y-70255942D02*
X185683734Y-70255942D01*
X184731353Y-69836895D02*
X184578972Y-69836895D01*
X184578972Y-69836895D02*
X184502782Y-69874990D01*
X184502782Y-69874990D02*
X184426591Y-69951180D01*
X184426591Y-69951180D02*
X184388496Y-70103561D01*
X184388496Y-70103561D02*
X184388496Y-70370228D01*
X184388496Y-70370228D02*
X184426591Y-70522609D01*
X184426591Y-70522609D02*
X184502782Y-70598800D01*
X184502782Y-70598800D02*
X184578972Y-70636895D01*
X184578972Y-70636895D02*
X184731353Y-70636895D01*
X184731353Y-70636895D02*
X184807544Y-70598800D01*
X184807544Y-70598800D02*
X184883734Y-70522609D01*
X184883734Y-70522609D02*
X184921830Y-70370228D01*
X184921830Y-70370228D02*
X184921830Y-70103561D01*
X184921830Y-70103561D02*
X184883734Y-69951180D01*
X184883734Y-69951180D02*
X184807544Y-69874990D01*
X184807544Y-69874990D02*
X184731353Y-69836895D01*
X183626592Y-69874990D02*
X183702782Y-69836895D01*
X183702782Y-69836895D02*
X183817068Y-69836895D01*
X183817068Y-69836895D02*
X183931354Y-69874990D01*
X183931354Y-69874990D02*
X184007544Y-69951180D01*
X184007544Y-69951180D02*
X184045639Y-70027371D01*
X184045639Y-70027371D02*
X184083735Y-70179752D01*
X184083735Y-70179752D02*
X184083735Y-70294038D01*
X184083735Y-70294038D02*
X184045639Y-70446419D01*
X184045639Y-70446419D02*
X184007544Y-70522609D01*
X184007544Y-70522609D02*
X183931354Y-70598800D01*
X183931354Y-70598800D02*
X183817068Y-70636895D01*
X183817068Y-70636895D02*
X183740877Y-70636895D01*
X183740877Y-70636895D02*
X183626592Y-70598800D01*
X183626592Y-70598800D02*
X183588496Y-70560704D01*
X183588496Y-70560704D02*
X183588496Y-70294038D01*
X183588496Y-70294038D02*
X183740877Y-70294038D01*
X193391353Y-61546895D02*
X193238972Y-61546895D01*
X193238972Y-61546895D02*
X193162782Y-61584990D01*
X193162782Y-61584990D02*
X193086591Y-61661180D01*
X193086591Y-61661180D02*
X193048496Y-61813561D01*
X193048496Y-61813561D02*
X193048496Y-62080228D01*
X193048496Y-62080228D02*
X193086591Y-62232609D01*
X193086591Y-62232609D02*
X193162782Y-62308800D01*
X193162782Y-62308800D02*
X193238972Y-62346895D01*
X193238972Y-62346895D02*
X193391353Y-62346895D01*
X193391353Y-62346895D02*
X193467544Y-62308800D01*
X193467544Y-62308800D02*
X193543734Y-62232609D01*
X193543734Y-62232609D02*
X193581830Y-62080228D01*
X193581830Y-62080228D02*
X193581830Y-61813561D01*
X193581830Y-61813561D02*
X193543734Y-61661180D01*
X193543734Y-61661180D02*
X193467544Y-61584990D01*
X193467544Y-61584990D02*
X193391353Y-61546895D01*
X192705639Y-62346895D02*
X192705639Y-61546895D01*
X192705639Y-61546895D02*
X192248496Y-62346895D01*
X192248496Y-62346895D02*
X192248496Y-61546895D01*
X191296116Y-61508800D02*
X191981830Y-62537371D01*
X190877068Y-61546895D02*
X190724687Y-61546895D01*
X190724687Y-61546895D02*
X190648497Y-61584990D01*
X190648497Y-61584990D02*
X190572306Y-61661180D01*
X190572306Y-61661180D02*
X190534211Y-61813561D01*
X190534211Y-61813561D02*
X190534211Y-62080228D01*
X190534211Y-62080228D02*
X190572306Y-62232609D01*
X190572306Y-62232609D02*
X190648497Y-62308800D01*
X190648497Y-62308800D02*
X190724687Y-62346895D01*
X190724687Y-62346895D02*
X190877068Y-62346895D01*
X190877068Y-62346895D02*
X190953259Y-62308800D01*
X190953259Y-62308800D02*
X191029449Y-62232609D01*
X191029449Y-62232609D02*
X191067545Y-62080228D01*
X191067545Y-62080228D02*
X191067545Y-61813561D01*
X191067545Y-61813561D02*
X191029449Y-61661180D01*
X191029449Y-61661180D02*
X190953259Y-61584990D01*
X190953259Y-61584990D02*
X190877068Y-61546895D01*
X189924688Y-61927847D02*
X190191354Y-61927847D01*
X190191354Y-62346895D02*
X190191354Y-61546895D01*
X190191354Y-61546895D02*
X189810402Y-61546895D01*
X189238974Y-61927847D02*
X189505640Y-61927847D01*
X189505640Y-62346895D02*
X189505640Y-61546895D01*
X189505640Y-61546895D02*
X189124688Y-61546895D01*
X209474687Y-61434990D02*
X209550877Y-61396895D01*
X209550877Y-61396895D02*
X209665163Y-61396895D01*
X209665163Y-61396895D02*
X209779449Y-61434990D01*
X209779449Y-61434990D02*
X209855639Y-61511180D01*
X209855639Y-61511180D02*
X209893734Y-61587371D01*
X209893734Y-61587371D02*
X209931830Y-61739752D01*
X209931830Y-61739752D02*
X209931830Y-61854038D01*
X209931830Y-61854038D02*
X209893734Y-62006419D01*
X209893734Y-62006419D02*
X209855639Y-62082609D01*
X209855639Y-62082609D02*
X209779449Y-62158800D01*
X209779449Y-62158800D02*
X209665163Y-62196895D01*
X209665163Y-62196895D02*
X209588972Y-62196895D01*
X209588972Y-62196895D02*
X209474687Y-62158800D01*
X209474687Y-62158800D02*
X209436591Y-62120704D01*
X209436591Y-62120704D02*
X209436591Y-61854038D01*
X209436591Y-61854038D02*
X209588972Y-61854038D01*
X209093734Y-62196895D02*
X209093734Y-61396895D01*
X209093734Y-61396895D02*
X208636591Y-62196895D01*
X208636591Y-62196895D02*
X208636591Y-61396895D01*
X208255639Y-62196895D02*
X208255639Y-61396895D01*
X208255639Y-61396895D02*
X208065163Y-61396895D01*
X208065163Y-61396895D02*
X207950877Y-61434990D01*
X207950877Y-61434990D02*
X207874687Y-61511180D01*
X207874687Y-61511180D02*
X207836592Y-61587371D01*
X207836592Y-61587371D02*
X207798496Y-61739752D01*
X207798496Y-61739752D02*
X207798496Y-61854038D01*
X207798496Y-61854038D02*
X207836592Y-62006419D01*
X207836592Y-62006419D02*
X207874687Y-62082609D01*
X207874687Y-62082609D02*
X207950877Y-62158800D01*
X207950877Y-62158800D02*
X208065163Y-62196895D01*
X208065163Y-62196895D02*
X208255639Y-62196895D01*
X206846115Y-61892133D02*
X206236592Y-61892133D01*
X206541353Y-62196895D02*
X206541353Y-61587371D01*
X205436592Y-62196895D02*
X205893735Y-62196895D01*
X205665163Y-62196895D02*
X205665163Y-61396895D01*
X205665163Y-61396895D02*
X205741354Y-61511180D01*
X205741354Y-61511180D02*
X205817544Y-61587371D01*
X205817544Y-61587371D02*
X205893735Y-61625466D01*
X205131830Y-61473085D02*
X205093734Y-61434990D01*
X205093734Y-61434990D02*
X205017544Y-61396895D01*
X205017544Y-61396895D02*
X204827068Y-61396895D01*
X204827068Y-61396895D02*
X204750877Y-61434990D01*
X204750877Y-61434990D02*
X204712782Y-61473085D01*
X204712782Y-61473085D02*
X204674687Y-61549276D01*
X204674687Y-61549276D02*
X204674687Y-61625466D01*
X204674687Y-61625466D02*
X204712782Y-61739752D01*
X204712782Y-61739752D02*
X205169925Y-62196895D01*
X205169925Y-62196895D02*
X204674687Y-62196895D01*
X204369925Y-62158800D02*
X204255639Y-62196895D01*
X204255639Y-62196895D02*
X204065163Y-62196895D01*
X204065163Y-62196895D02*
X203988972Y-62158800D01*
X203988972Y-62158800D02*
X203950877Y-62120704D01*
X203950877Y-62120704D02*
X203912782Y-62044514D01*
X203912782Y-62044514D02*
X203912782Y-61968323D01*
X203912782Y-61968323D02*
X203950877Y-61892133D01*
X203950877Y-61892133D02*
X203988972Y-61854038D01*
X203988972Y-61854038D02*
X204065163Y-61815942D01*
X204065163Y-61815942D02*
X204217544Y-61777847D01*
X204217544Y-61777847D02*
X204293734Y-61739752D01*
X204293734Y-61739752D02*
X204331829Y-61701657D01*
X204331829Y-61701657D02*
X204369925Y-61625466D01*
X204369925Y-61625466D02*
X204369925Y-61549276D01*
X204369925Y-61549276D02*
X204331829Y-61473085D01*
X204331829Y-61473085D02*
X204293734Y-61434990D01*
X204293734Y-61434990D02*
X204217544Y-61396895D01*
X204217544Y-61396895D02*
X204027067Y-61396895D01*
X204027067Y-61396895D02*
X203912782Y-61434990D01*
X203646115Y-61396895D02*
X203455639Y-62196895D01*
X203455639Y-62196895D02*
X203303258Y-61625466D01*
X203303258Y-61625466D02*
X203150877Y-62196895D01*
X203150877Y-62196895D02*
X202960401Y-61396895D01*
X210423734Y-70237847D02*
X210157068Y-70237847D01*
X210042782Y-70656895D02*
X210423734Y-70656895D01*
X210423734Y-70656895D02*
X210423734Y-69856895D01*
X210423734Y-69856895D02*
X210042782Y-69856895D01*
X209776115Y-69856895D02*
X209242781Y-70656895D01*
X209242781Y-69856895D02*
X209776115Y-70656895D01*
X209052305Y-69856895D02*
X208595162Y-69856895D01*
X208823734Y-70656895D02*
X208823734Y-69856895D01*
X207338019Y-70656895D02*
X207718971Y-70656895D01*
X207718971Y-70656895D02*
X207718971Y-69856895D01*
X207071352Y-70237847D02*
X206804686Y-70237847D01*
X206690400Y-70656895D02*
X207071352Y-70656895D01*
X207071352Y-70656895D02*
X207071352Y-69856895D01*
X207071352Y-69856895D02*
X206690400Y-69856895D01*
X206347542Y-70656895D02*
X206347542Y-69856895D01*
X206347542Y-69856895D02*
X206157066Y-69856895D01*
X206157066Y-69856895D02*
X206042780Y-69894990D01*
X206042780Y-69894990D02*
X205966590Y-69971180D01*
X205966590Y-69971180D02*
X205928495Y-70047371D01*
X205928495Y-70047371D02*
X205890399Y-70199752D01*
X205890399Y-70199752D02*
X205890399Y-70314038D01*
X205890399Y-70314038D02*
X205928495Y-70466419D01*
X205928495Y-70466419D02*
X205966590Y-70542609D01*
X205966590Y-70542609D02*
X206042780Y-70618800D01*
X206042780Y-70618800D02*
X206157066Y-70656895D01*
X206157066Y-70656895D02*
X206347542Y-70656895D01*
X211834990Y-77125312D02*
X211796895Y-77049122D01*
X211796895Y-77049122D02*
X211796895Y-76934836D01*
X211796895Y-76934836D02*
X211834990Y-76820550D01*
X211834990Y-76820550D02*
X211911180Y-76744360D01*
X211911180Y-76744360D02*
X211987371Y-76706265D01*
X211987371Y-76706265D02*
X212139752Y-76668169D01*
X212139752Y-76668169D02*
X212254038Y-76668169D01*
X212254038Y-76668169D02*
X212406419Y-76706265D01*
X212406419Y-76706265D02*
X212482609Y-76744360D01*
X212482609Y-76744360D02*
X212558800Y-76820550D01*
X212558800Y-76820550D02*
X212596895Y-76934836D01*
X212596895Y-76934836D02*
X212596895Y-77011027D01*
X212596895Y-77011027D02*
X212558800Y-77125312D01*
X212558800Y-77125312D02*
X212520704Y-77163408D01*
X212520704Y-77163408D02*
X212254038Y-77163408D01*
X212254038Y-77163408D02*
X212254038Y-77011027D01*
X212596895Y-77506265D02*
X211796895Y-77506265D01*
X211796895Y-77506265D02*
X212596895Y-77963408D01*
X212596895Y-77963408D02*
X211796895Y-77963408D01*
X212596895Y-78344360D02*
X211796895Y-78344360D01*
X211796895Y-78344360D02*
X211796895Y-78534836D01*
X211796895Y-78534836D02*
X211834990Y-78649122D01*
X211834990Y-78649122D02*
X211911180Y-78725312D01*
X211911180Y-78725312D02*
X211987371Y-78763407D01*
X211987371Y-78763407D02*
X212139752Y-78801503D01*
X212139752Y-78801503D02*
X212254038Y-78801503D01*
X212254038Y-78801503D02*
X212406419Y-78763407D01*
X212406419Y-78763407D02*
X212482609Y-78725312D01*
X212482609Y-78725312D02*
X212558800Y-78649122D01*
X212558800Y-78649122D02*
X212596895Y-78534836D01*
X212596895Y-78534836D02*
X212596895Y-78344360D01*
X211796895Y-79677693D02*
X211796895Y-80172931D01*
X211796895Y-80172931D02*
X212101657Y-79906265D01*
X212101657Y-79906265D02*
X212101657Y-80020550D01*
X212101657Y-80020550D02*
X212139752Y-80096741D01*
X212139752Y-80096741D02*
X212177847Y-80134836D01*
X212177847Y-80134836D02*
X212254038Y-80172931D01*
X212254038Y-80172931D02*
X212444514Y-80172931D01*
X212444514Y-80172931D02*
X212520704Y-80134836D01*
X212520704Y-80134836D02*
X212558800Y-80096741D01*
X212558800Y-80096741D02*
X212596895Y-80020550D01*
X212596895Y-80020550D02*
X212596895Y-79791979D01*
X212596895Y-79791979D02*
X212558800Y-79715788D01*
X212558800Y-79715788D02*
X212520704Y-79677693D01*
X211796895Y-80401503D02*
X212596895Y-80668170D01*
X212596895Y-80668170D02*
X211796895Y-80934836D01*
X211796895Y-81125312D02*
X211796895Y-81620550D01*
X211796895Y-81620550D02*
X212101657Y-81353884D01*
X212101657Y-81353884D02*
X212101657Y-81468169D01*
X212101657Y-81468169D02*
X212139752Y-81544360D01*
X212139752Y-81544360D02*
X212177847Y-81582455D01*
X212177847Y-81582455D02*
X212254038Y-81620550D01*
X212254038Y-81620550D02*
X212444514Y-81620550D01*
X212444514Y-81620550D02*
X212520704Y-81582455D01*
X212520704Y-81582455D02*
X212558800Y-81544360D01*
X212558800Y-81544360D02*
X212596895Y-81468169D01*
X212596895Y-81468169D02*
X212596895Y-81239598D01*
X212596895Y-81239598D02*
X212558800Y-81163407D01*
X212558800Y-81163407D02*
X212520704Y-81125312D01*
X212901657Y-82801503D02*
X212863561Y-82763408D01*
X212863561Y-82763408D02*
X212749276Y-82687217D01*
X212749276Y-82687217D02*
X212673085Y-82649122D01*
X212673085Y-82649122D02*
X212558800Y-82611027D01*
X212558800Y-82611027D02*
X212368323Y-82572932D01*
X212368323Y-82572932D02*
X212215942Y-82572932D01*
X212215942Y-82572932D02*
X212025466Y-82611027D01*
X212025466Y-82611027D02*
X211911180Y-82649122D01*
X211911180Y-82649122D02*
X211834990Y-82687217D01*
X211834990Y-82687217D02*
X211720704Y-82763408D01*
X211720704Y-82763408D02*
X211682609Y-82801503D01*
X212063561Y-83449122D02*
X212596895Y-83449122D01*
X211758800Y-83258646D02*
X212330228Y-83068169D01*
X212330228Y-83068169D02*
X212330228Y-83563408D01*
X211796895Y-84249122D02*
X211796895Y-83868170D01*
X211796895Y-83868170D02*
X212177847Y-83830074D01*
X212177847Y-83830074D02*
X212139752Y-83868170D01*
X212139752Y-83868170D02*
X212101657Y-83944360D01*
X212101657Y-83944360D02*
X212101657Y-84134836D01*
X212101657Y-84134836D02*
X212139752Y-84211027D01*
X212139752Y-84211027D02*
X212177847Y-84249122D01*
X212177847Y-84249122D02*
X212254038Y-84287217D01*
X212254038Y-84287217D02*
X212444514Y-84287217D01*
X212444514Y-84287217D02*
X212520704Y-84249122D01*
X212520704Y-84249122D02*
X212558800Y-84211027D01*
X212558800Y-84211027D02*
X212596895Y-84134836D01*
X212596895Y-84134836D02*
X212596895Y-83944360D01*
X212596895Y-83944360D02*
X212558800Y-83868170D01*
X212558800Y-83868170D02*
X212520704Y-83830074D01*
X212596895Y-84630075D02*
X212063561Y-84630075D01*
X212139752Y-84630075D02*
X212101657Y-84668170D01*
X212101657Y-84668170D02*
X212063561Y-84744360D01*
X212063561Y-84744360D02*
X212063561Y-84858646D01*
X212063561Y-84858646D02*
X212101657Y-84934837D01*
X212101657Y-84934837D02*
X212177847Y-84972932D01*
X212177847Y-84972932D02*
X212596895Y-84972932D01*
X212177847Y-84972932D02*
X212101657Y-85011027D01*
X212101657Y-85011027D02*
X212063561Y-85087218D01*
X212063561Y-85087218D02*
X212063561Y-85201503D01*
X212063561Y-85201503D02*
X212101657Y-85277694D01*
X212101657Y-85277694D02*
X212177847Y-85315789D01*
X212177847Y-85315789D02*
X212596895Y-85315789D01*
X212368323Y-85658646D02*
X212368323Y-86039599D01*
X212596895Y-85582456D02*
X211796895Y-85849123D01*
X211796895Y-85849123D02*
X212596895Y-86115789D01*
X212063561Y-86877694D02*
X212063561Y-87182456D01*
X211796895Y-86991980D02*
X212482609Y-86991980D01*
X212482609Y-86991980D02*
X212558800Y-87030075D01*
X212558800Y-87030075D02*
X212596895Y-87106265D01*
X212596895Y-87106265D02*
X212596895Y-87182456D01*
X212596895Y-87563408D02*
X212558800Y-87487218D01*
X212558800Y-87487218D02*
X212520704Y-87449123D01*
X212520704Y-87449123D02*
X212444514Y-87411027D01*
X212444514Y-87411027D02*
X212215942Y-87411027D01*
X212215942Y-87411027D02*
X212139752Y-87449123D01*
X212139752Y-87449123D02*
X212101657Y-87487218D01*
X212101657Y-87487218D02*
X212063561Y-87563408D01*
X212063561Y-87563408D02*
X212063561Y-87677694D01*
X212063561Y-87677694D02*
X212101657Y-87753885D01*
X212101657Y-87753885D02*
X212139752Y-87791980D01*
X212139752Y-87791980D02*
X212215942Y-87830075D01*
X212215942Y-87830075D02*
X212444514Y-87830075D01*
X212444514Y-87830075D02*
X212520704Y-87791980D01*
X212520704Y-87791980D02*
X212558800Y-87753885D01*
X212558800Y-87753885D02*
X212596895Y-87677694D01*
X212596895Y-87677694D02*
X212596895Y-87563408D01*
X212063561Y-88058647D02*
X212063561Y-88363409D01*
X211796895Y-88172933D02*
X212482609Y-88172933D01*
X212482609Y-88172933D02*
X212558800Y-88211028D01*
X212558800Y-88211028D02*
X212596895Y-88287218D01*
X212596895Y-88287218D02*
X212596895Y-88363409D01*
X212596895Y-88972933D02*
X212177847Y-88972933D01*
X212177847Y-88972933D02*
X212101657Y-88934838D01*
X212101657Y-88934838D02*
X212063561Y-88858647D01*
X212063561Y-88858647D02*
X212063561Y-88706266D01*
X212063561Y-88706266D02*
X212101657Y-88630076D01*
X212558800Y-88972933D02*
X212596895Y-88896742D01*
X212596895Y-88896742D02*
X212596895Y-88706266D01*
X212596895Y-88706266D02*
X212558800Y-88630076D01*
X212558800Y-88630076D02*
X212482609Y-88591980D01*
X212482609Y-88591980D02*
X212406419Y-88591980D01*
X212406419Y-88591980D02*
X212330228Y-88630076D01*
X212330228Y-88630076D02*
X212292133Y-88706266D01*
X212292133Y-88706266D02*
X212292133Y-88896742D01*
X212292133Y-88896742D02*
X212254038Y-88972933D01*
X212596895Y-89468171D02*
X212558800Y-89391981D01*
X212558800Y-89391981D02*
X212482609Y-89353886D01*
X212482609Y-89353886D02*
X211796895Y-89353886D01*
X212901657Y-89696743D02*
X212863561Y-89734838D01*
X212863561Y-89734838D02*
X212749276Y-89811029D01*
X212749276Y-89811029D02*
X212673085Y-89849124D01*
X212673085Y-89849124D02*
X212558800Y-89887219D01*
X212558800Y-89887219D02*
X212368323Y-89925315D01*
X212368323Y-89925315D02*
X212215942Y-89925315D01*
X212215942Y-89925315D02*
X212025466Y-89887219D01*
X212025466Y-89887219D02*
X211911180Y-89849124D01*
X211911180Y-89849124D02*
X211834990Y-89811029D01*
X211834990Y-89811029D02*
X211720704Y-89734838D01*
X211720704Y-89734838D02*
X211682609Y-89696743D01*
X190346115Y-74691466D02*
X189584211Y-74691466D01*
X189965163Y-75072419D02*
X189965163Y-74310514D01*
X126499122Y-90372419D02*
X126689598Y-90372419D01*
X126689598Y-90372419D02*
X126784836Y-90420038D01*
X126784836Y-90420038D02*
X126832455Y-90467657D01*
X126832455Y-90467657D02*
X126927693Y-90610514D01*
X126927693Y-90610514D02*
X126975312Y-90800990D01*
X126975312Y-90800990D02*
X126975312Y-91181942D01*
X126975312Y-91181942D02*
X126927693Y-91277180D01*
X126927693Y-91277180D02*
X126880074Y-91324800D01*
X126880074Y-91324800D02*
X126784836Y-91372419D01*
X126784836Y-91372419D02*
X126594360Y-91372419D01*
X126594360Y-91372419D02*
X126499122Y-91324800D01*
X126499122Y-91324800D02*
X126451503Y-91277180D01*
X126451503Y-91277180D02*
X126403884Y-91181942D01*
X126403884Y-91181942D02*
X126403884Y-90943847D01*
X126403884Y-90943847D02*
X126451503Y-90848609D01*
X126451503Y-90848609D02*
X126499122Y-90800990D01*
X126499122Y-90800990D02*
X126594360Y-90753371D01*
X126594360Y-90753371D02*
X126784836Y-90753371D01*
X126784836Y-90753371D02*
X126880074Y-90800990D01*
X126880074Y-90800990D02*
X126927693Y-90848609D01*
X126927693Y-90848609D02*
X126975312Y-90943847D01*
X125546741Y-90705752D02*
X125546741Y-91372419D01*
X125784836Y-90324800D02*
X126022931Y-91039085D01*
X126022931Y-91039085D02*
X125403884Y-91039085D01*
X126051503Y-100872419D02*
X126622931Y-100872419D01*
X126337217Y-100872419D02*
X126337217Y-99872419D01*
X126337217Y-99872419D02*
X126432455Y-100015276D01*
X126432455Y-100015276D02*
X126527693Y-100110514D01*
X126527693Y-100110514D02*
X126622931Y-100158133D01*
X210092931Y-90072419D02*
X209473884Y-90072419D01*
X209473884Y-90072419D02*
X209807217Y-90453371D01*
X209807217Y-90453371D02*
X209664360Y-90453371D01*
X209664360Y-90453371D02*
X209569122Y-90500990D01*
X209569122Y-90500990D02*
X209521503Y-90548609D01*
X209521503Y-90548609D02*
X209473884Y-90643847D01*
X209473884Y-90643847D02*
X209473884Y-90881942D01*
X209473884Y-90881942D02*
X209521503Y-90977180D01*
X209521503Y-90977180D02*
X209569122Y-91024800D01*
X209569122Y-91024800D02*
X209664360Y-91072419D01*
X209664360Y-91072419D02*
X209950074Y-91072419D01*
X209950074Y-91072419D02*
X210045312Y-91024800D01*
X210045312Y-91024800D02*
X210092931Y-90977180D01*
X209140550Y-90072419D02*
X208521503Y-90072419D01*
X208521503Y-90072419D02*
X208854836Y-90453371D01*
X208854836Y-90453371D02*
X208711979Y-90453371D01*
X208711979Y-90453371D02*
X208616741Y-90500990D01*
X208616741Y-90500990D02*
X208569122Y-90548609D01*
X208569122Y-90548609D02*
X208521503Y-90643847D01*
X208521503Y-90643847D02*
X208521503Y-90881942D01*
X208521503Y-90881942D02*
X208569122Y-90977180D01*
X208569122Y-90977180D02*
X208616741Y-91024800D01*
X208616741Y-91024800D02*
X208711979Y-91072419D01*
X208711979Y-91072419D02*
X208997693Y-91072419D01*
X208997693Y-91072419D02*
X209092931Y-91024800D01*
X209092931Y-91024800D02*
X209140550Y-90977180D01*
X210222931Y-97372419D02*
X209603884Y-97372419D01*
X209603884Y-97372419D02*
X209937217Y-97753371D01*
X209937217Y-97753371D02*
X209794360Y-97753371D01*
X209794360Y-97753371D02*
X209699122Y-97800990D01*
X209699122Y-97800990D02*
X209651503Y-97848609D01*
X209651503Y-97848609D02*
X209603884Y-97943847D01*
X209603884Y-97943847D02*
X209603884Y-98181942D01*
X209603884Y-98181942D02*
X209651503Y-98277180D01*
X209651503Y-98277180D02*
X209699122Y-98324800D01*
X209699122Y-98324800D02*
X209794360Y-98372419D01*
X209794360Y-98372419D02*
X210080074Y-98372419D01*
X210080074Y-98372419D02*
X210175312Y-98324800D01*
X210175312Y-98324800D02*
X210222931Y-98277180D01*
X209222931Y-97467657D02*
X209175312Y-97420038D01*
X209175312Y-97420038D02*
X209080074Y-97372419D01*
X209080074Y-97372419D02*
X208841979Y-97372419D01*
X208841979Y-97372419D02*
X208746741Y-97420038D01*
X208746741Y-97420038D02*
X208699122Y-97467657D01*
X208699122Y-97467657D02*
X208651503Y-97562895D01*
X208651503Y-97562895D02*
X208651503Y-97658133D01*
X208651503Y-97658133D02*
X208699122Y-97800990D01*
X208699122Y-97800990D02*
X209270550Y-98372419D01*
X209270550Y-98372419D02*
X208651503Y-98372419D01*
D13*
X143855826Y-89888866D02*
X143093922Y-89888866D01*
X143474874Y-90269819D02*
X143474874Y-89507914D01*
X142093922Y-90269819D02*
X142665350Y-90269819D01*
X142379636Y-90269819D02*
X142379636Y-89269819D01*
X142379636Y-89269819D02*
X142474874Y-89412676D01*
X142474874Y-89412676D02*
X142570112Y-89507914D01*
X142570112Y-89507914D02*
X142665350Y-89555533D01*
X141712969Y-89365057D02*
X141665350Y-89317438D01*
X141665350Y-89317438D02*
X141570112Y-89269819D01*
X141570112Y-89269819D02*
X141332017Y-89269819D01*
X141332017Y-89269819D02*
X141236779Y-89317438D01*
X141236779Y-89317438D02*
X141189160Y-89365057D01*
X141189160Y-89365057D02*
X141141541Y-89460295D01*
X141141541Y-89460295D02*
X141141541Y-89555533D01*
X141141541Y-89555533D02*
X141189160Y-89698390D01*
X141189160Y-89698390D02*
X141760588Y-90269819D01*
X141760588Y-90269819D02*
X141141541Y-90269819D01*
X140855826Y-89269819D02*
X140522493Y-90269819D01*
X140522493Y-90269819D02*
X140189160Y-89269819D01*
X143855826Y-101438866D02*
X143093922Y-101438866D01*
X143474874Y-101819819D02*
X143474874Y-101057914D01*
X142093922Y-101819819D02*
X142665350Y-101819819D01*
X142379636Y-101819819D02*
X142379636Y-100819819D01*
X142379636Y-100819819D02*
X142474874Y-100962676D01*
X142474874Y-100962676D02*
X142570112Y-101057914D01*
X142570112Y-101057914D02*
X142665350Y-101105533D01*
X141712969Y-100915057D02*
X141665350Y-100867438D01*
X141665350Y-100867438D02*
X141570112Y-100819819D01*
X141570112Y-100819819D02*
X141332017Y-100819819D01*
X141332017Y-100819819D02*
X141236779Y-100867438D01*
X141236779Y-100867438D02*
X141189160Y-100915057D01*
X141189160Y-100915057D02*
X141141541Y-101010295D01*
X141141541Y-101010295D02*
X141141541Y-101105533D01*
X141141541Y-101105533D02*
X141189160Y-101248390D01*
X141189160Y-101248390D02*
X141760588Y-101819819D01*
X141760588Y-101819819D02*
X141141541Y-101819819D01*
X140855826Y-100819819D02*
X140522493Y-101819819D01*
X140522493Y-101819819D02*
X140189160Y-100819819D01*
X175479636Y-89317438D02*
X175574874Y-89269819D01*
X175574874Y-89269819D02*
X175717731Y-89269819D01*
X175717731Y-89269819D02*
X175860588Y-89317438D01*
X175860588Y-89317438D02*
X175955826Y-89412676D01*
X175955826Y-89412676D02*
X176003445Y-89507914D01*
X176003445Y-89507914D02*
X176051064Y-89698390D01*
X176051064Y-89698390D02*
X176051064Y-89841247D01*
X176051064Y-89841247D02*
X176003445Y-90031723D01*
X176003445Y-90031723D02*
X175955826Y-90126961D01*
X175955826Y-90126961D02*
X175860588Y-90222200D01*
X175860588Y-90222200D02*
X175717731Y-90269819D01*
X175717731Y-90269819D02*
X175622493Y-90269819D01*
X175622493Y-90269819D02*
X175479636Y-90222200D01*
X175479636Y-90222200D02*
X175432017Y-90174580D01*
X175432017Y-90174580D02*
X175432017Y-89841247D01*
X175432017Y-89841247D02*
X175622493Y-89841247D01*
X175003445Y-90269819D02*
X175003445Y-89269819D01*
X175003445Y-89269819D02*
X174432017Y-90269819D01*
X174432017Y-90269819D02*
X174432017Y-89269819D01*
X173955826Y-90269819D02*
X173955826Y-89269819D01*
X173955826Y-89269819D02*
X173717731Y-89269819D01*
X173717731Y-89269819D02*
X173574874Y-89317438D01*
X173574874Y-89317438D02*
X173479636Y-89412676D01*
X173479636Y-89412676D02*
X173432017Y-89507914D01*
X173432017Y-89507914D02*
X173384398Y-89698390D01*
X173384398Y-89698390D02*
X173384398Y-89841247D01*
X173384398Y-89841247D02*
X173432017Y-90031723D01*
X173432017Y-90031723D02*
X173479636Y-90126961D01*
X173479636Y-90126961D02*
X173574874Y-90222200D01*
X173574874Y-90222200D02*
X173717731Y-90269819D01*
X173717731Y-90269819D02*
X173955826Y-90269819D01*
X175479636Y-100867438D02*
X175574874Y-100819819D01*
X175574874Y-100819819D02*
X175717731Y-100819819D01*
X175717731Y-100819819D02*
X175860588Y-100867438D01*
X175860588Y-100867438D02*
X175955826Y-100962676D01*
X175955826Y-100962676D02*
X176003445Y-101057914D01*
X176003445Y-101057914D02*
X176051064Y-101248390D01*
X176051064Y-101248390D02*
X176051064Y-101391247D01*
X176051064Y-101391247D02*
X176003445Y-101581723D01*
X176003445Y-101581723D02*
X175955826Y-101676961D01*
X175955826Y-101676961D02*
X175860588Y-101772200D01*
X175860588Y-101772200D02*
X175717731Y-101819819D01*
X175717731Y-101819819D02*
X175622493Y-101819819D01*
X175622493Y-101819819D02*
X175479636Y-101772200D01*
X175479636Y-101772200D02*
X175432017Y-101724580D01*
X175432017Y-101724580D02*
X175432017Y-101391247D01*
X175432017Y-101391247D02*
X175622493Y-101391247D01*
X175003445Y-101819819D02*
X175003445Y-100819819D01*
X175003445Y-100819819D02*
X174432017Y-101819819D01*
X174432017Y-101819819D02*
X174432017Y-100819819D01*
X173955826Y-101819819D02*
X173955826Y-100819819D01*
X173955826Y-100819819D02*
X173717731Y-100819819D01*
X173717731Y-100819819D02*
X173574874Y-100867438D01*
X173574874Y-100867438D02*
X173479636Y-100962676D01*
X173479636Y-100962676D02*
X173432017Y-101057914D01*
X173432017Y-101057914D02*
X173384398Y-101248390D01*
X173384398Y-101248390D02*
X173384398Y-101391247D01*
X173384398Y-101391247D02*
X173432017Y-101581723D01*
X173432017Y-101581723D02*
X173479636Y-101676961D01*
X173479636Y-101676961D02*
X173574874Y-101772200D01*
X173574874Y-101772200D02*
X173717731Y-101819819D01*
X173717731Y-101819819D02*
X173955826Y-101819819D01*
D14*
X156134762Y-64361009D02*
X156210953Y-64437200D01*
X156210953Y-64437200D02*
X156439524Y-64513390D01*
X156439524Y-64513390D02*
X156591905Y-64513390D01*
X156591905Y-64513390D02*
X156820477Y-64437200D01*
X156820477Y-64437200D02*
X156972858Y-64284819D01*
X156972858Y-64284819D02*
X157049048Y-64132438D01*
X157049048Y-64132438D02*
X157125239Y-63827676D01*
X157125239Y-63827676D02*
X157125239Y-63599104D01*
X157125239Y-63599104D02*
X157049048Y-63294342D01*
X157049048Y-63294342D02*
X156972858Y-63141961D01*
X156972858Y-63141961D02*
X156820477Y-62989580D01*
X156820477Y-62989580D02*
X156591905Y-62913390D01*
X156591905Y-62913390D02*
X156439524Y-62913390D01*
X156439524Y-62913390D02*
X156210953Y-62989580D01*
X156210953Y-62989580D02*
X156134762Y-63065771D01*
X155525239Y-64437200D02*
X155296667Y-64513390D01*
X155296667Y-64513390D02*
X154915715Y-64513390D01*
X154915715Y-64513390D02*
X154763334Y-64437200D01*
X154763334Y-64437200D02*
X154687143Y-64361009D01*
X154687143Y-64361009D02*
X154610953Y-64208628D01*
X154610953Y-64208628D02*
X154610953Y-64056247D01*
X154610953Y-64056247D02*
X154687143Y-63903866D01*
X154687143Y-63903866D02*
X154763334Y-63827676D01*
X154763334Y-63827676D02*
X154915715Y-63751485D01*
X154915715Y-63751485D02*
X155220477Y-63675295D01*
X155220477Y-63675295D02*
X155372858Y-63599104D01*
X155372858Y-63599104D02*
X155449048Y-63522914D01*
X155449048Y-63522914D02*
X155525239Y-63370533D01*
X155525239Y-63370533D02*
X155525239Y-63218152D01*
X155525239Y-63218152D02*
X155449048Y-63065771D01*
X155449048Y-63065771D02*
X155372858Y-62989580D01*
X155372858Y-62989580D02*
X155220477Y-62913390D01*
X155220477Y-62913390D02*
X154839524Y-62913390D01*
X154839524Y-62913390D02*
X154610953Y-62989580D01*
X153925238Y-64513390D02*
X153925238Y-62913390D01*
X153925238Y-62913390D02*
X153315714Y-62913390D01*
X153315714Y-62913390D02*
X153163333Y-62989580D01*
X153163333Y-62989580D02*
X153087143Y-63065771D01*
X153087143Y-63065771D02*
X153010952Y-63218152D01*
X153010952Y-63218152D02*
X153010952Y-63446723D01*
X153010952Y-63446723D02*
X153087143Y-63599104D01*
X153087143Y-63599104D02*
X153163333Y-63675295D01*
X153163333Y-63675295D02*
X153315714Y-63751485D01*
X153315714Y-63751485D02*
X153925238Y-63751485D01*
X152401429Y-64437200D02*
X152172857Y-64513390D01*
X152172857Y-64513390D02*
X151791905Y-64513390D01*
X151791905Y-64513390D02*
X151639524Y-64437200D01*
X151639524Y-64437200D02*
X151563333Y-64361009D01*
X151563333Y-64361009D02*
X151487143Y-64208628D01*
X151487143Y-64208628D02*
X151487143Y-64056247D01*
X151487143Y-64056247D02*
X151563333Y-63903866D01*
X151563333Y-63903866D02*
X151639524Y-63827676D01*
X151639524Y-63827676D02*
X151791905Y-63751485D01*
X151791905Y-63751485D02*
X152096667Y-63675295D01*
X152096667Y-63675295D02*
X152249048Y-63599104D01*
X152249048Y-63599104D02*
X152325238Y-63522914D01*
X152325238Y-63522914D02*
X152401429Y-63370533D01*
X152401429Y-63370533D02*
X152401429Y-63218152D01*
X152401429Y-63218152D02*
X152325238Y-63065771D01*
X152325238Y-63065771D02*
X152249048Y-62989580D01*
X152249048Y-62989580D02*
X152096667Y-62913390D01*
X152096667Y-62913390D02*
X151715714Y-62913390D01*
X151715714Y-62913390D02*
X151487143Y-62989580D01*
X149582380Y-64513390D02*
X149582380Y-62913390D01*
X149582380Y-62913390D02*
X148972856Y-62913390D01*
X148972856Y-62913390D02*
X148820475Y-62989580D01*
X148820475Y-62989580D02*
X148744285Y-63065771D01*
X148744285Y-63065771D02*
X148668094Y-63218152D01*
X148668094Y-63218152D02*
X148668094Y-63446723D01*
X148668094Y-63446723D02*
X148744285Y-63599104D01*
X148744285Y-63599104D02*
X148820475Y-63675295D01*
X148820475Y-63675295D02*
X148972856Y-63751485D01*
X148972856Y-63751485D02*
X149582380Y-63751485D01*
X147753809Y-64513390D02*
X147906190Y-64437200D01*
X147906190Y-64437200D02*
X147982380Y-64361009D01*
X147982380Y-64361009D02*
X148058571Y-64208628D01*
X148058571Y-64208628D02*
X148058571Y-63751485D01*
X148058571Y-63751485D02*
X147982380Y-63599104D01*
X147982380Y-63599104D02*
X147906190Y-63522914D01*
X147906190Y-63522914D02*
X147753809Y-63446723D01*
X147753809Y-63446723D02*
X147525237Y-63446723D01*
X147525237Y-63446723D02*
X147372856Y-63522914D01*
X147372856Y-63522914D02*
X147296666Y-63599104D01*
X147296666Y-63599104D02*
X147220475Y-63751485D01*
X147220475Y-63751485D02*
X147220475Y-64208628D01*
X147220475Y-64208628D02*
X147296666Y-64361009D01*
X147296666Y-64361009D02*
X147372856Y-64437200D01*
X147372856Y-64437200D02*
X147525237Y-64513390D01*
X147525237Y-64513390D02*
X147753809Y-64513390D01*
X146687142Y-63446723D02*
X146382380Y-64513390D01*
X146382380Y-64513390D02*
X146077618Y-63751485D01*
X146077618Y-63751485D02*
X145772856Y-64513390D01*
X145772856Y-64513390D02*
X145468094Y-63446723D01*
X144249047Y-64437200D02*
X144401428Y-64513390D01*
X144401428Y-64513390D02*
X144706190Y-64513390D01*
X144706190Y-64513390D02*
X144858571Y-64437200D01*
X144858571Y-64437200D02*
X144934762Y-64284819D01*
X144934762Y-64284819D02*
X144934762Y-63675295D01*
X144934762Y-63675295D02*
X144858571Y-63522914D01*
X144858571Y-63522914D02*
X144706190Y-63446723D01*
X144706190Y-63446723D02*
X144401428Y-63446723D01*
X144401428Y-63446723D02*
X144249047Y-63522914D01*
X144249047Y-63522914D02*
X144172857Y-63675295D01*
X144172857Y-63675295D02*
X144172857Y-63827676D01*
X144172857Y-63827676D02*
X144934762Y-63980057D01*
X143487142Y-64513390D02*
X143487142Y-63446723D01*
X143487142Y-63751485D02*
X143410952Y-63599104D01*
X143410952Y-63599104D02*
X143334761Y-63522914D01*
X143334761Y-63522914D02*
X143182380Y-63446723D01*
X143182380Y-63446723D02*
X143029999Y-63446723D01*
X141353809Y-64437200D02*
X141125237Y-64513390D01*
X141125237Y-64513390D02*
X140744285Y-64513390D01*
X140744285Y-64513390D02*
X140591904Y-64437200D01*
X140591904Y-64437200D02*
X140515713Y-64361009D01*
X140515713Y-64361009D02*
X140439523Y-64208628D01*
X140439523Y-64208628D02*
X140439523Y-64056247D01*
X140439523Y-64056247D02*
X140515713Y-63903866D01*
X140515713Y-63903866D02*
X140591904Y-63827676D01*
X140591904Y-63827676D02*
X140744285Y-63751485D01*
X140744285Y-63751485D02*
X141049047Y-63675295D01*
X141049047Y-63675295D02*
X141201428Y-63599104D01*
X141201428Y-63599104D02*
X141277618Y-63522914D01*
X141277618Y-63522914D02*
X141353809Y-63370533D01*
X141353809Y-63370533D02*
X141353809Y-63218152D01*
X141353809Y-63218152D02*
X141277618Y-63065771D01*
X141277618Y-63065771D02*
X141201428Y-62989580D01*
X141201428Y-62989580D02*
X141049047Y-62913390D01*
X141049047Y-62913390D02*
X140668094Y-62913390D01*
X140668094Y-62913390D02*
X140439523Y-62989580D01*
X139068094Y-63446723D02*
X139068094Y-64513390D01*
X139753808Y-63446723D02*
X139753808Y-64284819D01*
X139753808Y-64284819D02*
X139677618Y-64437200D01*
X139677618Y-64437200D02*
X139525237Y-64513390D01*
X139525237Y-64513390D02*
X139296665Y-64513390D01*
X139296665Y-64513390D02*
X139144284Y-64437200D01*
X139144284Y-64437200D02*
X139068094Y-64361009D01*
X138306189Y-63446723D02*
X138306189Y-65046723D01*
X138306189Y-63522914D02*
X138153808Y-63446723D01*
X138153808Y-63446723D02*
X137849046Y-63446723D01*
X137849046Y-63446723D02*
X137696665Y-63522914D01*
X137696665Y-63522914D02*
X137620475Y-63599104D01*
X137620475Y-63599104D02*
X137544284Y-63751485D01*
X137544284Y-63751485D02*
X137544284Y-64208628D01*
X137544284Y-64208628D02*
X137620475Y-64361009D01*
X137620475Y-64361009D02*
X137696665Y-64437200D01*
X137696665Y-64437200D02*
X137849046Y-64513390D01*
X137849046Y-64513390D02*
X138153808Y-64513390D01*
X138153808Y-64513390D02*
X138306189Y-64437200D01*
X136858570Y-63446723D02*
X136858570Y-65046723D01*
X136858570Y-63522914D02*
X136706189Y-63446723D01*
X136706189Y-63446723D02*
X136401427Y-63446723D01*
X136401427Y-63446723D02*
X136249046Y-63522914D01*
X136249046Y-63522914D02*
X136172856Y-63599104D01*
X136172856Y-63599104D02*
X136096665Y-63751485D01*
X136096665Y-63751485D02*
X136096665Y-64208628D01*
X136096665Y-64208628D02*
X136172856Y-64361009D01*
X136172856Y-64361009D02*
X136249046Y-64437200D01*
X136249046Y-64437200D02*
X136401427Y-64513390D01*
X136401427Y-64513390D02*
X136706189Y-64513390D01*
X136706189Y-64513390D02*
X136858570Y-64437200D01*
X135182380Y-64513390D02*
X135334761Y-64437200D01*
X135334761Y-64437200D02*
X135410951Y-64284819D01*
X135410951Y-64284819D02*
X135410951Y-62913390D01*
X134725237Y-63446723D02*
X134344285Y-64513390D01*
X133963332Y-63446723D02*
X134344285Y-64513390D01*
X134344285Y-64513390D02*
X134496666Y-64894342D01*
X134496666Y-64894342D02*
X134572856Y-64970533D01*
X134572856Y-64970533D02*
X134725237Y-65046723D01*
X131220474Y-64361009D02*
X131296665Y-64437200D01*
X131296665Y-64437200D02*
X131525236Y-64513390D01*
X131525236Y-64513390D02*
X131677617Y-64513390D01*
X131677617Y-64513390D02*
X131906189Y-64437200D01*
X131906189Y-64437200D02*
X132058570Y-64284819D01*
X132058570Y-64284819D02*
X132134760Y-64132438D01*
X132134760Y-64132438D02*
X132210951Y-63827676D01*
X132210951Y-63827676D02*
X132210951Y-63599104D01*
X132210951Y-63599104D02*
X132134760Y-63294342D01*
X132134760Y-63294342D02*
X132058570Y-63141961D01*
X132058570Y-63141961D02*
X131906189Y-62989580D01*
X131906189Y-62989580D02*
X131677617Y-62913390D01*
X131677617Y-62913390D02*
X131525236Y-62913390D01*
X131525236Y-62913390D02*
X131296665Y-62989580D01*
X131296665Y-62989580D02*
X131220474Y-63065771D01*
X130306189Y-64513390D02*
X130458570Y-64437200D01*
X130458570Y-64437200D02*
X130534760Y-64361009D01*
X130534760Y-64361009D02*
X130610951Y-64208628D01*
X130610951Y-64208628D02*
X130610951Y-63751485D01*
X130610951Y-63751485D02*
X130534760Y-63599104D01*
X130534760Y-63599104D02*
X130458570Y-63522914D01*
X130458570Y-63522914D02*
X130306189Y-63446723D01*
X130306189Y-63446723D02*
X130077617Y-63446723D01*
X130077617Y-63446723D02*
X129925236Y-63522914D01*
X129925236Y-63522914D02*
X129849046Y-63599104D01*
X129849046Y-63599104D02*
X129772855Y-63751485D01*
X129772855Y-63751485D02*
X129772855Y-64208628D01*
X129772855Y-64208628D02*
X129849046Y-64361009D01*
X129849046Y-64361009D02*
X129925236Y-64437200D01*
X129925236Y-64437200D02*
X130077617Y-64513390D01*
X130077617Y-64513390D02*
X130306189Y-64513390D01*
X129087141Y-63446723D02*
X129087141Y-64513390D01*
X129087141Y-63599104D02*
X129010951Y-63522914D01*
X129010951Y-63522914D02*
X128858570Y-63446723D01*
X128858570Y-63446723D02*
X128629998Y-63446723D01*
X128629998Y-63446723D02*
X128477617Y-63522914D01*
X128477617Y-63522914D02*
X128401427Y-63675295D01*
X128401427Y-63675295D02*
X128401427Y-64513390D01*
X127868094Y-63446723D02*
X127258570Y-63446723D01*
X127639522Y-62913390D02*
X127639522Y-64284819D01*
X127639522Y-64284819D02*
X127563332Y-64437200D01*
X127563332Y-64437200D02*
X127410951Y-64513390D01*
X127410951Y-64513390D02*
X127258570Y-64513390D01*
X126725236Y-64513390D02*
X126725236Y-63446723D01*
X126725236Y-63751485D02*
X126649046Y-63599104D01*
X126649046Y-63599104D02*
X126572855Y-63522914D01*
X126572855Y-63522914D02*
X126420474Y-63446723D01*
X126420474Y-63446723D02*
X126268093Y-63446723D01*
X125506189Y-64513390D02*
X125658570Y-64437200D01*
X125658570Y-64437200D02*
X125734760Y-64361009D01*
X125734760Y-64361009D02*
X125810951Y-64208628D01*
X125810951Y-64208628D02*
X125810951Y-63751485D01*
X125810951Y-63751485D02*
X125734760Y-63599104D01*
X125734760Y-63599104D02*
X125658570Y-63522914D01*
X125658570Y-63522914D02*
X125506189Y-63446723D01*
X125506189Y-63446723D02*
X125277617Y-63446723D01*
X125277617Y-63446723D02*
X125125236Y-63522914D01*
X125125236Y-63522914D02*
X125049046Y-63599104D01*
X125049046Y-63599104D02*
X124972855Y-63751485D01*
X124972855Y-63751485D02*
X124972855Y-64208628D01*
X124972855Y-64208628D02*
X125049046Y-64361009D01*
X125049046Y-64361009D02*
X125125236Y-64437200D01*
X125125236Y-64437200D02*
X125277617Y-64513390D01*
X125277617Y-64513390D02*
X125506189Y-64513390D01*
X124058570Y-64513390D02*
X124210951Y-64437200D01*
X124210951Y-64437200D02*
X124287141Y-64284819D01*
X124287141Y-64284819D02*
X124287141Y-62913390D01*
X123220475Y-64513390D02*
X123372856Y-64437200D01*
X123372856Y-64437200D02*
X123449046Y-64284819D01*
X123449046Y-64284819D02*
X123449046Y-62913390D01*
X122001427Y-64437200D02*
X122153808Y-64513390D01*
X122153808Y-64513390D02*
X122458570Y-64513390D01*
X122458570Y-64513390D02*
X122610951Y-64437200D01*
X122610951Y-64437200D02*
X122687142Y-64284819D01*
X122687142Y-64284819D02*
X122687142Y-63675295D01*
X122687142Y-63675295D02*
X122610951Y-63522914D01*
X122610951Y-63522914D02*
X122458570Y-63446723D01*
X122458570Y-63446723D02*
X122153808Y-63446723D01*
X122153808Y-63446723D02*
X122001427Y-63522914D01*
X122001427Y-63522914D02*
X121925237Y-63675295D01*
X121925237Y-63675295D02*
X121925237Y-63827676D01*
X121925237Y-63827676D02*
X122687142Y-63980057D01*
X121239522Y-64513390D02*
X121239522Y-63446723D01*
X121239522Y-63751485D02*
X121163332Y-63599104D01*
X121163332Y-63599104D02*
X121087141Y-63522914D01*
X121087141Y-63522914D02*
X120934760Y-63446723D01*
X120934760Y-63446723D02*
X120782379Y-63446723D01*
D10*
X187864285Y-72064895D02*
X188130952Y-71683942D01*
X188321428Y-72064895D02*
X188321428Y-71264895D01*
X188321428Y-71264895D02*
X188016666Y-71264895D01*
X188016666Y-71264895D02*
X187940476Y-71302990D01*
X187940476Y-71302990D02*
X187902381Y-71341085D01*
X187902381Y-71341085D02*
X187864285Y-71417276D01*
X187864285Y-71417276D02*
X187864285Y-71531561D01*
X187864285Y-71531561D02*
X187902381Y-71607752D01*
X187902381Y-71607752D02*
X187940476Y-71645847D01*
X187940476Y-71645847D02*
X188016666Y-71683942D01*
X188016666Y-71683942D02*
X188321428Y-71683942D01*
X187102381Y-72064895D02*
X187559524Y-72064895D01*
X187330952Y-72064895D02*
X187330952Y-71264895D01*
X187330952Y-71264895D02*
X187407143Y-71379180D01*
X187407143Y-71379180D02*
X187483333Y-71455371D01*
X187483333Y-71455371D02*
X187559524Y-71493466D01*
X186340476Y-72064895D02*
X186797619Y-72064895D01*
X186569047Y-72064895D02*
X186569047Y-71264895D01*
X186569047Y-71264895D02*
X186645238Y-71379180D01*
X186645238Y-71379180D02*
X186721428Y-71455371D01*
X186721428Y-71455371D02*
X186797619Y-71493466D01*
X200126190Y-64241085D02*
X200202380Y-64202990D01*
X200202380Y-64202990D02*
X200278571Y-64126800D01*
X200278571Y-64126800D02*
X200392857Y-64012514D01*
X200392857Y-64012514D02*
X200469047Y-63974419D01*
X200469047Y-63974419D02*
X200545238Y-63974419D01*
X200507142Y-64164895D02*
X200583333Y-64126800D01*
X200583333Y-64126800D02*
X200659523Y-64050609D01*
X200659523Y-64050609D02*
X200697619Y-63898228D01*
X200697619Y-63898228D02*
X200697619Y-63631561D01*
X200697619Y-63631561D02*
X200659523Y-63479180D01*
X200659523Y-63479180D02*
X200583333Y-63402990D01*
X200583333Y-63402990D02*
X200507142Y-63364895D01*
X200507142Y-63364895D02*
X200354761Y-63364895D01*
X200354761Y-63364895D02*
X200278571Y-63402990D01*
X200278571Y-63402990D02*
X200202380Y-63479180D01*
X200202380Y-63479180D02*
X200164285Y-63631561D01*
X200164285Y-63631561D02*
X200164285Y-63898228D01*
X200164285Y-63898228D02*
X200202380Y-64050609D01*
X200202380Y-64050609D02*
X200278571Y-64126800D01*
X200278571Y-64126800D02*
X200354761Y-64164895D01*
X200354761Y-64164895D02*
X200507142Y-64164895D01*
X199402381Y-64164895D02*
X199859524Y-64164895D01*
X199630952Y-64164895D02*
X199630952Y-63364895D01*
X199630952Y-63364895D02*
X199707143Y-63479180D01*
X199707143Y-63479180D02*
X199783333Y-63555371D01*
X199783333Y-63555371D02*
X199859524Y-63593466D01*
X198414895Y-70516667D02*
X198033942Y-70250000D01*
X198414895Y-70059524D02*
X197614895Y-70059524D01*
X197614895Y-70059524D02*
X197614895Y-70364286D01*
X197614895Y-70364286D02*
X197652990Y-70440476D01*
X197652990Y-70440476D02*
X197691085Y-70478571D01*
X197691085Y-70478571D02*
X197767276Y-70516667D01*
X197767276Y-70516667D02*
X197881561Y-70516667D01*
X197881561Y-70516667D02*
X197957752Y-70478571D01*
X197957752Y-70478571D02*
X197995847Y-70440476D01*
X197995847Y-70440476D02*
X198033942Y-70364286D01*
X198033942Y-70364286D02*
X198033942Y-70059524D01*
X198414895Y-70897619D02*
X198414895Y-71050000D01*
X198414895Y-71050000D02*
X198376800Y-71126190D01*
X198376800Y-71126190D02*
X198338704Y-71164286D01*
X198338704Y-71164286D02*
X198224419Y-71240476D01*
X198224419Y-71240476D02*
X198072038Y-71278571D01*
X198072038Y-71278571D02*
X197767276Y-71278571D01*
X197767276Y-71278571D02*
X197691085Y-71240476D01*
X197691085Y-71240476D02*
X197652990Y-71202381D01*
X197652990Y-71202381D02*
X197614895Y-71126190D01*
X197614895Y-71126190D02*
X197614895Y-70973809D01*
X197614895Y-70973809D02*
X197652990Y-70897619D01*
X197652990Y-70897619D02*
X197691085Y-70859524D01*
X197691085Y-70859524D02*
X197767276Y-70821428D01*
X197767276Y-70821428D02*
X197957752Y-70821428D01*
X197957752Y-70821428D02*
X198033942Y-70859524D01*
X198033942Y-70859524D02*
X198072038Y-70897619D01*
X198072038Y-70897619D02*
X198110133Y-70973809D01*
X198110133Y-70973809D02*
X198110133Y-71126190D01*
X198110133Y-71126190D02*
X198072038Y-71202381D01*
X198072038Y-71202381D02*
X198033942Y-71240476D01*
X198033942Y-71240476D02*
X197957752Y-71278571D01*
X174066666Y-69314895D02*
X174066666Y-69886323D01*
X174066666Y-69886323D02*
X174104761Y-70000609D01*
X174104761Y-70000609D02*
X174180952Y-70076800D01*
X174180952Y-70076800D02*
X174295237Y-70114895D01*
X174295237Y-70114895D02*
X174371428Y-70114895D01*
X173723809Y-69391085D02*
X173685713Y-69352990D01*
X173685713Y-69352990D02*
X173609523Y-69314895D01*
X173609523Y-69314895D02*
X173419047Y-69314895D01*
X173419047Y-69314895D02*
X173342856Y-69352990D01*
X173342856Y-69352990D02*
X173304761Y-69391085D01*
X173304761Y-69391085D02*
X173266666Y-69467276D01*
X173266666Y-69467276D02*
X173266666Y-69543466D01*
X173266666Y-69543466D02*
X173304761Y-69657752D01*
X173304761Y-69657752D02*
X173761904Y-70114895D01*
X173761904Y-70114895D02*
X173266666Y-70114895D01*
X174664895Y-86316667D02*
X174283942Y-86050000D01*
X174664895Y-85859524D02*
X173864895Y-85859524D01*
X173864895Y-85859524D02*
X173864895Y-86164286D01*
X173864895Y-86164286D02*
X173902990Y-86240476D01*
X173902990Y-86240476D02*
X173941085Y-86278571D01*
X173941085Y-86278571D02*
X174017276Y-86316667D01*
X174017276Y-86316667D02*
X174131561Y-86316667D01*
X174131561Y-86316667D02*
X174207752Y-86278571D01*
X174207752Y-86278571D02*
X174245847Y-86240476D01*
X174245847Y-86240476D02*
X174283942Y-86164286D01*
X174283942Y-86164286D02*
X174283942Y-85859524D01*
X174131561Y-87002381D02*
X174664895Y-87002381D01*
X173826800Y-86811905D02*
X174398228Y-86621428D01*
X174398228Y-86621428D02*
X174398228Y-87116667D01*
X170814895Y-86304167D02*
X170433942Y-86037500D01*
X170814895Y-85847024D02*
X170014895Y-85847024D01*
X170014895Y-85847024D02*
X170014895Y-86151786D01*
X170014895Y-86151786D02*
X170052990Y-86227976D01*
X170052990Y-86227976D02*
X170091085Y-86266071D01*
X170091085Y-86266071D02*
X170167276Y-86304167D01*
X170167276Y-86304167D02*
X170281561Y-86304167D01*
X170281561Y-86304167D02*
X170357752Y-86266071D01*
X170357752Y-86266071D02*
X170395847Y-86227976D01*
X170395847Y-86227976D02*
X170433942Y-86151786D01*
X170433942Y-86151786D02*
X170433942Y-85847024D01*
X170014895Y-87027976D02*
X170014895Y-86647024D01*
X170014895Y-86647024D02*
X170395847Y-86608928D01*
X170395847Y-86608928D02*
X170357752Y-86647024D01*
X170357752Y-86647024D02*
X170319657Y-86723214D01*
X170319657Y-86723214D02*
X170319657Y-86913690D01*
X170319657Y-86913690D02*
X170357752Y-86989881D01*
X170357752Y-86989881D02*
X170395847Y-87027976D01*
X170395847Y-87027976D02*
X170472038Y-87066071D01*
X170472038Y-87066071D02*
X170662514Y-87066071D01*
X170662514Y-87066071D02*
X170738704Y-87027976D01*
X170738704Y-87027976D02*
X170776800Y-86989881D01*
X170776800Y-86989881D02*
X170814895Y-86913690D01*
X170814895Y-86913690D02*
X170814895Y-86723214D01*
X170814895Y-86723214D02*
X170776800Y-86647024D01*
X170776800Y-86647024D02*
X170738704Y-86608928D01*
D13*
X189924819Y-101090476D02*
X190639104Y-101090476D01*
X190639104Y-101090476D02*
X190781961Y-101042857D01*
X190781961Y-101042857D02*
X190877200Y-100947619D01*
X190877200Y-100947619D02*
X190924819Y-100804762D01*
X190924819Y-100804762D02*
X190924819Y-100709524D01*
X190924819Y-102090476D02*
X190924819Y-101519048D01*
X190924819Y-101804762D02*
X189924819Y-101804762D01*
X189924819Y-101804762D02*
X190067676Y-101709524D01*
X190067676Y-101709524D02*
X190162914Y-101614286D01*
X190162914Y-101614286D02*
X190210533Y-101519048D01*
X190020057Y-102471429D02*
X189972438Y-102519048D01*
X189972438Y-102519048D02*
X189924819Y-102614286D01*
X189924819Y-102614286D02*
X189924819Y-102852381D01*
X189924819Y-102852381D02*
X189972438Y-102947619D01*
X189972438Y-102947619D02*
X190020057Y-102995238D01*
X190020057Y-102995238D02*
X190115295Y-103042857D01*
X190115295Y-103042857D02*
X190210533Y-103042857D01*
X190210533Y-103042857D02*
X190353390Y-102995238D01*
X190353390Y-102995238D02*
X190924819Y-102423810D01*
X190924819Y-102423810D02*
X190924819Y-103042857D01*
X184304819Y-76188095D02*
X185114342Y-76188095D01*
X185114342Y-76188095D02*
X185209580Y-76235714D01*
X185209580Y-76235714D02*
X185257200Y-76283333D01*
X185257200Y-76283333D02*
X185304819Y-76378571D01*
X185304819Y-76378571D02*
X185304819Y-76569047D01*
X185304819Y-76569047D02*
X185257200Y-76664285D01*
X185257200Y-76664285D02*
X185209580Y-76711904D01*
X185209580Y-76711904D02*
X185114342Y-76759523D01*
X185114342Y-76759523D02*
X184304819Y-76759523D01*
X185304819Y-77759523D02*
X185304819Y-77188095D01*
X185304819Y-77473809D02*
X184304819Y-77473809D01*
X184304819Y-77473809D02*
X184447676Y-77378571D01*
X184447676Y-77378571D02*
X184542914Y-77283333D01*
X184542914Y-77283333D02*
X184590533Y-77188095D01*
D10*
X166844895Y-86304167D02*
X166463942Y-86037500D01*
X166844895Y-85847024D02*
X166044895Y-85847024D01*
X166044895Y-85847024D02*
X166044895Y-86151786D01*
X166044895Y-86151786D02*
X166082990Y-86227976D01*
X166082990Y-86227976D02*
X166121085Y-86266071D01*
X166121085Y-86266071D02*
X166197276Y-86304167D01*
X166197276Y-86304167D02*
X166311561Y-86304167D01*
X166311561Y-86304167D02*
X166387752Y-86266071D01*
X166387752Y-86266071D02*
X166425847Y-86227976D01*
X166425847Y-86227976D02*
X166463942Y-86151786D01*
X166463942Y-86151786D02*
X166463942Y-85847024D01*
X166044895Y-86570833D02*
X166044895Y-87104167D01*
X166044895Y-87104167D02*
X166844895Y-86761309D01*
X202038704Y-78929167D02*
X202076800Y-78891071D01*
X202076800Y-78891071D02*
X202114895Y-78776786D01*
X202114895Y-78776786D02*
X202114895Y-78700595D01*
X202114895Y-78700595D02*
X202076800Y-78586309D01*
X202076800Y-78586309D02*
X202000609Y-78510119D01*
X202000609Y-78510119D02*
X201924419Y-78472024D01*
X201924419Y-78472024D02*
X201772038Y-78433928D01*
X201772038Y-78433928D02*
X201657752Y-78433928D01*
X201657752Y-78433928D02*
X201505371Y-78472024D01*
X201505371Y-78472024D02*
X201429180Y-78510119D01*
X201429180Y-78510119D02*
X201352990Y-78586309D01*
X201352990Y-78586309D02*
X201314895Y-78700595D01*
X201314895Y-78700595D02*
X201314895Y-78776786D01*
X201314895Y-78776786D02*
X201352990Y-78891071D01*
X201352990Y-78891071D02*
X201391085Y-78929167D01*
X201314895Y-79195833D02*
X201314895Y-79691071D01*
X201314895Y-79691071D02*
X201619657Y-79424405D01*
X201619657Y-79424405D02*
X201619657Y-79538690D01*
X201619657Y-79538690D02*
X201657752Y-79614881D01*
X201657752Y-79614881D02*
X201695847Y-79652976D01*
X201695847Y-79652976D02*
X201772038Y-79691071D01*
X201772038Y-79691071D02*
X201962514Y-79691071D01*
X201962514Y-79691071D02*
X202038704Y-79652976D01*
X202038704Y-79652976D02*
X202076800Y-79614881D01*
X202076800Y-79614881D02*
X202114895Y-79538690D01*
X202114895Y-79538690D02*
X202114895Y-79310119D01*
X202114895Y-79310119D02*
X202076800Y-79233928D01*
X202076800Y-79233928D02*
X202038704Y-79195833D01*
D13*
X132446486Y-73841666D02*
X133160771Y-73841666D01*
X133160771Y-73841666D02*
X133303628Y-73794047D01*
X133303628Y-73794047D02*
X133398867Y-73698809D01*
X133398867Y-73698809D02*
X133446486Y-73555952D01*
X133446486Y-73555952D02*
X133446486Y-73460714D01*
X132446486Y-74746428D02*
X132446486Y-74555952D01*
X132446486Y-74555952D02*
X132494105Y-74460714D01*
X132494105Y-74460714D02*
X132541724Y-74413095D01*
X132541724Y-74413095D02*
X132684581Y-74317857D01*
X132684581Y-74317857D02*
X132875057Y-74270238D01*
X132875057Y-74270238D02*
X133256009Y-74270238D01*
X133256009Y-74270238D02*
X133351247Y-74317857D01*
X133351247Y-74317857D02*
X133398867Y-74365476D01*
X133398867Y-74365476D02*
X133446486Y-74460714D01*
X133446486Y-74460714D02*
X133446486Y-74651190D01*
X133446486Y-74651190D02*
X133398867Y-74746428D01*
X133398867Y-74746428D02*
X133351247Y-74794047D01*
X133351247Y-74794047D02*
X133256009Y-74841666D01*
X133256009Y-74841666D02*
X133017914Y-74841666D01*
X133017914Y-74841666D02*
X132922676Y-74794047D01*
X132922676Y-74794047D02*
X132875057Y-74746428D01*
X132875057Y-74746428D02*
X132827438Y-74651190D01*
X132827438Y-74651190D02*
X132827438Y-74460714D01*
X132827438Y-74460714D02*
X132875057Y-74365476D01*
X132875057Y-74365476D02*
X132922676Y-74317857D01*
X132922676Y-74317857D02*
X133017914Y-74270238D01*
X135831367Y-73628571D02*
X135831367Y-74771429D01*
X135831367Y-86628571D02*
X135831367Y-87771429D01*
X136402795Y-87200000D02*
X135259938Y-87200000D01*
D10*
X194814895Y-78959167D02*
X194433942Y-78692500D01*
X194814895Y-78502024D02*
X194014895Y-78502024D01*
X194014895Y-78502024D02*
X194014895Y-78806786D01*
X194014895Y-78806786D02*
X194052990Y-78882976D01*
X194052990Y-78882976D02*
X194091085Y-78921071D01*
X194091085Y-78921071D02*
X194167276Y-78959167D01*
X194167276Y-78959167D02*
X194281561Y-78959167D01*
X194281561Y-78959167D02*
X194357752Y-78921071D01*
X194357752Y-78921071D02*
X194395847Y-78882976D01*
X194395847Y-78882976D02*
X194433942Y-78806786D01*
X194433942Y-78806786D02*
X194433942Y-78502024D01*
X194014895Y-79644881D02*
X194014895Y-79492500D01*
X194014895Y-79492500D02*
X194052990Y-79416309D01*
X194052990Y-79416309D02*
X194091085Y-79378214D01*
X194091085Y-79378214D02*
X194205371Y-79302024D01*
X194205371Y-79302024D02*
X194357752Y-79263928D01*
X194357752Y-79263928D02*
X194662514Y-79263928D01*
X194662514Y-79263928D02*
X194738704Y-79302024D01*
X194738704Y-79302024D02*
X194776800Y-79340119D01*
X194776800Y-79340119D02*
X194814895Y-79416309D01*
X194814895Y-79416309D02*
X194814895Y-79568690D01*
X194814895Y-79568690D02*
X194776800Y-79644881D01*
X194776800Y-79644881D02*
X194738704Y-79682976D01*
X194738704Y-79682976D02*
X194662514Y-79721071D01*
X194662514Y-79721071D02*
X194472038Y-79721071D01*
X194472038Y-79721071D02*
X194395847Y-79682976D01*
X194395847Y-79682976D02*
X194357752Y-79644881D01*
X194357752Y-79644881D02*
X194319657Y-79568690D01*
X194319657Y-79568690D02*
X194319657Y-79416309D01*
X194319657Y-79416309D02*
X194357752Y-79340119D01*
X194357752Y-79340119D02*
X194395847Y-79302024D01*
X194395847Y-79302024D02*
X194472038Y-79263928D01*
X198438704Y-78929167D02*
X198476800Y-78891071D01*
X198476800Y-78891071D02*
X198514895Y-78776786D01*
X198514895Y-78776786D02*
X198514895Y-78700595D01*
X198514895Y-78700595D02*
X198476800Y-78586309D01*
X198476800Y-78586309D02*
X198400609Y-78510119D01*
X198400609Y-78510119D02*
X198324419Y-78472024D01*
X198324419Y-78472024D02*
X198172038Y-78433928D01*
X198172038Y-78433928D02*
X198057752Y-78433928D01*
X198057752Y-78433928D02*
X197905371Y-78472024D01*
X197905371Y-78472024D02*
X197829180Y-78510119D01*
X197829180Y-78510119D02*
X197752990Y-78586309D01*
X197752990Y-78586309D02*
X197714895Y-78700595D01*
X197714895Y-78700595D02*
X197714895Y-78776786D01*
X197714895Y-78776786D02*
X197752990Y-78891071D01*
X197752990Y-78891071D02*
X197791085Y-78929167D01*
X197791085Y-79233928D02*
X197752990Y-79272024D01*
X197752990Y-79272024D02*
X197714895Y-79348214D01*
X197714895Y-79348214D02*
X197714895Y-79538690D01*
X197714895Y-79538690D02*
X197752990Y-79614881D01*
X197752990Y-79614881D02*
X197791085Y-79652976D01*
X197791085Y-79652976D02*
X197867276Y-79691071D01*
X197867276Y-79691071D02*
X197943466Y-79691071D01*
X197943466Y-79691071D02*
X198057752Y-79652976D01*
X198057752Y-79652976D02*
X198514895Y-79195833D01*
X198514895Y-79195833D02*
X198514895Y-79691071D01*
X192790475Y-84184895D02*
X192790475Y-83384895D01*
X192790475Y-83384895D02*
X192599999Y-83384895D01*
X192599999Y-83384895D02*
X192485713Y-83422990D01*
X192485713Y-83422990D02*
X192409523Y-83499180D01*
X192409523Y-83499180D02*
X192371428Y-83575371D01*
X192371428Y-83575371D02*
X192333332Y-83727752D01*
X192333332Y-83727752D02*
X192333332Y-83842038D01*
X192333332Y-83842038D02*
X192371428Y-83994419D01*
X192371428Y-83994419D02*
X192409523Y-84070609D01*
X192409523Y-84070609D02*
X192485713Y-84146800D01*
X192485713Y-84146800D02*
X192599999Y-84184895D01*
X192599999Y-84184895D02*
X192790475Y-84184895D01*
X192066666Y-83384895D02*
X191571428Y-83384895D01*
X191571428Y-83384895D02*
X191838094Y-83689657D01*
X191838094Y-83689657D02*
X191723809Y-83689657D01*
X191723809Y-83689657D02*
X191647618Y-83727752D01*
X191647618Y-83727752D02*
X191609523Y-83765847D01*
X191609523Y-83765847D02*
X191571428Y-83842038D01*
X191571428Y-83842038D02*
X191571428Y-84032514D01*
X191571428Y-84032514D02*
X191609523Y-84108704D01*
X191609523Y-84108704D02*
X191647618Y-84146800D01*
X191647618Y-84146800D02*
X191723809Y-84184895D01*
X191723809Y-84184895D02*
X191952380Y-84184895D01*
X191952380Y-84184895D02*
X192028571Y-84146800D01*
X192028571Y-84146800D02*
X192066666Y-84108704D01*
X196314895Y-72809524D02*
X195514895Y-72809524D01*
X195514895Y-72809524D02*
X195514895Y-73000000D01*
X195514895Y-73000000D02*
X195552990Y-73114286D01*
X195552990Y-73114286D02*
X195629180Y-73190476D01*
X195629180Y-73190476D02*
X195705371Y-73228571D01*
X195705371Y-73228571D02*
X195857752Y-73266667D01*
X195857752Y-73266667D02*
X195972038Y-73266667D01*
X195972038Y-73266667D02*
X196124419Y-73228571D01*
X196124419Y-73228571D02*
X196200609Y-73190476D01*
X196200609Y-73190476D02*
X196276800Y-73114286D01*
X196276800Y-73114286D02*
X196314895Y-73000000D01*
X196314895Y-73000000D02*
X196314895Y-72809524D01*
X195591085Y-73571428D02*
X195552990Y-73609524D01*
X195552990Y-73609524D02*
X195514895Y-73685714D01*
X195514895Y-73685714D02*
X195514895Y-73876190D01*
X195514895Y-73876190D02*
X195552990Y-73952381D01*
X195552990Y-73952381D02*
X195591085Y-73990476D01*
X195591085Y-73990476D02*
X195667276Y-74028571D01*
X195667276Y-74028571D02*
X195743466Y-74028571D01*
X195743466Y-74028571D02*
X195857752Y-73990476D01*
X195857752Y-73990476D02*
X196314895Y-73533333D01*
X196314895Y-73533333D02*
X196314895Y-74028571D01*
X191264895Y-77566667D02*
X190883942Y-77300000D01*
X191264895Y-77109524D02*
X190464895Y-77109524D01*
X190464895Y-77109524D02*
X190464895Y-77414286D01*
X190464895Y-77414286D02*
X190502990Y-77490476D01*
X190502990Y-77490476D02*
X190541085Y-77528571D01*
X190541085Y-77528571D02*
X190617276Y-77566667D01*
X190617276Y-77566667D02*
X190731561Y-77566667D01*
X190731561Y-77566667D02*
X190807752Y-77528571D01*
X190807752Y-77528571D02*
X190845847Y-77490476D01*
X190845847Y-77490476D02*
X190883942Y-77414286D01*
X190883942Y-77414286D02*
X190883942Y-77109524D01*
X190541085Y-77871428D02*
X190502990Y-77909524D01*
X190502990Y-77909524D02*
X190464895Y-77985714D01*
X190464895Y-77985714D02*
X190464895Y-78176190D01*
X190464895Y-78176190D02*
X190502990Y-78252381D01*
X190502990Y-78252381D02*
X190541085Y-78290476D01*
X190541085Y-78290476D02*
X190617276Y-78328571D01*
X190617276Y-78328571D02*
X190693466Y-78328571D01*
X190693466Y-78328571D02*
X190807752Y-78290476D01*
X190807752Y-78290476D02*
X191264895Y-77833333D01*
X191264895Y-77833333D02*
X191264895Y-78328571D01*
D13*
X150894819Y-73841666D02*
X151609104Y-73841666D01*
X151609104Y-73841666D02*
X151751961Y-73794047D01*
X151751961Y-73794047D02*
X151847200Y-73698809D01*
X151847200Y-73698809D02*
X151894819Y-73555952D01*
X151894819Y-73555952D02*
X151894819Y-73460714D01*
X150894819Y-74794047D02*
X150894819Y-74317857D01*
X150894819Y-74317857D02*
X151371009Y-74270238D01*
X151371009Y-74270238D02*
X151323390Y-74317857D01*
X151323390Y-74317857D02*
X151275771Y-74413095D01*
X151275771Y-74413095D02*
X151275771Y-74651190D01*
X151275771Y-74651190D02*
X151323390Y-74746428D01*
X151323390Y-74746428D02*
X151371009Y-74794047D01*
X151371009Y-74794047D02*
X151466247Y-74841666D01*
X151466247Y-74841666D02*
X151704342Y-74841666D01*
X151704342Y-74841666D02*
X151799580Y-74794047D01*
X151799580Y-74794047D02*
X151847200Y-74746428D01*
X151847200Y-74746428D02*
X151894819Y-74651190D01*
X151894819Y-74651190D02*
X151894819Y-74413095D01*
X151894819Y-74413095D02*
X151847200Y-74317857D01*
X151847200Y-74317857D02*
X151799580Y-74270238D01*
X153614700Y-73628571D02*
X153614700Y-74771429D01*
X153615196Y-86615029D02*
X153615196Y-87757887D01*
X154186624Y-87186458D02*
X153043767Y-87186458D01*
D10*
X178314895Y-86316667D02*
X177933942Y-86050000D01*
X178314895Y-85859524D02*
X177514895Y-85859524D01*
X177514895Y-85859524D02*
X177514895Y-86164286D01*
X177514895Y-86164286D02*
X177552990Y-86240476D01*
X177552990Y-86240476D02*
X177591085Y-86278571D01*
X177591085Y-86278571D02*
X177667276Y-86316667D01*
X177667276Y-86316667D02*
X177781561Y-86316667D01*
X177781561Y-86316667D02*
X177857752Y-86278571D01*
X177857752Y-86278571D02*
X177895847Y-86240476D01*
X177895847Y-86240476D02*
X177933942Y-86164286D01*
X177933942Y-86164286D02*
X177933942Y-85859524D01*
X177514895Y-86583333D02*
X177514895Y-87078571D01*
X177514895Y-87078571D02*
X177819657Y-86811905D01*
X177819657Y-86811905D02*
X177819657Y-86926190D01*
X177819657Y-86926190D02*
X177857752Y-87002381D01*
X177857752Y-87002381D02*
X177895847Y-87040476D01*
X177895847Y-87040476D02*
X177972038Y-87078571D01*
X177972038Y-87078571D02*
X178162514Y-87078571D01*
X178162514Y-87078571D02*
X178238704Y-87040476D01*
X178238704Y-87040476D02*
X178276800Y-87002381D01*
X178276800Y-87002381D02*
X178314895Y-86926190D01*
X178314895Y-86926190D02*
X178314895Y-86697619D01*
X178314895Y-86697619D02*
X178276800Y-86621428D01*
X178276800Y-86621428D02*
X178238704Y-86583333D01*
X180764285Y-85044895D02*
X181030952Y-84663942D01*
X181221428Y-85044895D02*
X181221428Y-84244895D01*
X181221428Y-84244895D02*
X180916666Y-84244895D01*
X180916666Y-84244895D02*
X180840476Y-84282990D01*
X180840476Y-84282990D02*
X180802381Y-84321085D01*
X180802381Y-84321085D02*
X180764285Y-84397276D01*
X180764285Y-84397276D02*
X180764285Y-84511561D01*
X180764285Y-84511561D02*
X180802381Y-84587752D01*
X180802381Y-84587752D02*
X180840476Y-84625847D01*
X180840476Y-84625847D02*
X180916666Y-84663942D01*
X180916666Y-84663942D02*
X181221428Y-84663942D01*
X180002381Y-85044895D02*
X180459524Y-85044895D01*
X180230952Y-85044895D02*
X180230952Y-84244895D01*
X180230952Y-84244895D02*
X180307143Y-84359180D01*
X180307143Y-84359180D02*
X180383333Y-84435371D01*
X180383333Y-84435371D02*
X180459524Y-84473466D01*
X179507142Y-84244895D02*
X179430952Y-84244895D01*
X179430952Y-84244895D02*
X179354761Y-84282990D01*
X179354761Y-84282990D02*
X179316666Y-84321085D01*
X179316666Y-84321085D02*
X179278571Y-84397276D01*
X179278571Y-84397276D02*
X179240476Y-84549657D01*
X179240476Y-84549657D02*
X179240476Y-84740133D01*
X179240476Y-84740133D02*
X179278571Y-84892514D01*
X179278571Y-84892514D02*
X179316666Y-84968704D01*
X179316666Y-84968704D02*
X179354761Y-85006800D01*
X179354761Y-85006800D02*
X179430952Y-85044895D01*
X179430952Y-85044895D02*
X179507142Y-85044895D01*
X179507142Y-85044895D02*
X179583333Y-85006800D01*
X179583333Y-85006800D02*
X179621428Y-84968704D01*
X179621428Y-84968704D02*
X179659523Y-84892514D01*
X179659523Y-84892514D02*
X179697619Y-84740133D01*
X179697619Y-84740133D02*
X179697619Y-84549657D01*
X179697619Y-84549657D02*
X179659523Y-84397276D01*
X179659523Y-84397276D02*
X179621428Y-84321085D01*
X179621428Y-84321085D02*
X179583333Y-84282990D01*
X179583333Y-84282990D02*
X179507142Y-84244895D01*
X164483332Y-80138704D02*
X164521428Y-80176800D01*
X164521428Y-80176800D02*
X164635713Y-80214895D01*
X164635713Y-80214895D02*
X164711904Y-80214895D01*
X164711904Y-80214895D02*
X164826190Y-80176800D01*
X164826190Y-80176800D02*
X164902380Y-80100609D01*
X164902380Y-80100609D02*
X164940475Y-80024419D01*
X164940475Y-80024419D02*
X164978571Y-79872038D01*
X164978571Y-79872038D02*
X164978571Y-79757752D01*
X164978571Y-79757752D02*
X164940475Y-79605371D01*
X164940475Y-79605371D02*
X164902380Y-79529180D01*
X164902380Y-79529180D02*
X164826190Y-79452990D01*
X164826190Y-79452990D02*
X164711904Y-79414895D01*
X164711904Y-79414895D02*
X164635713Y-79414895D01*
X164635713Y-79414895D02*
X164521428Y-79452990D01*
X164521428Y-79452990D02*
X164483332Y-79491085D01*
X163797618Y-79414895D02*
X163949999Y-79414895D01*
X163949999Y-79414895D02*
X164026190Y-79452990D01*
X164026190Y-79452990D02*
X164064285Y-79491085D01*
X164064285Y-79491085D02*
X164140475Y-79605371D01*
X164140475Y-79605371D02*
X164178571Y-79757752D01*
X164178571Y-79757752D02*
X164178571Y-80062514D01*
X164178571Y-80062514D02*
X164140475Y-80138704D01*
X164140475Y-80138704D02*
X164102380Y-80176800D01*
X164102380Y-80176800D02*
X164026190Y-80214895D01*
X164026190Y-80214895D02*
X163873809Y-80214895D01*
X163873809Y-80214895D02*
X163797618Y-80176800D01*
X163797618Y-80176800D02*
X163759523Y-80138704D01*
X163759523Y-80138704D02*
X163721428Y-80062514D01*
X163721428Y-80062514D02*
X163721428Y-79872038D01*
X163721428Y-79872038D02*
X163759523Y-79795847D01*
X163759523Y-79795847D02*
X163797618Y-79757752D01*
X163797618Y-79757752D02*
X163873809Y-79719657D01*
X163873809Y-79719657D02*
X164026190Y-79719657D01*
X164026190Y-79719657D02*
X164102380Y-79757752D01*
X164102380Y-79757752D02*
X164140475Y-79795847D01*
X164140475Y-79795847D02*
X164178571Y-79872038D01*
X200814895Y-70566667D02*
X200433942Y-70300000D01*
X200814895Y-70109524D02*
X200014895Y-70109524D01*
X200014895Y-70109524D02*
X200014895Y-70414286D01*
X200014895Y-70414286D02*
X200052990Y-70490476D01*
X200052990Y-70490476D02*
X200091085Y-70528571D01*
X200091085Y-70528571D02*
X200167276Y-70566667D01*
X200167276Y-70566667D02*
X200281561Y-70566667D01*
X200281561Y-70566667D02*
X200357752Y-70528571D01*
X200357752Y-70528571D02*
X200395847Y-70490476D01*
X200395847Y-70490476D02*
X200433942Y-70414286D01*
X200433942Y-70414286D02*
X200433942Y-70109524D01*
X200357752Y-71023809D02*
X200319657Y-70947619D01*
X200319657Y-70947619D02*
X200281561Y-70909524D01*
X200281561Y-70909524D02*
X200205371Y-70871428D01*
X200205371Y-70871428D02*
X200167276Y-70871428D01*
X200167276Y-70871428D02*
X200091085Y-70909524D01*
X200091085Y-70909524D02*
X200052990Y-70947619D01*
X200052990Y-70947619D02*
X200014895Y-71023809D01*
X200014895Y-71023809D02*
X200014895Y-71176190D01*
X200014895Y-71176190D02*
X200052990Y-71252381D01*
X200052990Y-71252381D02*
X200091085Y-71290476D01*
X200091085Y-71290476D02*
X200167276Y-71328571D01*
X200167276Y-71328571D02*
X200205371Y-71328571D01*
X200205371Y-71328571D02*
X200281561Y-71290476D01*
X200281561Y-71290476D02*
X200319657Y-71252381D01*
X200319657Y-71252381D02*
X200357752Y-71176190D01*
X200357752Y-71176190D02*
X200357752Y-71023809D01*
X200357752Y-71023809D02*
X200395847Y-70947619D01*
X200395847Y-70947619D02*
X200433942Y-70909524D01*
X200433942Y-70909524D02*
X200510133Y-70871428D01*
X200510133Y-70871428D02*
X200662514Y-70871428D01*
X200662514Y-70871428D02*
X200738704Y-70909524D01*
X200738704Y-70909524D02*
X200776800Y-70947619D01*
X200776800Y-70947619D02*
X200814895Y-71023809D01*
X200814895Y-71023809D02*
X200814895Y-71176190D01*
X200814895Y-71176190D02*
X200776800Y-71252381D01*
X200776800Y-71252381D02*
X200738704Y-71290476D01*
X200738704Y-71290476D02*
X200662514Y-71328571D01*
X200662514Y-71328571D02*
X200510133Y-71328571D01*
X200510133Y-71328571D02*
X200433942Y-71290476D01*
X200433942Y-71290476D02*
X200395847Y-71252381D01*
X200395847Y-71252381D02*
X200357752Y-71176190D01*
X188866666Y-69824895D02*
X188866666Y-70396323D01*
X188866666Y-70396323D02*
X188904761Y-70510609D01*
X188904761Y-70510609D02*
X188980952Y-70586800D01*
X188980952Y-70586800D02*
X189095237Y-70624895D01*
X189095237Y-70624895D02*
X189171428Y-70624895D01*
X188447618Y-70624895D02*
X188295237Y-70624895D01*
X188295237Y-70624895D02*
X188219047Y-70586800D01*
X188219047Y-70586800D02*
X188180951Y-70548704D01*
X188180951Y-70548704D02*
X188104761Y-70434419D01*
X188104761Y-70434419D02*
X188066666Y-70282038D01*
X188066666Y-70282038D02*
X188066666Y-69977276D01*
X188066666Y-69977276D02*
X188104761Y-69901085D01*
X188104761Y-69901085D02*
X188142856Y-69862990D01*
X188142856Y-69862990D02*
X188219047Y-69824895D01*
X188219047Y-69824895D02*
X188371428Y-69824895D01*
X188371428Y-69824895D02*
X188447618Y-69862990D01*
X188447618Y-69862990D02*
X188485713Y-69901085D01*
X188485713Y-69901085D02*
X188523809Y-69977276D01*
X188523809Y-69977276D02*
X188523809Y-70167752D01*
X188523809Y-70167752D02*
X188485713Y-70243942D01*
X188485713Y-70243942D02*
X188447618Y-70282038D01*
X188447618Y-70282038D02*
X188371428Y-70320133D01*
X188371428Y-70320133D02*
X188219047Y-70320133D01*
X188219047Y-70320133D02*
X188142856Y-70282038D01*
X188142856Y-70282038D02*
X188104761Y-70243942D01*
X188104761Y-70243942D02*
X188066666Y-70167752D01*
X207433332Y-73088704D02*
X207471428Y-73126800D01*
X207471428Y-73126800D02*
X207585713Y-73164895D01*
X207585713Y-73164895D02*
X207661904Y-73164895D01*
X207661904Y-73164895D02*
X207776190Y-73126800D01*
X207776190Y-73126800D02*
X207852380Y-73050609D01*
X207852380Y-73050609D02*
X207890475Y-72974419D01*
X207890475Y-72974419D02*
X207928571Y-72822038D01*
X207928571Y-72822038D02*
X207928571Y-72707752D01*
X207928571Y-72707752D02*
X207890475Y-72555371D01*
X207890475Y-72555371D02*
X207852380Y-72479180D01*
X207852380Y-72479180D02*
X207776190Y-72402990D01*
X207776190Y-72402990D02*
X207661904Y-72364895D01*
X207661904Y-72364895D02*
X207585713Y-72364895D01*
X207585713Y-72364895D02*
X207471428Y-72402990D01*
X207471428Y-72402990D02*
X207433332Y-72441085D01*
X207166666Y-72364895D02*
X206633332Y-72364895D01*
X206633332Y-72364895D02*
X206976190Y-73164895D01*
X187264895Y-77566667D02*
X186883942Y-77300000D01*
X187264895Y-77109524D02*
X186464895Y-77109524D01*
X186464895Y-77109524D02*
X186464895Y-77414286D01*
X186464895Y-77414286D02*
X186502990Y-77490476D01*
X186502990Y-77490476D02*
X186541085Y-77528571D01*
X186541085Y-77528571D02*
X186617276Y-77566667D01*
X186617276Y-77566667D02*
X186731561Y-77566667D01*
X186731561Y-77566667D02*
X186807752Y-77528571D01*
X186807752Y-77528571D02*
X186845847Y-77490476D01*
X186845847Y-77490476D02*
X186883942Y-77414286D01*
X186883942Y-77414286D02*
X186883942Y-77109524D01*
X187264895Y-78328571D02*
X187264895Y-77871428D01*
X187264895Y-78100000D02*
X186464895Y-78100000D01*
X186464895Y-78100000D02*
X186579180Y-78023809D01*
X186579180Y-78023809D02*
X186655371Y-77947619D01*
X186655371Y-77947619D02*
X186693466Y-77871428D01*
X196214895Y-70385714D02*
X195833942Y-70119047D01*
X196214895Y-69928571D02*
X195414895Y-69928571D01*
X195414895Y-69928571D02*
X195414895Y-70233333D01*
X195414895Y-70233333D02*
X195452990Y-70309523D01*
X195452990Y-70309523D02*
X195491085Y-70347618D01*
X195491085Y-70347618D02*
X195567276Y-70385714D01*
X195567276Y-70385714D02*
X195681561Y-70385714D01*
X195681561Y-70385714D02*
X195757752Y-70347618D01*
X195757752Y-70347618D02*
X195795847Y-70309523D01*
X195795847Y-70309523D02*
X195833942Y-70233333D01*
X195833942Y-70233333D02*
X195833942Y-69928571D01*
X196214895Y-71147618D02*
X196214895Y-70690475D01*
X196214895Y-70919047D02*
X195414895Y-70919047D01*
X195414895Y-70919047D02*
X195529180Y-70842856D01*
X195529180Y-70842856D02*
X195605371Y-70766666D01*
X195605371Y-70766666D02*
X195643466Y-70690475D01*
X195414895Y-71414285D02*
X195414895Y-71909523D01*
X195414895Y-71909523D02*
X195719657Y-71642857D01*
X195719657Y-71642857D02*
X195719657Y-71757142D01*
X195719657Y-71757142D02*
X195757752Y-71833333D01*
X195757752Y-71833333D02*
X195795847Y-71871428D01*
X195795847Y-71871428D02*
X195872038Y-71909523D01*
X195872038Y-71909523D02*
X196062514Y-71909523D01*
X196062514Y-71909523D02*
X196138704Y-71871428D01*
X196138704Y-71871428D02*
X196176800Y-71833333D01*
X196176800Y-71833333D02*
X196214895Y-71757142D01*
X196214895Y-71757142D02*
X196214895Y-71528571D01*
X196214895Y-71528571D02*
X196176800Y-71452380D01*
X196176800Y-71452380D02*
X196138704Y-71414285D01*
X165366666Y-69714895D02*
X165366666Y-70286323D01*
X165366666Y-70286323D02*
X165404761Y-70400609D01*
X165404761Y-70400609D02*
X165480952Y-70476800D01*
X165480952Y-70476800D02*
X165595237Y-70514895D01*
X165595237Y-70514895D02*
X165671428Y-70514895D01*
X164871428Y-70057752D02*
X164947618Y-70019657D01*
X164947618Y-70019657D02*
X164985713Y-69981561D01*
X164985713Y-69981561D02*
X165023809Y-69905371D01*
X165023809Y-69905371D02*
X165023809Y-69867276D01*
X165023809Y-69867276D02*
X164985713Y-69791085D01*
X164985713Y-69791085D02*
X164947618Y-69752990D01*
X164947618Y-69752990D02*
X164871428Y-69714895D01*
X164871428Y-69714895D02*
X164719047Y-69714895D01*
X164719047Y-69714895D02*
X164642856Y-69752990D01*
X164642856Y-69752990D02*
X164604761Y-69791085D01*
X164604761Y-69791085D02*
X164566666Y-69867276D01*
X164566666Y-69867276D02*
X164566666Y-69905371D01*
X164566666Y-69905371D02*
X164604761Y-69981561D01*
X164604761Y-69981561D02*
X164642856Y-70019657D01*
X164642856Y-70019657D02*
X164719047Y-70057752D01*
X164719047Y-70057752D02*
X164871428Y-70057752D01*
X164871428Y-70057752D02*
X164947618Y-70095847D01*
X164947618Y-70095847D02*
X164985713Y-70133942D01*
X164985713Y-70133942D02*
X165023809Y-70210133D01*
X165023809Y-70210133D02*
X165023809Y-70362514D01*
X165023809Y-70362514D02*
X164985713Y-70438704D01*
X164985713Y-70438704D02*
X164947618Y-70476800D01*
X164947618Y-70476800D02*
X164871428Y-70514895D01*
X164871428Y-70514895D02*
X164719047Y-70514895D01*
X164719047Y-70514895D02*
X164642856Y-70476800D01*
X164642856Y-70476800D02*
X164604761Y-70438704D01*
X164604761Y-70438704D02*
X164566666Y-70362514D01*
X164566666Y-70362514D02*
X164566666Y-70210133D01*
X164566666Y-70210133D02*
X164604761Y-70133942D01*
X164604761Y-70133942D02*
X164642856Y-70095847D01*
X164642856Y-70095847D02*
X164719047Y-70057752D01*
X209259523Y-83464895D02*
X209259523Y-84112514D01*
X209259523Y-84112514D02*
X209221428Y-84188704D01*
X209221428Y-84188704D02*
X209183333Y-84226800D01*
X209183333Y-84226800D02*
X209107142Y-84264895D01*
X209107142Y-84264895D02*
X208954761Y-84264895D01*
X208954761Y-84264895D02*
X208878571Y-84226800D01*
X208878571Y-84226800D02*
X208840476Y-84188704D01*
X208840476Y-84188704D02*
X208802380Y-84112514D01*
X208802380Y-84112514D02*
X208802380Y-83464895D01*
X208459524Y-83541085D02*
X208421428Y-83502990D01*
X208421428Y-83502990D02*
X208345238Y-83464895D01*
X208345238Y-83464895D02*
X208154762Y-83464895D01*
X208154762Y-83464895D02*
X208078571Y-83502990D01*
X208078571Y-83502990D02*
X208040476Y-83541085D01*
X208040476Y-83541085D02*
X208002381Y-83617276D01*
X208002381Y-83617276D02*
X208002381Y-83693466D01*
X208002381Y-83693466D02*
X208040476Y-83807752D01*
X208040476Y-83807752D02*
X208497619Y-84264895D01*
X208497619Y-84264895D02*
X208002381Y-84264895D01*
X185864285Y-81384895D02*
X186130952Y-81003942D01*
X186321428Y-81384895D02*
X186321428Y-80584895D01*
X186321428Y-80584895D02*
X186016666Y-80584895D01*
X186016666Y-80584895D02*
X185940476Y-80622990D01*
X185940476Y-80622990D02*
X185902381Y-80661085D01*
X185902381Y-80661085D02*
X185864285Y-80737276D01*
X185864285Y-80737276D02*
X185864285Y-80851561D01*
X185864285Y-80851561D02*
X185902381Y-80927752D01*
X185902381Y-80927752D02*
X185940476Y-80965847D01*
X185940476Y-80965847D02*
X186016666Y-81003942D01*
X186016666Y-81003942D02*
X186321428Y-81003942D01*
X185102381Y-81384895D02*
X185559524Y-81384895D01*
X185330952Y-81384895D02*
X185330952Y-80584895D01*
X185330952Y-80584895D02*
X185407143Y-80699180D01*
X185407143Y-80699180D02*
X185483333Y-80775371D01*
X185483333Y-80775371D02*
X185559524Y-80813466D01*
X184797619Y-80661085D02*
X184759523Y-80622990D01*
X184759523Y-80622990D02*
X184683333Y-80584895D01*
X184683333Y-80584895D02*
X184492857Y-80584895D01*
X184492857Y-80584895D02*
X184416666Y-80622990D01*
X184416666Y-80622990D02*
X184378571Y-80661085D01*
X184378571Y-80661085D02*
X184340476Y-80737276D01*
X184340476Y-80737276D02*
X184340476Y-80813466D01*
X184340476Y-80813466D02*
X184378571Y-80927752D01*
X184378571Y-80927752D02*
X184835714Y-81384895D01*
X184835714Y-81384895D02*
X184340476Y-81384895D01*
X176836666Y-69774895D02*
X176836666Y-70346323D01*
X176836666Y-70346323D02*
X176874761Y-70460609D01*
X176874761Y-70460609D02*
X176950952Y-70536800D01*
X176950952Y-70536800D02*
X177065237Y-70574895D01*
X177065237Y-70574895D02*
X177141428Y-70574895D01*
X176531904Y-69774895D02*
X176036666Y-69774895D01*
X176036666Y-69774895D02*
X176303332Y-70079657D01*
X176303332Y-70079657D02*
X176189047Y-70079657D01*
X176189047Y-70079657D02*
X176112856Y-70117752D01*
X176112856Y-70117752D02*
X176074761Y-70155847D01*
X176074761Y-70155847D02*
X176036666Y-70232038D01*
X176036666Y-70232038D02*
X176036666Y-70422514D01*
X176036666Y-70422514D02*
X176074761Y-70498704D01*
X176074761Y-70498704D02*
X176112856Y-70536800D01*
X176112856Y-70536800D02*
X176189047Y-70574895D01*
X176189047Y-70574895D02*
X176417618Y-70574895D01*
X176417618Y-70574895D02*
X176493809Y-70536800D01*
X176493809Y-70536800D02*
X176531904Y-70498704D01*
X177183332Y-72038704D02*
X177221428Y-72076800D01*
X177221428Y-72076800D02*
X177335713Y-72114895D01*
X177335713Y-72114895D02*
X177411904Y-72114895D01*
X177411904Y-72114895D02*
X177526190Y-72076800D01*
X177526190Y-72076800D02*
X177602380Y-72000609D01*
X177602380Y-72000609D02*
X177640475Y-71924419D01*
X177640475Y-71924419D02*
X177678571Y-71772038D01*
X177678571Y-71772038D02*
X177678571Y-71657752D01*
X177678571Y-71657752D02*
X177640475Y-71505371D01*
X177640475Y-71505371D02*
X177602380Y-71429180D01*
X177602380Y-71429180D02*
X177526190Y-71352990D01*
X177526190Y-71352990D02*
X177411904Y-71314895D01*
X177411904Y-71314895D02*
X177335713Y-71314895D01*
X177335713Y-71314895D02*
X177221428Y-71352990D01*
X177221428Y-71352990D02*
X177183332Y-71391085D01*
X176421428Y-72114895D02*
X176878571Y-72114895D01*
X176649999Y-72114895D02*
X176649999Y-71314895D01*
X176649999Y-71314895D02*
X176726190Y-71429180D01*
X176726190Y-71429180D02*
X176802380Y-71505371D01*
X176802380Y-71505371D02*
X176878571Y-71543466D01*
X203967619Y-69664895D02*
X203967619Y-70236323D01*
X203967619Y-70236323D02*
X204005714Y-70350609D01*
X204005714Y-70350609D02*
X204081905Y-70426800D01*
X204081905Y-70426800D02*
X204196190Y-70464895D01*
X204196190Y-70464895D02*
X204272381Y-70464895D01*
X203167619Y-70464895D02*
X203624762Y-70464895D01*
X203396190Y-70464895D02*
X203396190Y-69664895D01*
X203396190Y-69664895D02*
X203472381Y-69779180D01*
X203472381Y-69779180D02*
X203548571Y-69855371D01*
X203548571Y-69855371D02*
X203624762Y-69893466D01*
X202405714Y-70464895D02*
X202862857Y-70464895D01*
X202634285Y-70464895D02*
X202634285Y-69664895D01*
X202634285Y-69664895D02*
X202710476Y-69779180D01*
X202710476Y-69779180D02*
X202786666Y-69855371D01*
X202786666Y-69855371D02*
X202862857Y-69893466D01*
X168691667Y-78526800D02*
X168577381Y-78564895D01*
X168577381Y-78564895D02*
X168386905Y-78564895D01*
X168386905Y-78564895D02*
X168310714Y-78526800D01*
X168310714Y-78526800D02*
X168272619Y-78488704D01*
X168272619Y-78488704D02*
X168234524Y-78412514D01*
X168234524Y-78412514D02*
X168234524Y-78336323D01*
X168234524Y-78336323D02*
X168272619Y-78260133D01*
X168272619Y-78260133D02*
X168310714Y-78222038D01*
X168310714Y-78222038D02*
X168386905Y-78183942D01*
X168386905Y-78183942D02*
X168539286Y-78145847D01*
X168539286Y-78145847D02*
X168615476Y-78107752D01*
X168615476Y-78107752D02*
X168653571Y-78069657D01*
X168653571Y-78069657D02*
X168691667Y-77993466D01*
X168691667Y-77993466D02*
X168691667Y-77917276D01*
X168691667Y-77917276D02*
X168653571Y-77841085D01*
X168653571Y-77841085D02*
X168615476Y-77802990D01*
X168615476Y-77802990D02*
X168539286Y-77764895D01*
X168539286Y-77764895D02*
X168348809Y-77764895D01*
X168348809Y-77764895D02*
X168234524Y-77802990D01*
X167967857Y-77764895D02*
X167777381Y-78564895D01*
X167777381Y-78564895D02*
X167625000Y-77993466D01*
X167625000Y-77993466D02*
X167472619Y-78564895D01*
X167472619Y-78564895D02*
X167282143Y-77764895D01*
X166558333Y-78564895D02*
X167015476Y-78564895D01*
X166786904Y-78564895D02*
X166786904Y-77764895D01*
X166786904Y-77764895D02*
X166863095Y-77879180D01*
X166863095Y-77879180D02*
X166939285Y-77955371D01*
X166939285Y-77955371D02*
X167015476Y-77993466D01*
X190079895Y-87162380D02*
X190651323Y-87162380D01*
X190651323Y-87162380D02*
X190765609Y-87124285D01*
X190765609Y-87124285D02*
X190841800Y-87048094D01*
X190841800Y-87048094D02*
X190879895Y-86933809D01*
X190879895Y-86933809D02*
X190879895Y-86857618D01*
X190879895Y-87962380D02*
X190879895Y-87505237D01*
X190879895Y-87733809D02*
X190079895Y-87733809D01*
X190079895Y-87733809D02*
X190194180Y-87657618D01*
X190194180Y-87657618D02*
X190270371Y-87581428D01*
X190270371Y-87581428D02*
X190308466Y-87505237D01*
X190079895Y-88229047D02*
X190079895Y-88724285D01*
X190079895Y-88724285D02*
X190384657Y-88457619D01*
X190384657Y-88457619D02*
X190384657Y-88571904D01*
X190384657Y-88571904D02*
X190422752Y-88648095D01*
X190422752Y-88648095D02*
X190460847Y-88686190D01*
X190460847Y-88686190D02*
X190537038Y-88724285D01*
X190537038Y-88724285D02*
X190727514Y-88724285D01*
X190727514Y-88724285D02*
X190803704Y-88686190D01*
X190803704Y-88686190D02*
X190841800Y-88648095D01*
X190841800Y-88648095D02*
X190879895Y-88571904D01*
X190879895Y-88571904D02*
X190879895Y-88343333D01*
X190879895Y-88343333D02*
X190841800Y-88267142D01*
X190841800Y-88267142D02*
X190803704Y-88229047D01*
X205688704Y-78929167D02*
X205726800Y-78891071D01*
X205726800Y-78891071D02*
X205764895Y-78776786D01*
X205764895Y-78776786D02*
X205764895Y-78700595D01*
X205764895Y-78700595D02*
X205726800Y-78586309D01*
X205726800Y-78586309D02*
X205650609Y-78510119D01*
X205650609Y-78510119D02*
X205574419Y-78472024D01*
X205574419Y-78472024D02*
X205422038Y-78433928D01*
X205422038Y-78433928D02*
X205307752Y-78433928D01*
X205307752Y-78433928D02*
X205155371Y-78472024D01*
X205155371Y-78472024D02*
X205079180Y-78510119D01*
X205079180Y-78510119D02*
X205002990Y-78586309D01*
X205002990Y-78586309D02*
X204964895Y-78700595D01*
X204964895Y-78700595D02*
X204964895Y-78776786D01*
X204964895Y-78776786D02*
X205002990Y-78891071D01*
X205002990Y-78891071D02*
X205041085Y-78929167D01*
X205231561Y-79614881D02*
X205764895Y-79614881D01*
X204926800Y-79424405D02*
X205498228Y-79233928D01*
X205498228Y-79233928D02*
X205498228Y-79729167D01*
D13*
X142003152Y-73741666D02*
X142717437Y-73741666D01*
X142717437Y-73741666D02*
X142860294Y-73694047D01*
X142860294Y-73694047D02*
X142955533Y-73598809D01*
X142955533Y-73598809D02*
X143003152Y-73455952D01*
X143003152Y-73455952D02*
X143003152Y-73360714D01*
X142336485Y-74646428D02*
X143003152Y-74646428D01*
X141955533Y-74408333D02*
X142669818Y-74170238D01*
X142669818Y-74170238D02*
X142669818Y-74789285D01*
X144723033Y-73628571D02*
X144723033Y-74771429D01*
X144723529Y-86615029D02*
X144723529Y-87757887D01*
X145294957Y-87186458D02*
X144152100Y-87186458D01*
D10*
X163038704Y-86316667D02*
X163076800Y-86278571D01*
X163076800Y-86278571D02*
X163114895Y-86164286D01*
X163114895Y-86164286D02*
X163114895Y-86088095D01*
X163114895Y-86088095D02*
X163076800Y-85973809D01*
X163076800Y-85973809D02*
X163000609Y-85897619D01*
X163000609Y-85897619D02*
X162924419Y-85859524D01*
X162924419Y-85859524D02*
X162772038Y-85821428D01*
X162772038Y-85821428D02*
X162657752Y-85821428D01*
X162657752Y-85821428D02*
X162505371Y-85859524D01*
X162505371Y-85859524D02*
X162429180Y-85897619D01*
X162429180Y-85897619D02*
X162352990Y-85973809D01*
X162352990Y-85973809D02*
X162314895Y-86088095D01*
X162314895Y-86088095D02*
X162314895Y-86164286D01*
X162314895Y-86164286D02*
X162352990Y-86278571D01*
X162352990Y-86278571D02*
X162391085Y-86316667D01*
X162314895Y-87040476D02*
X162314895Y-86659524D01*
X162314895Y-86659524D02*
X162695847Y-86621428D01*
X162695847Y-86621428D02*
X162657752Y-86659524D01*
X162657752Y-86659524D02*
X162619657Y-86735714D01*
X162619657Y-86735714D02*
X162619657Y-86926190D01*
X162619657Y-86926190D02*
X162657752Y-87002381D01*
X162657752Y-87002381D02*
X162695847Y-87040476D01*
X162695847Y-87040476D02*
X162772038Y-87078571D01*
X162772038Y-87078571D02*
X162962514Y-87078571D01*
X162962514Y-87078571D02*
X163038704Y-87040476D01*
X163038704Y-87040476D02*
X163076800Y-87002381D01*
X163076800Y-87002381D02*
X163114895Y-86926190D01*
X163114895Y-86926190D02*
X163114895Y-86735714D01*
X163114895Y-86735714D02*
X163076800Y-86659524D01*
X163076800Y-86659524D02*
X163038704Y-86621428D01*
X168857419Y-80138095D02*
X168857419Y-80709523D01*
X169857419Y-80423809D02*
X168857419Y-80423809D01*
X169857419Y-81042857D02*
X168857419Y-81042857D01*
X168857419Y-81042857D02*
X168857419Y-81423809D01*
X168857419Y-81423809D02*
X168905038Y-81519047D01*
X168905038Y-81519047D02*
X168952657Y-81566666D01*
X168952657Y-81566666D02*
X169047895Y-81614285D01*
X169047895Y-81614285D02*
X169190752Y-81614285D01*
X169190752Y-81614285D02*
X169285990Y-81566666D01*
X169285990Y-81566666D02*
X169333609Y-81519047D01*
X169333609Y-81519047D02*
X169381228Y-81423809D01*
X169381228Y-81423809D02*
X169381228Y-81042857D01*
X169857419Y-82566666D02*
X169857419Y-81995238D01*
X169857419Y-82280952D02*
X168857419Y-82280952D01*
X168857419Y-82280952D02*
X169000276Y-82185714D01*
X169000276Y-82185714D02*
X169095514Y-82090476D01*
X169095514Y-82090476D02*
X169143133Y-81995238D01*
X182791085Y-87323809D02*
X182752990Y-87247619D01*
X182752990Y-87247619D02*
X182676800Y-87171428D01*
X182676800Y-87171428D02*
X182562514Y-87057142D01*
X182562514Y-87057142D02*
X182524419Y-86980952D01*
X182524419Y-86980952D02*
X182524419Y-86904761D01*
X182714895Y-86942857D02*
X182676800Y-86866666D01*
X182676800Y-86866666D02*
X182600609Y-86790476D01*
X182600609Y-86790476D02*
X182448228Y-86752380D01*
X182448228Y-86752380D02*
X182181561Y-86752380D01*
X182181561Y-86752380D02*
X182029180Y-86790476D01*
X182029180Y-86790476D02*
X181952990Y-86866666D01*
X181952990Y-86866666D02*
X181914895Y-86942857D01*
X181914895Y-86942857D02*
X181914895Y-87095238D01*
X181914895Y-87095238D02*
X181952990Y-87171428D01*
X181952990Y-87171428D02*
X182029180Y-87247619D01*
X182029180Y-87247619D02*
X182181561Y-87285714D01*
X182181561Y-87285714D02*
X182448228Y-87285714D01*
X182448228Y-87285714D02*
X182600609Y-87247619D01*
X182600609Y-87247619D02*
X182676800Y-87171428D01*
X182676800Y-87171428D02*
X182714895Y-87095238D01*
X182714895Y-87095238D02*
X182714895Y-86942857D01*
X181991085Y-87590475D02*
X181952990Y-87628571D01*
X181952990Y-87628571D02*
X181914895Y-87704761D01*
X181914895Y-87704761D02*
X181914895Y-87895237D01*
X181914895Y-87895237D02*
X181952990Y-87971428D01*
X181952990Y-87971428D02*
X181991085Y-88009523D01*
X181991085Y-88009523D02*
X182067276Y-88047618D01*
X182067276Y-88047618D02*
X182143466Y-88047618D01*
X182143466Y-88047618D02*
X182257752Y-88009523D01*
X182257752Y-88009523D02*
X182714895Y-87552380D01*
X182714895Y-87552380D02*
X182714895Y-88047618D01*
D13*
X122904819Y-73841666D02*
X123619104Y-73841666D01*
X123619104Y-73841666D02*
X123761961Y-73794047D01*
X123761961Y-73794047D02*
X123857200Y-73698809D01*
X123857200Y-73698809D02*
X123904819Y-73555952D01*
X123904819Y-73555952D02*
X123904819Y-73460714D01*
X122904819Y-74222619D02*
X122904819Y-74889285D01*
X122904819Y-74889285D02*
X123904819Y-74460714D01*
X126939700Y-73628571D02*
X126939700Y-74771429D01*
X126939700Y-86628571D02*
X126939700Y-87771429D01*
X127511128Y-87200000D02*
X126368271Y-87200000D01*
%TO.C,R11*%
D15*
X186622936Y-72440000D02*
X188077064Y-72440000D01*
X186622936Y-74260000D02*
X188077064Y-74260000D01*
%TO.C,Q1*%
X197040000Y-64540000D02*
X197040000Y-66060000D01*
X197040000Y-66060000D02*
X197090000Y-66060000D01*
X198040000Y-64540000D02*
X197040000Y-64540000D01*
X198210000Y-66060000D02*
X198990000Y-66060000D01*
X200110000Y-66060000D02*
X200160000Y-66060000D01*
X200160000Y-64540000D02*
X199160000Y-64540000D01*
X200160000Y-66060000D02*
X200160000Y-64540000D01*
X198980000Y-66600000D02*
X198650000Y-66360000D01*
X198650000Y-66840000D01*
X198980000Y-66600000D01*
G36*
X198980000Y-66600000D02*
G01*
X198650000Y-66840000D01*
X198650000Y-66360000D01*
X198980000Y-66600000D01*
G37*
%TO.C,R9*%
X197140000Y-69922936D02*
X197140000Y-71377064D01*
X198960000Y-69922936D02*
X198960000Y-71377064D01*
%TO.C,J2*%
X172420000Y-63130000D02*
X175180000Y-63130000D01*
X172420000Y-65780000D02*
X172420000Y-63130000D01*
X172420000Y-65780000D02*
X175180000Y-65780000D01*
X172420000Y-67050000D02*
X172420000Y-68430000D01*
X172420000Y-68430000D02*
X173800000Y-68430000D01*
X175180000Y-65780000D02*
X175180000Y-63130000D01*
%TO.C,R4*%
X171340000Y-87177064D02*
X171340000Y-85722936D01*
X173160000Y-87177064D02*
X173160000Y-85722936D01*
%TO.C,R5*%
X167540000Y-85710436D02*
X167540000Y-87164564D01*
X169360000Y-85710436D02*
X169360000Y-87164564D01*
%TO.C,J12*%
X191470000Y-100520000D02*
X191470000Y-101900000D01*
X192850000Y-100520000D02*
X191470000Y-100520000D01*
X194120000Y-100520000D02*
X194120000Y-103280000D01*
X194120000Y-100520000D02*
X206930000Y-100520000D01*
X194120000Y-103280000D02*
X206930000Y-103280000D01*
X206930000Y-100520000D02*
X206930000Y-103280000D01*
%TO.C,U1*%
X173890000Y-74890000D02*
X173890000Y-79010000D01*
X173890000Y-79010000D02*
X173970000Y-79010000D01*
X173970000Y-74890000D02*
X173890000Y-74890000D01*
X183930000Y-79010000D02*
X184010000Y-79010000D01*
X184010000Y-74890000D02*
X183930000Y-74890000D01*
X184010000Y-79010000D02*
X184010000Y-74890000D01*
X183940000Y-79610000D02*
X184270000Y-79850000D01*
X184270000Y-79370000D01*
X183940000Y-79610000D01*
G36*
X184270000Y-79850000D02*
G01*
X183940000Y-79610000D01*
X184270000Y-79370000D01*
X184270000Y-79850000D01*
G37*
%TO.C,R7*%
X163740000Y-87164564D02*
X163740000Y-85710436D01*
X165560000Y-87164564D02*
X165560000Y-85710436D01*
%TO.C,C3*%
X200805000Y-79773752D02*
X200805000Y-78351248D01*
X202625000Y-79773752D02*
X202625000Y-78351248D01*
%TO.C,J6*%
X133006667Y-77190000D02*
X133006667Y-85910000D01*
X133006667Y-85910000D02*
X138426667Y-85910000D01*
X134306667Y-75490000D02*
X133006667Y-77190000D01*
X134306667Y-75490000D02*
X137126667Y-75490000D01*
X137126667Y-75490000D02*
X138426667Y-77190000D01*
X138426667Y-77190000D02*
X138426667Y-85910000D01*
%TO.C,R6*%
X193540000Y-79819564D02*
X193540000Y-78365436D01*
X195360000Y-79819564D02*
X195360000Y-78365436D01*
%TO.C,C2*%
X197162500Y-79773752D02*
X197162500Y-78351248D01*
X198982500Y-79773752D02*
X198982500Y-78351248D01*
%TO.C,D3*%
X193960000Y-82125000D02*
X199470000Y-82125000D01*
X193960000Y-85425000D02*
X193960000Y-82125000D01*
X193960000Y-85425000D02*
X199470000Y-85425000D01*
%TO.C,D2*%
X190987500Y-72265000D02*
X195047500Y-72265000D01*
X195047500Y-72265000D02*
X195047500Y-74535000D01*
X195047500Y-74535000D02*
X190987500Y-74535000D01*
%TO.C,R2*%
X189940000Y-76972936D02*
X189940000Y-78427064D01*
X191760000Y-76972936D02*
X191760000Y-78427064D01*
%TO.C,J5*%
X150790000Y-77190000D02*
X150790000Y-85910000D01*
X150790000Y-85910000D02*
X156210000Y-85910000D01*
X152090000Y-75490000D02*
X150790000Y-77190000D01*
X152090000Y-75490000D02*
X154910000Y-75490000D01*
X154910000Y-75490000D02*
X156210000Y-77190000D01*
X156210000Y-77190000D02*
X156210000Y-85910000D01*
%TO.C,R3*%
X175140000Y-85722936D02*
X175140000Y-87177064D01*
X176960000Y-85722936D02*
X176960000Y-87177064D01*
%TO.C,R10*%
X179522936Y-81940000D02*
X180977064Y-81940000D01*
X179522936Y-83760000D02*
X180977064Y-83760000D01*
%TO.C,C6*%
X165061252Y-80790000D02*
X163638748Y-80790000D01*
X165061252Y-82610000D02*
X163638748Y-82610000D01*
%TO.C,R8*%
X199640000Y-71327064D02*
X199640000Y-69872936D01*
X201460000Y-71327064D02*
X201460000Y-69872936D01*
%TO.C,J9*%
X187400000Y-69350000D02*
X187400000Y-68100000D01*
X187700000Y-66800000D02*
X188450000Y-66800000D01*
X188450000Y-63850000D02*
X191500000Y-63850000D01*
X188450000Y-66800000D02*
X188450000Y-63850000D01*
X188650000Y-69350000D02*
X187400000Y-69350000D01*
X194550000Y-63850000D02*
X191500000Y-63850000D01*
X194550000Y-66800000D02*
X194550000Y-63850000D01*
X195300000Y-66800000D02*
X194550000Y-66800000D01*
X187690000Y-63090000D02*
X195310000Y-63090000D01*
X195310000Y-69060000D01*
X187690000Y-69060000D01*
X187690000Y-63090000D01*
X187700000Y-68300000D02*
X189500000Y-68300000D01*
X189500000Y-69050000D01*
X187700000Y-69050000D01*
X187700000Y-68300000D01*
X191000000Y-68300000D02*
X192000000Y-68300000D01*
X192000000Y-69050000D01*
X191000000Y-69050000D01*
X191000000Y-68300000D01*
X193500000Y-68300000D02*
X195300000Y-68300000D01*
X195300000Y-69050000D01*
X193500000Y-69050000D01*
X193500000Y-68300000D01*
%TO.C,C7*%
X206588748Y-71790000D02*
X208011252Y-71790000D01*
X206588748Y-73610000D02*
X208011252Y-73610000D01*
%TO.C,R1*%
X186040000Y-76972936D02*
X186040000Y-78427064D01*
X187860000Y-76972936D02*
X187860000Y-78427064D01*
%TO.C,R13*%
X191822936Y-69995000D02*
X193277064Y-69995000D01*
X191822936Y-71815000D02*
X193277064Y-71815000D01*
%TO.C,J8*%
X158500000Y-69350000D02*
X158500000Y-68100000D01*
X158800000Y-66800000D02*
X159550000Y-66800000D01*
X159550000Y-63850000D02*
X165100000Y-63850000D01*
X159550000Y-66800000D02*
X159550000Y-63850000D01*
X159750000Y-69350000D02*
X158500000Y-69350000D01*
X170650000Y-63850000D02*
X165100000Y-63850000D01*
X170650000Y-66800000D02*
X170650000Y-63850000D01*
X171400000Y-66800000D02*
X170650000Y-66800000D01*
X158790000Y-63090000D02*
X171410000Y-63090000D01*
X171410000Y-69060000D01*
X158790000Y-69060000D01*
X158790000Y-63090000D01*
X158800000Y-68300000D02*
X160600000Y-68300000D01*
X160600000Y-69050000D01*
X158800000Y-69050000D01*
X158800000Y-68300000D01*
X162100000Y-68300000D02*
X168100000Y-68300000D01*
X168100000Y-69050000D01*
X162100000Y-69050000D01*
X162100000Y-68300000D01*
X169600000Y-68300000D02*
X171400000Y-68300000D01*
X171400000Y-69050000D01*
X169600000Y-69050000D01*
X169600000Y-68300000D01*
%TO.C,U2*%
D10*
X204486000Y-82350000D02*
X204486000Y-82500000D01*
X204486000Y-83400000D02*
X204486000Y-83450000D01*
X204486000Y-84350000D02*
X204486000Y-84400000D01*
X204486000Y-85300000D02*
X204486000Y-85450000D01*
X206286000Y-82350000D02*
X204486000Y-82350000D01*
X206286000Y-82350000D02*
X206286000Y-82500000D01*
X206286000Y-83400000D02*
X206286000Y-84400000D01*
X206286000Y-85300000D02*
X206286000Y-85450000D01*
X206286000Y-85450000D02*
X204486000Y-85450000D01*
D16*
X204016000Y-85350000D02*
G75*
G02*
X203956000Y-85350000I-30000J0D01*
G01*
X203956000Y-85350000D02*
G75*
G02*
X204016000Y-85350000I30000J0D01*
G01*
D17*
%TO.C,R12*%
D15*
X186077064Y-81940000D02*
X184622936Y-81940000D01*
X186077064Y-83760000D02*
X184622936Y-83760000D01*
%TO.C,J3*%
X175900000Y-69350000D02*
X175900000Y-68100000D01*
X176200000Y-66800000D02*
X176950000Y-66800000D01*
X176950000Y-63850000D02*
X181250000Y-63850000D01*
X176950000Y-66800000D02*
X176950000Y-63850000D01*
X177150000Y-69350000D02*
X175900000Y-69350000D01*
X185550000Y-63850000D02*
X181250000Y-63850000D01*
X185550000Y-66800000D02*
X185550000Y-63850000D01*
X186300000Y-66800000D02*
X185550000Y-66800000D01*
X176190000Y-63090000D02*
X186310000Y-63090000D01*
X186310000Y-69060000D01*
X176190000Y-69060000D01*
X176190000Y-63090000D01*
X176200000Y-68300000D02*
X178000000Y-68300000D01*
X178000000Y-69050000D01*
X176200000Y-69050000D01*
X176200000Y-68300000D01*
X179500000Y-68300000D02*
X183000000Y-68300000D01*
X183000000Y-69050000D01*
X179500000Y-69050000D01*
X179500000Y-68300000D01*
X184500000Y-68300000D02*
X186300000Y-68300000D01*
X186300000Y-69050000D01*
X184500000Y-69050000D01*
X184500000Y-68300000D01*
%TO.C,C1*%
X181311252Y-70740000D02*
X179888748Y-70740000D01*
X181311252Y-72560000D02*
X179888748Y-72560000D01*
%TO.C,J11*%
X202400000Y-69275000D02*
X202400000Y-68025000D01*
X202700000Y-66725000D02*
X203450000Y-66725000D01*
X203450000Y-63775000D02*
X206500000Y-63775000D01*
X203450000Y-66725000D02*
X203450000Y-63775000D01*
X203650000Y-69275000D02*
X202400000Y-69275000D01*
X209550000Y-63775000D02*
X206500000Y-63775000D01*
X209550000Y-66725000D02*
X209550000Y-63775000D01*
X210300000Y-66725000D02*
X209550000Y-66725000D01*
X202690000Y-63015000D02*
X210310000Y-63015000D01*
X210310000Y-68985000D01*
X202690000Y-68985000D01*
X202690000Y-63015000D01*
X202700000Y-68225000D02*
X204500000Y-68225000D01*
X204500000Y-68975000D01*
X202700000Y-68975000D01*
X202700000Y-68225000D01*
X206000000Y-68225000D02*
X207000000Y-68225000D01*
X207000000Y-68975000D01*
X206000000Y-68975000D01*
X206000000Y-68225000D01*
X208500000Y-68225000D02*
X210300000Y-68225000D01*
X210300000Y-68975000D01*
X208500000Y-68975000D01*
X208500000Y-68225000D01*
%TO.C,SW1*%
D18*
X165381272Y-73737000D02*
X165381272Y-73897048D01*
X165381272Y-77214747D02*
X165381272Y-77054699D01*
X169414728Y-73737000D02*
X165381272Y-73737000D01*
X169414728Y-73897048D02*
X169414728Y-73737000D01*
X169414728Y-77054699D02*
X169414728Y-77214747D01*
X169414728Y-77214747D02*
X165381272Y-77214747D01*
%TO.C,J13*%
D15*
X191515000Y-86825000D02*
X191515000Y-88205000D01*
X192895000Y-86825000D02*
X191515000Y-86825000D01*
X194165000Y-86825000D02*
X194165000Y-89585000D01*
X194165000Y-86825000D02*
X206975000Y-86825000D01*
X194165000Y-89585000D02*
X206975000Y-89585000D01*
X206975000Y-86825000D02*
X206975000Y-89585000D01*
%TO.C,C4*%
X204447500Y-79773752D02*
X204447500Y-78351248D01*
X206267500Y-79773752D02*
X206267500Y-78351248D01*
%TO.C,J4*%
X141898333Y-77190000D02*
X141898333Y-85910000D01*
X141898333Y-85910000D02*
X147318333Y-85910000D01*
X143198333Y-75490000D02*
X141898333Y-77190000D01*
X143198333Y-75490000D02*
X146018333Y-75490000D01*
X146018333Y-75490000D02*
X147318333Y-77190000D01*
X147318333Y-77190000D02*
X147318333Y-85910000D01*
%TO.C,C5*%
X159840000Y-85738748D02*
X159840000Y-87161252D01*
X161660000Y-85738748D02*
X161660000Y-87161252D01*
%TO.C,TP1*%
X170400000Y-80700000D02*
X170400000Y-82100000D01*
X170400000Y-82100000D02*
X171800000Y-82100000D01*
X171800000Y-80700000D02*
X170400000Y-80700000D01*
X171800000Y-82100000D02*
X171800000Y-80700000D01*
%TO.C,Q2*%
X183190000Y-86640000D02*
X183190000Y-88160000D01*
X183190000Y-88160000D02*
X184190000Y-88160000D01*
X183240000Y-86640000D02*
X183190000Y-86640000D01*
X185140000Y-86640000D02*
X184360000Y-86640000D01*
X185310000Y-88160000D02*
X186310000Y-88160000D01*
X186310000Y-86640000D02*
X186260000Y-86640000D01*
X186310000Y-88160000D02*
X186310000Y-86640000D01*
X184370000Y-86100000D02*
X184700000Y-86340000D01*
X184700000Y-85860000D01*
X184370000Y-86100000D01*
G36*
X184700000Y-86340000D02*
G01*
X184370000Y-86100000D01*
X184700000Y-85860000D01*
X184700000Y-86340000D01*
G37*
%TO.C,J7*%
X124115000Y-77190000D02*
X124115000Y-85910000D01*
X124115000Y-85910000D02*
X129535000Y-85910000D01*
X125415000Y-75490000D02*
X124115000Y-77190000D01*
X125415000Y-75490000D02*
X128235000Y-75490000D01*
X128235000Y-75490000D02*
X129535000Y-77190000D01*
X129535000Y-77190000D02*
X129535000Y-85910000D01*
%TD*%
%LPC*%
D19*
%TO.C,J10*%
X209550000Y-80450000D03*
D20*
X209550000Y-77910000D03*
%TD*%
D21*
%TO.C,J1*%
X126798361Y-97948754D03*
X129338361Y-97948754D03*
X131878361Y-97948754D03*
X134418361Y-97948754D03*
X136958361Y-97948754D03*
X139498361Y-97948754D03*
X142038361Y-97948754D03*
X144578361Y-97948754D03*
X147118361Y-97948754D03*
X149658361Y-97948754D03*
X152198361Y-97948754D03*
X154738361Y-97948754D03*
X157278361Y-97948754D03*
X159818361Y-97948754D03*
X162358361Y-97948754D03*
X164898361Y-97948754D03*
X167438361Y-97948754D03*
X169978361Y-97948754D03*
X172518361Y-97948754D03*
X175058361Y-97948754D03*
X177598361Y-97948754D03*
X180138361Y-97948754D03*
X182678361Y-97948754D03*
X185218361Y-97948754D03*
X187758361Y-97948754D03*
X190298361Y-97948754D03*
X192838361Y-97948754D03*
X195378361Y-97948754D03*
X197918361Y-97948754D03*
X200458361Y-97948754D03*
X202998361Y-97948754D03*
X205538361Y-97948754D03*
X205538361Y-92868754D03*
X202998361Y-92868754D03*
X200458361Y-92868754D03*
X197918361Y-92868754D03*
X195378361Y-92868754D03*
X192838361Y-92868754D03*
X190298361Y-92868754D03*
X187758361Y-92868754D03*
X185218361Y-92868754D03*
X182678361Y-92868754D03*
X180138361Y-92868754D03*
X177598361Y-92868754D03*
X175058361Y-92868754D03*
X172518361Y-92868754D03*
X169978361Y-92868754D03*
X167438361Y-92868754D03*
X164898361Y-92868754D03*
X162358361Y-92868754D03*
X159818361Y-92868754D03*
X157278361Y-92868754D03*
X154738361Y-92868754D03*
X152198361Y-92868754D03*
X149658361Y-92868754D03*
X147118361Y-92868754D03*
X144578361Y-92868754D03*
X142038361Y-92868754D03*
X139498361Y-92868754D03*
X136958361Y-92868754D03*
X134418361Y-92868754D03*
X131878361Y-92868754D03*
X129338361Y-92868754D03*
X126798361Y-92868754D03*
%TD*%
D22*
%TO.C,R11*%
X185800000Y-73350000D03*
X188900000Y-73350000D03*
%TD*%
D23*
%TO.C,Q1*%
X199550000Y-66237500D03*
X197650000Y-66237500D03*
X198600000Y-64362500D03*
%TD*%
D24*
%TO.C,R9*%
X198050000Y-69100000D03*
X198050000Y-72200000D03*
%TD*%
D19*
%TO.C,J2*%
X173800000Y-67050000D03*
D20*
X173800000Y-64510000D03*
%TD*%
D25*
%TO.C,R4*%
X172250000Y-88000000D03*
X172250000Y-84900000D03*
%TD*%
D24*
%TO.C,R5*%
X168450000Y-84887500D03*
X168450000Y-87987500D03*
%TD*%
D19*
%TO.C,J12*%
X192850000Y-101900000D03*
D20*
X195390000Y-101900000D03*
X197930000Y-101900000D03*
X200470000Y-101900000D03*
X203010000Y-101900000D03*
X205550000Y-101900000D03*
%TD*%
D26*
%TO.C,U1*%
X183395000Y-79600000D03*
X182125000Y-79600000D03*
X180855000Y-79600000D03*
X179585000Y-79600000D03*
X178315000Y-79600000D03*
X177045000Y-79600000D03*
X175775000Y-79600000D03*
X174505000Y-79600000D03*
X174505000Y-74300000D03*
X175775000Y-74300000D03*
X177045000Y-74300000D03*
X178315000Y-74300000D03*
X179585000Y-74300000D03*
X180855000Y-74300000D03*
X182125000Y-74300000D03*
X183395000Y-74300000D03*
%TD*%
D25*
%TO.C,R7*%
X164650000Y-87987500D03*
X164650000Y-84887500D03*
%TD*%
D27*
%TO.C,C3*%
X201715000Y-80625000D03*
X201715000Y-77500000D03*
%TD*%
D28*
%TO.C,J6*%
X135716667Y-78200000D03*
D29*
X135716667Y-83200000D03*
%TD*%
D25*
%TO.C,R6*%
X194450000Y-80642500D03*
X194450000Y-77542500D03*
%TD*%
D27*
%TO.C,C2*%
X198072500Y-80625000D03*
X198072500Y-77500000D03*
%TD*%
D30*
%TO.C,D3*%
X195470000Y-83775000D03*
X199470000Y-83775000D03*
%TD*%
D31*
%TO.C,D2*%
X194075000Y-73400000D03*
X191100000Y-73400000D03*
%TD*%
D24*
%TO.C,R2*%
X190850000Y-76150000D03*
X190850000Y-79250000D03*
%TD*%
D28*
%TO.C,J5*%
X153500000Y-78200000D03*
D29*
X153500000Y-83200000D03*
%TD*%
D24*
%TO.C,R3*%
X176050000Y-84900000D03*
X176050000Y-88000000D03*
%TD*%
D22*
%TO.C,R10*%
X178700000Y-82850000D03*
X181800000Y-82850000D03*
%TD*%
D32*
%TO.C,C6*%
X165912500Y-81700000D03*
X162787500Y-81700000D03*
%TD*%
D25*
%TO.C,R8*%
X200550000Y-72150000D03*
X200550000Y-69050000D03*
%TD*%
D33*
%TO.C,J9*%
X190250000Y-66600000D03*
D34*
X192750000Y-66600000D03*
%TD*%
D35*
%TO.C,C7*%
X205737500Y-72700000D03*
X208862500Y-72700000D03*
%TD*%
D24*
%TO.C,R1*%
X186950000Y-76150000D03*
X186950000Y-79250000D03*
%TD*%
D22*
%TO.C,R13*%
X191000000Y-70905000D03*
X194100000Y-70905000D03*
%TD*%
D36*
%TO.C,J8*%
X161350000Y-66600000D03*
D37*
X163850000Y-66600000D03*
X166350000Y-66600000D03*
X168850000Y-66600000D03*
%TD*%
D38*
%TO.C,U2*%
X204086000Y-84850000D03*
X204086000Y-83900000D03*
X204086000Y-82950000D03*
X206686000Y-82950000D03*
X206686000Y-84850000D03*
%TD*%
D39*
%TO.C,R12*%
X186900000Y-82850000D03*
X183800000Y-82850000D03*
%TD*%
D36*
%TO.C,J3*%
X178750000Y-66600000D03*
D37*
X181250000Y-66600000D03*
X183750000Y-66600000D03*
%TD*%
D32*
%TO.C,C1*%
X182162500Y-71650000D03*
X179037500Y-71650000D03*
%TD*%
D33*
%TO.C,J11*%
X205250000Y-66525000D03*
D34*
X207750000Y-66525000D03*
%TD*%
D40*
%TO.C,SW1*%
X165425000Y-76175000D03*
X169425000Y-76175000D03*
X165425000Y-74675000D03*
X169425000Y-74675000D03*
%TD*%
D19*
%TO.C,J13*%
X192895000Y-88205000D03*
D20*
X195435000Y-88205000D03*
X197975000Y-88205000D03*
X200515000Y-88205000D03*
X203055000Y-88205000D03*
X205595000Y-88205000D03*
%TD*%
D27*
%TO.C,C4*%
X205357500Y-80625000D03*
X205357500Y-77500000D03*
%TD*%
D28*
%TO.C,J4*%
X144608333Y-78200000D03*
D29*
X144608333Y-83200000D03*
%TD*%
D41*
%TO.C,C5*%
X160750000Y-84887500D03*
X160750000Y-88012500D03*
%TD*%
D42*
%TO.C,TP1*%
X171100000Y-81400000D03*
%TD*%
D43*
%TO.C,Q2*%
X183800000Y-86462500D03*
X185700000Y-86462500D03*
X184750000Y-88337500D03*
%TD*%
D28*
%TO.C,J7*%
X126825000Y-78200000D03*
D29*
X126825000Y-83200000D03*
%TD*%
%LPD*%
M02*
