%TF.GenerationSoftware,KiCad,Pcbnew,10.0.2*%
%TF.CreationDate,2026-10-05T15:11:26+01:00*%
%TF.ProjectId,CSPS,43535053-2e6b-4696-9361-645f70636258,rev?*%
%TF.SameCoordinates,Original*%
%TF.FileFunction,Soldermask,Top*%
%TF.FilePolarity,Negative*%
%FSLAX46Y46*%
G04 Gerber Fmt 4.6, Leading zero omitted, Abs format (unit mm)*
G04 Created by KiCad (PCBNEW 10.0.2) date 2026-10-05 15:11:26*
%MOMM*%
%LPD*%
G01*
G04 APERTURE LIST*
G04 Aperture macros list*
%AMRoundRect*
0 Rectangle with rounded corners*
0 $1 Rounding radius*
0 $2 $3 $4 $5 $6 $7 $8 $9 X,Y pos of 4 corners*
0 Add a 4 corners polygon primitive as box body*
4,1,4,$2,$3,$4,$5,$6,$7,$8,$9,$2,$3,0*
0 Add four circle primitives for the rounded corners*
1,1,$1+$1,$2,$3*
1,1,$1+$1,$4,$5*
1,1,$1+$1,$6,$7*
1,1,$1+$1,$8,$9*
0 Add four rect primitives between the rounded corners*
20,1,$1+$1,$2,$3,$4,$5,0*
20,1,$1+$1,$4,$5,$6,$7,0*
20,1,$1+$1,$6,$7,$8,$9,0*
20,1,$1+$1,$8,$9,$2,$3,0*%
%AMFreePoly0*
4,1,23,0.500000,-0.750000,0.000000,-0.750000,0.000000,-0.745722,-0.065263,-0.745722,-0.191342,-0.711940,-0.304381,-0.646677,-0.396677,-0.554381,-0.461940,-0.441342,-0.495722,-0.315263,-0.495722,-0.250000,-0.500000,-0.250000,-0.500000,0.250000,-0.495722,0.250000,-0.495722,0.315263,-0.461940,0.441342,-0.396677,0.554381,-0.304381,0.646677,-0.191342,0.711940,-0.065263,0.745722,0.000000,0.745722,
0.000000,0.750000,0.500000,0.750000,0.500000,-0.750000,0.500000,-0.750000,$1*%
%AMFreePoly1*
4,1,23,0.000000,0.745722,0.065263,0.745722,0.191342,0.711940,0.304381,0.646677,0.396677,0.554381,0.461940,0.441342,0.495722,0.315263,0.495722,0.250000,0.500000,0.250000,0.500000,-0.250000,0.495722,-0.250000,0.495722,-0.315263,0.461940,-0.441342,0.396677,-0.554381,0.304381,-0.646677,0.191342,-0.711940,0.065263,-0.745722,0.000000,-0.745722,0.000000,-0.750000,-0.500000,-0.750000,
-0.500000,0.750000,0.000000,0.750000,0.000000,0.745722,0.000000,0.745722,$1*%
G04 Aperture macros list end*
%ADD10FreePoly0,270.000000*%
%ADD11FreePoly1,270.000000*%
%ADD12R,1.700000X1.700000*%
%ADD13C,1.700000*%
%ADD14C,1.500000*%
%ADD15RoundRect,0.760000X-1.140000X1.140000X-1.140000X-1.140000X1.140000X-1.140000X1.140000X1.140000X0*%
%ADD16C,3.800000*%
%ADD17RoundRect,0.250000X-0.600000X-0.750000X0.600000X-0.750000X0.600000X0.750000X-0.600000X0.750000X0*%
%ADD18O,1.700000X2.000000*%
%ADD19RoundRect,0.250000X-0.600000X-0.725000X0.600000X-0.725000X0.600000X0.725000X-0.600000X0.725000X0*%
%ADD20O,1.700000X1.950000*%
%ADD21R,1.000000X1.000000*%
G04 APERTURE END LIST*
%TO.C,JP1*%
G36*
X188900000Y-86800000D02*
G01*
X190400000Y-86800000D01*
X190400000Y-87100000D01*
X188900000Y-87100000D01*
X188900000Y-86800000D01*
G37*
%TO.C,JP2*%
G36*
X186050000Y-86800000D02*
G01*
X187550000Y-86800000D01*
X187550000Y-87100000D01*
X186050000Y-87100000D01*
X186050000Y-86800000D01*
G37*
%TD*%
D10*
%TO.C,JP1*%
X189650000Y-86300000D03*
D11*
X189650000Y-87600000D03*
%TD*%
D12*
%TO.C,J10*%
X209550000Y-80450000D03*
D13*
X209550000Y-77910000D03*
%TD*%
D10*
%TO.C,JP2*%
X186800000Y-86300000D03*
D11*
X186800000Y-87600000D03*
%TD*%
D14*
%TO.C,J1*%
X126798361Y-97948754D03*
X129338361Y-97948754D03*
X131878361Y-97948754D03*
X134418361Y-97948754D03*
X136958361Y-97948754D03*
X139498361Y-97948754D03*
X142038361Y-97948754D03*
X144578361Y-97948754D03*
X147118361Y-97948754D03*
X149658361Y-97948754D03*
X152198361Y-97948754D03*
X154738361Y-97948754D03*
X157278361Y-97948754D03*
X159818361Y-97948754D03*
X162358361Y-97948754D03*
X164898361Y-97948754D03*
X167438361Y-97948754D03*
X169978361Y-97948754D03*
X172518361Y-97948754D03*
X175058361Y-97948754D03*
X177598361Y-97948754D03*
X180138361Y-97948754D03*
X182678361Y-97948754D03*
X185218361Y-97948754D03*
X187758361Y-97948754D03*
X190298361Y-97948754D03*
X192838361Y-97948754D03*
X195378361Y-97948754D03*
X197918361Y-97948754D03*
X200458361Y-97948754D03*
X202998361Y-97948754D03*
X205538361Y-97948754D03*
X205538361Y-92868754D03*
X202998361Y-92868754D03*
X200458361Y-92868754D03*
X197918361Y-92868754D03*
X195378361Y-92868754D03*
X192838361Y-92868754D03*
X190298361Y-92868754D03*
X187758361Y-92868754D03*
X185218361Y-92868754D03*
X182678361Y-92868754D03*
X180138361Y-92868754D03*
X177598361Y-92868754D03*
X175058361Y-92868754D03*
X172518361Y-92868754D03*
X169978361Y-92868754D03*
X167438361Y-92868754D03*
X164898361Y-92868754D03*
X162358361Y-92868754D03*
X159818361Y-92868754D03*
X157278361Y-92868754D03*
X154738361Y-92868754D03*
X152198361Y-92868754D03*
X149658361Y-92868754D03*
X147118361Y-92868754D03*
X144578361Y-92868754D03*
X142038361Y-92868754D03*
X139498361Y-92868754D03*
X136958361Y-92868754D03*
X134418361Y-92868754D03*
X131878361Y-92868754D03*
X129338361Y-92868754D03*
X126798361Y-92868754D03*
%TD*%
D12*
%TO.C,J2*%
X173800000Y-67050000D03*
D13*
X173800000Y-64510000D03*
%TD*%
D12*
%TO.C,J12*%
X192850000Y-101900000D03*
D13*
X195390000Y-101900000D03*
X197930000Y-101900000D03*
X200470000Y-101900000D03*
X203010000Y-101900000D03*
X205550000Y-101900000D03*
%TD*%
D15*
%TO.C,J6*%
X135716667Y-78200000D03*
D16*
X135716667Y-83200000D03*
%TD*%
D15*
%TO.C,J5*%
X153500000Y-78200000D03*
D16*
X153500000Y-83200000D03*
%TD*%
D17*
%TO.C,J9*%
X190250000Y-66600000D03*
D18*
X192750000Y-66600000D03*
%TD*%
D19*
%TO.C,J8*%
X161350000Y-66600000D03*
D20*
X163850000Y-66600000D03*
X166350000Y-66600000D03*
X168850000Y-66600000D03*
%TD*%
D19*
%TO.C,J3*%
X178750000Y-66600000D03*
D20*
X181250000Y-66600000D03*
X183750000Y-66600000D03*
%TD*%
D17*
%TO.C,J11*%
X205250000Y-66525000D03*
D18*
X207750000Y-66525000D03*
%TD*%
D12*
%TO.C,J13*%
X192895000Y-88205000D03*
D13*
X195435000Y-88205000D03*
X197975000Y-88205000D03*
X200515000Y-88205000D03*
X203055000Y-88205000D03*
X205595000Y-88205000D03*
%TD*%
D15*
%TO.C,J4*%
X144608333Y-78200000D03*
D16*
X144608333Y-83200000D03*
%TD*%
D21*
%TO.C,TP1*%
X171100000Y-81400000D03*
%TD*%
D15*
%TO.C,J7*%
X126825000Y-78200000D03*
D16*
X126825000Y-83200000D03*
%TD*%
M02*
