M48
; DRILL file KiCad 10.0.2 date 2026-09-15T16:24:32
; FORMAT={-:-/ absolute / inch / decimal}
; #@! TF.CreationDate,2026-09-15T16:24:32+01:00
; #@! TF.GenerationSoftware,Kicad,Pcbnew,10.0.2
; #@! TF.FileFunction,Plated,1,2,PTH
FMAT,2
INCH
; #@! TA.AperFunction,Plated,PTH,ViaDrill
T1C0.0118
; #@! TA.AperFunction,Plated,PTH,ComponentDrill
T2C0.0197
; #@! TA.AperFunction,Plated,PTH,ComponentDrill
T3C0.0315
; #@! TA.AperFunction,Plated,PTH,ComponentDrill
T4C0.0374
; #@! TA.AperFunction,Plated,PTH,ComponentDrill
T5C0.0394
; #@! TA.AperFunction,Plated,PTH,ComponentDrill
T6C0.1063
%
G90
G05
T1
X4.8386Y-3.4449
X4.8386Y-3.5039
X4.8752Y-2.5098
X4.8752Y-2.5984
X4.8752Y-2.6831
X4.8752Y-2.7618
X4.8752Y-2.8445
X4.8976Y-3.4449
X4.8976Y-3.5039
X4.9388Y-2.5098
X4.9388Y-2.5984
X4.9388Y-2.6831
X4.9388Y-2.7618
X4.9388Y-2.8445
X4.9567Y-3.4449
X4.9567Y-3.5039
X5.0024Y-2.5098
X5.0024Y-2.5984
X5.0024Y-2.6831
X5.0024Y-2.7618
X5.0024Y-2.8445
X5.0157Y-3.4449
X5.0157Y-3.5039
X5.0661Y-2.5098
X5.0661Y-2.5984
X5.0661Y-2.6831
X5.0661Y-2.7618
X5.0661Y-2.8445
X5.0748Y-3.4449
X5.0748Y-3.5039
X5.1297Y-2.5098
X5.1297Y-2.5984
X5.1297Y-2.6831
X5.1297Y-2.7618
X5.1297Y-2.8445
X5.1339Y-3.4449
X5.1339Y-3.5039
X5.1929Y-3.4449
X5.1929Y-3.5039
X5.1933Y-2.5098
X5.1933Y-2.5984
X5.1933Y-2.6831
X5.1933Y-2.7618
X5.1933Y-2.8445
X5.252Y-3.4449
X5.252Y-3.5039
X5.2569Y-2.5098
X5.2569Y-2.5984
X5.2569Y-2.6831
X5.2569Y-2.7618
X5.2569Y-2.8445
X5.311Y-3.4449
X5.311Y-3.5039
X5.3205Y-2.5098
X5.3205Y-2.5984
X5.3205Y-2.6831
X5.3205Y-2.7618
X5.3205Y-2.8445
X5.3701Y-3.4449
X5.3701Y-3.5039
X5.3841Y-2.5098
X5.3841Y-2.5984
X5.3841Y-2.6831
X5.3841Y-2.7618
X5.3841Y-2.8445
X5.4291Y-3.4449
X5.4291Y-3.5039
X5.4477Y-2.5098
X5.4477Y-2.5984
X5.4477Y-2.6831
X5.4477Y-2.7618
X5.4477Y-2.8445
X5.5Y-3.4449
X5.5Y-3.5039
X5.5113Y-2.5098
X5.5113Y-2.5984
X5.5113Y-2.6831
X5.5113Y-2.7618
X5.5113Y-2.8445
X5.5591Y-3.4449
X5.5591Y-3.5039
X5.5749Y-2.5098
X5.5749Y-2.5984
X5.5749Y-2.6831
X5.5749Y-2.7618
X5.5749Y-2.8445
X5.6181Y-3.4449
X5.6181Y-3.5039
X5.6385Y-2.5098
X5.6385Y-2.5984
X5.6385Y-2.6831
X5.6385Y-2.7618
X5.6385Y-2.8445
X5.6772Y-3.4449
X5.6772Y-3.5039
X5.7021Y-2.5098
X5.7021Y-2.5984
X5.7021Y-2.6831
X5.7021Y-2.7618
X5.7021Y-2.8445
X5.7362Y-3.4449
X5.7362Y-3.5039
X5.7684Y-2.5098
X5.7684Y-2.5984
X5.7684Y-2.6831
X5.7684Y-2.7618
X5.7684Y-2.8445
X5.7953Y-3.4449
X5.7953Y-3.5039
X5.832Y-2.5098
X5.832Y-2.5984
X5.832Y-2.6831
X5.832Y-2.7618
X5.832Y-2.8445
X5.8543Y-3.4449
X5.8543Y-3.5039
X5.8956Y-2.5098
X5.8956Y-2.5984
X5.8956Y-2.6831
X5.8956Y-2.7618
X5.8956Y-2.8445
X5.9134Y-3.4449
X5.9134Y-3.5039
X5.9592Y-2.5098
X5.9592Y-2.5984
X5.9592Y-2.6831
X5.9592Y-2.7618
X5.9592Y-2.8445
X5.9724Y-3.4449
X5.9724Y-3.5039
X6.0228Y-2.5098
X6.0228Y-2.5984
X6.0228Y-2.6831
X6.0228Y-2.7618
X6.0228Y-2.8445
X6.0315Y-3.4449
X6.0315Y-3.5039
X6.0864Y-2.5098
X6.0864Y-2.5984
X6.0864Y-2.6831
X6.0864Y-2.7618
X6.0864Y-2.8445
X6.0906Y-3.4449
X6.0906Y-3.5039
X6.1496Y-3.4449
X6.1496Y-3.5039
X6.15Y-2.5098
X6.15Y-2.5984
X6.15Y-2.6831
X6.15Y-2.7618
X6.15Y-2.8445
X6.2126Y-2.9173
X6.2126Y-2.9882
X6.2126Y-3.0531
X6.2136Y-2.5098
X6.2136Y-2.5984
X6.2136Y-2.6831
X6.2136Y-2.7618
X6.2136Y-2.8445
X6.2185Y-3.124
X6.2762Y-2.9173
X6.2762Y-2.9882
X6.2762Y-3.0531
X6.2772Y-2.7618
X6.2772Y-2.8445
X6.2776Y-2.5098
X6.2808Y-3.124
X6.2992Y-3.4035
X6.3408Y-2.7618
X6.3408Y-2.8445
X6.3408Y-2.9173
X6.3408Y-2.9882
X6.3408Y-3.0531
X6.3412Y-2.5098
X6.3432Y-3.124
X6.3615Y-3.4035
X6.3799Y-3.8465
X6.3799Y-3.935
X6.4044Y-2.7618
X6.4044Y-2.8445
X6.4044Y-2.9173
X6.4044Y-2.9882
X6.4044Y-3.0531
X6.4048Y-2.5098
X6.4055Y-3.124
X6.4239Y-3.4035
X6.4435Y-3.8465
X6.4435Y-3.935
X6.4626Y-3.124
X6.468Y-2.7618
X6.468Y-2.8445
X6.4684Y-2.5098
X6.4823Y-3.4031
X6.5071Y-3.8465
X6.5071Y-3.935
X6.5249Y-3.124
X6.5316Y-2.8445
X6.532Y-2.5098
X6.5446Y-3.4031
X6.5696Y-3.8465
X6.5696Y-3.935
X6.5952Y-2.8445
X6.5956Y-2.5098
X6.607Y-3.4031
X6.6332Y-3.8465
X6.6332Y-3.935
X6.6588Y-2.8445
X6.6592Y-2.5098
X6.6693Y-3.4031
X6.6713Y-3.0551
X6.6969Y-3.8465
X6.6969Y-3.935
X6.6988Y-3.2697
X6.7224Y-2.8445
X6.7228Y-2.5098
X6.7323Y-3.4035
X6.7329Y-3.0
X6.7343Y-3.0551
X6.7605Y-3.8465
X6.7605Y-3.935
X6.7612Y-3.2697
X6.7946Y-3.4035
X6.8241Y-3.8465
X6.8241Y-3.935
X6.857Y-3.4035
X6.8877Y-3.8465
X6.8877Y-3.935
X6.9193Y-3.4035
X6.9513Y-3.8465
X6.9513Y-3.935
X6.9823Y-2.7579
X6.9836Y-3.4035
X7.0149Y-3.8465
X7.0149Y-3.935
X7.0459Y-3.3406
X7.0459Y-3.4035
X7.0459Y-3.4646
X7.0492Y-2.7579
X7.0689Y-3.063
X7.0748Y-2.498
X7.0785Y-3.8465
X7.0785Y-3.935
X7.1083Y-3.3406
X7.1083Y-3.4035
X7.1083Y-3.4646
X7.1102Y-2.9961
X7.1371Y-2.498
X7.1421Y-3.8465
X7.1421Y-3.935
X7.1476Y-3.065
X7.1555Y-2.9961
X7.1706Y-3.3406
X7.1706Y-3.4035
X7.1706Y-3.4646
X7.1995Y-2.498
X7.2057Y-3.8465
X7.2057Y-3.935
X7.2657Y-2.7461
X7.2693Y-3.8465
X7.2693Y-3.935
X7.2717Y-2.498
X7.3031Y-3.1988
X7.3031Y-3.2618
X7.3031Y-3.3228
X7.3281Y-2.7461
X7.3329Y-3.8465
X7.3329Y-3.935
X7.334Y-2.498
X7.3543Y-3.3386
X7.3904Y-2.7461
X7.3963Y-2.498
X7.3965Y-3.8465
X7.3965Y-3.935
X7.4331Y-2.9685
X7.4331Y-3.0413
X7.4409Y-3.624
X7.4528Y-2.7461
X7.4587Y-2.498
X7.4665Y-3.3386
X7.5197Y-2.498
X7.5413Y-3.626
X7.5433Y-3.3425
X7.582Y-2.498
X7.6398Y-3.3602
X7.6398Y-3.3976
X7.6444Y-2.498
X7.6732Y-3.1127
X7.7067Y-2.498
X7.7067Y-2.5728
X7.7067Y-2.6352
X7.7067Y-2.6975
X7.7067Y-2.7598
X7.7067Y-2.8228
X7.7067Y-2.8852
X7.7356Y-3.0531
X7.7356Y-3.1127
X7.7441Y-3.3976
X7.75Y-2.9272
X7.75Y-3.002
X7.7933Y-3.2421
X7.7979Y-3.1127
X7.8556Y-3.2421
X7.937Y-3.3406
X7.9501Y-3.1068
X8.0079Y-2.9232
X8.0079Y-2.998
X8.0125Y-3.0512
X8.0125Y-3.1068
X8.0748Y-3.1068
X8.0827Y-3.3839
X8.1339Y-2.7159
X8.1339Y-2.7756
X8.187Y-2.7159
X8.187Y-2.7756
X8.187Y-2.9626
X8.2244Y-3.2953
X8.2244Y-3.3576
X8.2244Y-3.4199
X8.2244Y-3.4823
X8.2244Y-3.5453
X8.2244Y-3.6043
X8.2244Y-3.6791
X8.2244Y-3.7415
X8.2244Y-3.8038
X8.2244Y-3.8661
X8.2244Y-3.9291
X8.2441Y-2.7159
X8.2441Y-2.7756
X8.2441Y-2.9626
X8.2972Y-2.7159
X8.2972Y-2.7756
X8.2972Y-2.8392
X8.2972Y-2.9016
X8.2972Y-2.9626
T2
X6.7362Y-3.2047
T3
X4.9933Y-3.6565
X4.9933Y-3.7565
X5.0933Y-3.6565
X5.0933Y-3.7565
X5.1933Y-3.6565
X5.1933Y-3.7565
X5.2933Y-3.6565
X5.2933Y-3.7565
X5.3933Y-3.6565
X5.3933Y-3.7565
X5.4933Y-3.6565
X5.4933Y-3.7565
X5.5933Y-3.6565
X5.5933Y-3.7565
X5.6933Y-3.6565
X5.6933Y-3.7565
X5.7933Y-3.6565
X5.7933Y-3.7565
X5.8933Y-3.6565
X5.8933Y-3.7565
X5.9933Y-3.6565
X5.9933Y-3.7565
X6.0933Y-3.6565
X6.0933Y-3.7565
X6.1933Y-3.6565
X6.1933Y-3.7565
X6.2933Y-3.6565
X6.2933Y-3.7565
X6.3933Y-3.6565
X6.3933Y-3.7565
X6.4933Y-3.6565
X6.4933Y-3.7565
X6.5933Y-3.6565
X6.5933Y-3.7565
X6.6933Y-3.6565
X6.6933Y-3.7565
X6.7933Y-3.6565
X6.7933Y-3.7565
X6.8933Y-3.6565
X6.8933Y-3.7565
X6.9933Y-3.6565
X6.9933Y-3.7565
X7.0933Y-3.6565
X7.0933Y-3.7565
X7.1933Y-3.6565
X7.1933Y-3.7565
X7.2933Y-3.6565
X7.2933Y-3.7565
X7.3933Y-3.6565
X7.3933Y-3.7565
X7.4933Y-3.6565
X7.4933Y-3.7565
X7.5933Y-3.6565
X7.5933Y-3.7565
X7.6933Y-3.6565
X7.6933Y-3.7565
X7.7933Y-3.6565
X7.7933Y-3.7565
X7.8933Y-3.6565
X7.8933Y-3.7565
X7.9933Y-3.6565
X7.9933Y-3.7565
X8.0933Y-3.6565
X8.0933Y-3.7565
T4
X6.3524Y-2.622
X6.4508Y-2.622
X6.5492Y-2.622
X6.6476Y-2.622
X7.0374Y-2.622
X7.1358Y-2.622
X7.2343Y-2.622
T5
X6.8425Y-2.5398
X6.8425Y-2.6398
X7.4902Y-2.622
X7.5886Y-2.622
X7.5943Y-3.4726
X7.5943Y-3.9234
X7.6943Y-3.4726
X7.6943Y-3.9234
X7.7943Y-3.4726
X7.7943Y-3.9234
X7.8943Y-3.4726
X7.8943Y-3.9234
X7.9943Y-3.4726
X7.9943Y-3.9234
X8.0807Y-2.6191
X8.0943Y-3.4726
X8.0943Y-3.9234
X8.1791Y-2.6191
X8.25Y-3.0673
X8.25Y-3.1673
T6
X4.9931Y-3.0787
X4.9931Y-3.2756
X5.3432Y-3.0787
X5.3432Y-3.2756
X5.6932Y-3.0787
X5.6932Y-3.2756
X6.0433Y-3.0787
X6.0433Y-3.2756
M30
